<svg xmlns="http://www.w3.org/2000/svg" width="1809" height="1772" viewBox="0 0 1809 1772">
  <defs>
    <radialGradient id="back-a" cx="1.279%" cy="0%" r="141.25%" fx="1.279%" fy="0%" gradientTransform="scale(1 .56119) rotate(62.921 .013 0)">
      <stop offset="0%" stop-color="#FAC988"/>
      <stop offset="100%" stop-color="#E75C5E"/>
    </radialGradient>
    <linearGradient id="back-b" x1="50%" x2="50%" y1="0%" y2="100%">
      <stop offset="0%" stop-color="#FAC988" stop-opacity="0"/>
      <stop offset="100%" stop-color="#E75C5E"/>
    </linearGradient>
  </defs>
  <g fill="none" fill-rule="evenodd" transform="translate(.5)">
    <g transform="translate(544 246)">
      <rect width="720" height="1283" fill="url(#back-a)"/>
      <rect width="720" height="769" y="513" fill="url(#back-b)"/>
    </g>
    <g transform="translate(544 246)">
      <rect width="720" height="1283" fill="url(#back-a)"/>
      <rect width="720" height="769" y="513" fill="url(#back-b)"/>
    </g>
    <path fill="#FFF" fill-rule="nonzero" d="M904.111512,1771.30172 C404.784512,1771.30172 0,1374.78232 0,885.650861 C0,396.519397 404.784512,0 904.111512,0 C1403.43851,0 1808.22302,396.519397 1808.22302,885.650861 C1808.22302,1374.78232 1403.43851,1771.30172 904.111512,1771.30172 Z M904.111512,1689.75454 C460.017313,1689.75454 100.007833,1329.74506 100.007833,885.650861 C100.007833,441.556662 460.017313,81.5471819 904.111512,81.5471819 C1348.20571,81.5471819 1708.21519,441.556662 1708.21519,885.650861 C1708.21519,1329.74506 1348.20571,1689.75454 904.111512,1689.75454 Z M904.593878,1599.06978 C510.849891,1599.06978 191.657323,1279.87721 191.657323,886.133227 C191.657323,492.38924 510.849891,173.196671 904.593878,173.196671 C1298.33786,173.196671 1617.53043,492.38924 1617.53043,886.133227 C1617.53043,1279.87721 1298.33786,1599.06978 904.593878,1599.06978 Z M905.076244,1512.24395 C559.551243,1512.24395 279.447886,1232.14059 279.447886,886.615592 C279.447886,541.090592 559.551243,260.987235 905.076244,260.987235 C1250.60124,260.987235 1530.7046,541.090592 1530.7046,886.615592 C1530.7046,1232.14059 1250.60124,1512.24395 905.076244,1512.24395 Z M905.076244,1422.52392 C609.102245,1422.52392 369.167913,1182.58959 369.167913,886.615592 C369.167913,590.641594 609.102245,350.707262 905.076244,350.707262 C1201.05024,350.707262 1440.98457,590.641594 1440.98457,886.615592 C1440.98457,1182.58959 1201.05024,1422.52392 905.076244,1422.52392 Z M905.076244,1327.98024 C661.31728,1327.98024 463.711597,1130.37456 463.711597,886.615592 C463.711597,642.856629 661.31728,445.250945 905.076244,445.250945 C1148.83521,445.250945 1346.44089,642.856629 1346.44089,886.615592 C1346.44089,1130.37456 1148.83521,1327.98024 905.076244,1327.98024 Z M905.076244,1236.33075 C711.933895,1236.33075 555.361086,1079.75794 555.361086,886.615592 C555.361086,693.473244 711.933895,536.900435 905.076244,536.900435 C1098.21859,536.900435 1254.7914,693.473244 1254.7914,886.615592 C1254.7914,1079.75794 1098.21859,1236.33075 905.076244,1236.33075 Z M905.076244,1141.78707 C764.14893,1141.78707 649.90477,1027.54291 649.90477,886.615592 C649.90477,745.688279 764.14893,631.444119 905.076244,631.444119 C1046.00356,631.444119 1160.24772,745.688279 1160.24772,886.615592 C1160.24772,1027.54291 1046.00356,1141.78707 905.076244,1141.78707 Z M905.076244,1051.10231 C814.232739,1051.10231 740.589528,977.459097 740.589528,886.615592 C740.589528,795.772088 814.232739,722.128877 905.076244,722.128877 C995.919748,722.128877 1069.56296,795.772088 1069.56296,886.615592 C1069.56296,977.459097 995.919748,1051.10231 905.076244,1051.10231 Z M905.076244,959.452818 C864.849355,959.452818 832.239018,926.842481 832.239018,886.615592 C832.239018,846.388703 864.849355,813.778366 905.076244,813.778366 C945.303133,813.778366 977.913469,846.388703 977.913469,886.615592 C977.913469,926.842481 945.303133,959.452818 905.076244,959.452818 Z M905.076244,909.286782 C917.597196,909.286782 927.747433,899.136544 927.747433,886.615592 C927.747433,874.09464 917.597196,863.944403 905.076244,863.944403 C892.555291,863.944403 882.405054,874.09464 882.405054,886.615592 C882.405054,899.136544 892.555291,909.286782 905.076244,909.286782 Z M905.076244,1000.93627 C968.213811,1000.93627 1019.39692,949.75316 1019.39692,886.615592 C1019.39692,823.478025 968.213811,772.294913 905.076244,772.294913 C841.938676,772.294913 790.755565,823.478025 790.755565,886.615592 C790.755565,949.75316 841.938676,1000.93627 905.076244,1000.93627 Z M905.076244,1091.62103 C1018.29762,1091.62103 1110.08168,999.836969 1110.08168,886.615592 C1110.08168,773.394216 1018.29762,681.610155 905.076244,681.610155 C791.854867,681.610155 700.070807,773.394216 700.070807,886.615592 C700.070807,999.836969 791.854867,1091.62103 905.076244,1091.62103 Z M905.076244,1186.16471 C1070.51265,1186.16471 1204.62536,1052.052 1204.62536,886.615592 C1204.62536,721.179181 1070.51265,587.066471 905.076244,587.066471 C739.639832,587.066471 605.527123,721.179181 605.527123,886.615592 C605.527123,1052.052 739.639832,1186.16471 905.076244,1186.16471 Z M905.076244,1277.8142 C1121.12927,1277.8142 1296.27485,1102.66862 1296.27485,886.615592 C1296.27485,670.562566 1121.12927,495.416982 905.076244,495.416982 C689.023217,495.416982 513.877633,670.562566 513.877633,886.615592 C513.877633,1102.66862 689.023217,1277.8142 905.076244,1277.8142 Z M905.076244,1372.35789 C1173.34431,1372.35789 1390.81854,1154.88365 1390.81854,886.615592 C1390.81854,618.347531 1173.34431,400.873298 905.076244,400.873298 C636.808182,400.873298 419.333949,618.347531 419.333949,886.615592 C419.333949,1154.88365 636.808182,1372.35789 905.076244,1372.35789 Z M905.076244,1462.07791 C1222.89531,1462.07791 1480.53856,1204.43466 1480.53856,886.615592 C1480.53856,568.796528 1222.89531,311.153271 905.076244,311.153271 C587.25718,311.153271 329.613923,568.796528 329.613923,886.615592 C329.613923,1204.43466 587.25718,1462.07791 905.076244,1462.07791 Z M904.593878,1548.90375 C1270.63193,1548.90375 1567.3644,1252.17128 1567.3644,886.133227 C1567.3644,520.095176 1270.63193,223.362708 904.593878,223.362708 C538.555828,223.362708 241.823359,520.095176 241.823359,886.133227 C241.823359,1252.17128 538.555828,1548.90375 904.593878,1548.90375 Z M904.111512,1639.5885 C1320.49977,1639.5885 1658.04915,1302.03912 1658.04915,885.650861 C1658.04915,469.262599 1320.49977,131.713218 904.111512,131.713218 C487.72325,131.713218 150.17387,469.262599 150.17387,885.650861 C150.17387,1302.03912 487.72325,1639.5885 904.111512,1639.5885 Z M904.111512,1716.04816 C1372.28674,1716.04816 1751.81775,1344.26662 1751.81775,885.650861 C1751.81775,427.035097 1372.28674,55.253563 904.111512,55.253563 C435.936286,55.253563 56.4052773,427.035097 56.4052773,885.650861 C56.4052773,1344.26662 435.936286,1716.04816 904.111512,1716.04816 Z" opacity=".172"/>
  </g>
</svg>
