<svg xmlns="http://www.w3.org/2000/svg" width="80" height="42" viewBox="0 0 80 42">
  <g fill="none" fill-rule="evenodd" transform="translate(1)">
    <g stroke-linecap="round" stroke-linejoin="round" transform="translate(0 5)">
      <path fill="#EA3434" stroke="#45413C" d="M15.4825208,8.50392 C15.4825208,8.50392 8.10504906,0.392623774 0.726124528,0.539747044 C0.726124528,0.539747044 4.82891698,3.66686717 1.79104906,8.50392 C1.79104906,8.50392 -1.95670724,15.2630602 3.02116678,19.9965897 C3.02116678,19.9965897 5.43347746,22.6462055 6.44010566,27.6659753 C6.72562511,29.08978 6.80912453,33.1005288 10.6838226,26.2382791 C10.6838226,26.2382791 14.0296906,20.8022244 15.4825208,18.2305697 L15.4825208,8.50392 Z"/>
      <path stroke="#981C1C" stroke-width="2" d="M13 16.5333333L7 22.7333333M12.5 12.9166667L3.5 17.05M13 10.3333333L3.5 10.85M10.3483939 7.21535951L5.19694385 6.46091568"/>
    </g>
    <g stroke-linecap="round" stroke-linejoin="round" transform="rotate(180 39 15.5)">
      <path fill="#EA3434" stroke="#45413C" d="M15.4825208,8.50392 C15.4825208,8.50392 8.10504906,0.392623774 0.726124528,0.539747044 C0.726124528,0.539747044 4.82891698,3.66686717 1.79104906,8.50392 C1.79104906,8.50392 -1.95670724,15.2630602 3.02116678,19.9965897 C3.02116678,19.9965897 5.43347746,22.6462055 6.44010566,27.6659753 C6.72562511,29.08978 6.80912453,33.1005288 10.6838226,26.2382791 C10.6838226,26.2382791 14.0296906,20.8022244 15.4825208,18.2305697 L15.4825208,8.50392 Z"/>
      <path stroke="#981C1C" stroke-width="2" d="M13 16.5333333L7 22.7333333M12.5 12.9166667L3.5 17.05M13 10.3333333L3.5 10.85M10.3483939 7.21535951L5.19694385 6.46091568"/>
    </g>
    <path fill="#151444" d="M60.9548151,39.0879604 C60.9548151,40.2909038 51.5230415,41.2672057 39.8887774,41.2672057 C28.2545132,41.2672057 18.8227396,40.2909038 18.8227396,39.0879604 C18.8227396,37.885017 28.2545132,36.9087151 39.8887774,36.9087151 C51.5230415,36.9087151 60.9548151,37.885017 60.9548151,39.0879604" opacity=".3"/>
    <path fill="#EA3434" d="M62.736783,18.5554251 C62.736783,28.6032656 51.9922502,36.748583 38.736783,36.748583 C25.4813158,36.748583 14.736783,28.6032656 14.736783,18.5554251 C14.736783,8.50608539 25.4813158,0.360767989 38.736783,0.360767989 C51.9922502,0.360767989 62.736783,8.50608539 62.736783,18.5554251"/>
    <path fill="#981C1C" d="M18,24.6506963 C21.8738137,29.7632382 29.2512432,33.2167404 37.7157075,33.2167404 C50.2009175,33.2167404 60.3211001,25.703064 60.3211001,16.4343987 C60.3211001,14.5324195 59.8950743,12.7043777 59.1100054,11 C60.9503166,13.4288335 62,16.2321589 62,19.2176583 C62,28.4863236 51.8798174,36 39.3946074,36 C29.4707096,36 21.0410129,31.2529332 18,24.6506963 Z"/>
    <path stroke="#45413C" d="M62.736783,18.9245963 C62.736783,28.8653487 51.9922502,36.9238547 38.736783,36.9238547 C25.4813158,36.9238547 14.736783,28.8653487 14.736783,18.9245963 C14.736783,8.98236075 25.4813158,0.923854717 38.736783,0.923854717 C51.9922502,0.923854717 62.736783,8.98236075 62.736783,18.9245963 Z"/>
    <g transform="translate(41.68 2.991)">
      <path fill="#EA7D96" d="M0.870390566,0.947826415 C0.870390566,0.947826415 10.1757679,2.83069434 14.9497679,8.33982642"/>
      <path stroke="#F294B1" stroke-linecap="round" stroke-linejoin="round" stroke-width="2" d="M0.870390566,0.947826415 C0.870390566,0.947826415 10.1757679,2.83069434 14.9497679,8.33982642"/>
    </g>
    <path fill="#FFD5B3" d="M51.598734 18.3056604C51.598734 19.0088302 50.6442245 19.5826981 49.4674321 19.5826981 48.2906396 19.5826981 47.3361302 19.0088302 47.3361302 18.3056604 47.3361302 17.5966792 48.2906396 17.0228113 49.4674321 17.0228113 50.6442245 17.0228113 51.598734 17.5966792 51.598734 18.3056604M26.8821698 18.3056604C26.8821698 19.0088302 27.8366792 19.5826981 29.0134717 19.5826981 30.1888113 19.5826981 31.1433208 19.0088302 31.1433208 18.3056604 31.1433208 17.5966792 30.1888113 17.0228113 29.0134717 17.0228113 27.8366792 17.0228113 26.8821698 17.5966792 26.8821698 18.3056604"/>
    <path stroke="#45413C" stroke-linecap="round" stroke-linejoin="round" d="M51.1723283 13.1896642C51.1723283 14.0148717 50.5054792 14.6788151 49.6817245 14.6788151 48.856517 14.6788151 48.1896679 14.0148717 48.1896679 13.1896642M30.2913811 13.1896642C30.2913811 14.0148717 29.6245321 14.6788151 28.7993245 14.6788151 27.9755698 14.6788151 27.3087208 14.0148717 27.3087208 13.1896642"/>
    <path fill="#FFB0CA" d="M34.078183,20.8623509 C33.8442774,20.8623509 33.6219943,20.9640491 33.4679943,21.1398415 C33.3169,21.3185396 33.2471642,21.5553509 33.2834849,21.7878038 C33.7295038,24.6760302 36.2269189,26.8262189 39.2415415,26.8262189 C42.2547113,26.8262189 44.7521264,24.6760302 45.1966925,21.7878038 C45.2330132,21.5553509 45.166183,21.3185396 45.012183,21.1398415 C44.8596358,20.9611434 44.6373528,20.8623509 44.4019943,20.8623509 L34.078183,20.8623509 Z"/>
    <path stroke="#45413C" stroke-linecap="round" stroke-linejoin="round" stroke-width=".6" d="M34.078183,20.8623509 C33.8442774,20.8623509 33.6219943,20.9640491 33.4679943,21.1398415 C33.3169,21.3185396 33.2471642,21.5553509 33.2834849,21.7878038 C33.7295038,24.6760302 36.2269189,26.8262189 39.2415415,26.8262189 C42.2547113,26.8262189 44.7521264,24.6760302 45.1966925,21.7878038 C45.2330132,21.5553509 45.166183,21.3185396 45.012183,21.1398415 C44.8596358,20.9611434 44.6373528,20.8623509 44.4019943,20.8623509 L34.078183,20.8623509 Z"/>
    <path fill="#FF87AF" d="M43.9904075,24.5596585 C42.8107094,23.8753755 41.1225208,23.4409792 39.2411057,23.4409792 C37.3582377,23.4409792 35.6685962,23.8753755 34.4903509,24.5596585 C35.5930491,25.9761679 37.3088415,26.8275264 39.2411057,26.8275264 C41.171917,26.8275264 42.8877094,25.9761679 43.9904075,24.5596585"/>
    <path stroke="#45413C" stroke-linecap="round" stroke-linejoin="round" stroke-width=".6" d="M43.9904075,24.5596585 C42.8107094,23.8753755 41.1225208,23.4409792 39.2411057,23.4409792 C37.3582377,23.4409792 35.6685962,23.8753755 34.4903509,24.5596585 C35.5930491,25.9761679 37.3088415,26.8275264 39.2411057,26.8275264 C41.171917,26.8275264 42.8877094,25.9761679 43.9904075,24.5596585 Z"/>
  </g>
</svg>
