<svg xmlns="http://www.w3.org/2000/svg" width="80" height="42" viewBox="0 0 80 42">
  <g fill="none" fill-rule="evenodd" transform="translate(1 1)">
    <path fill="#151444" d="M61,39 C61,40.104 51.373931,41 39.5,41 C27.626069,41 18,40.104 18,39 C18,37.896 27.626069,37 39.5,37 C51.373931,37 61,37.896 61,39" opacity=".3"/>
    <g stroke-linecap="round" stroke-linejoin="round" transform="translate(0 5)">
      <path fill="#EA3434" stroke="#45413C" d="M15.4825208,8.50392 C15.4825208,8.50392 8.10504906,0.392623774 0.726124528,0.539747044 C0.726124528,0.539747044 4.82891698,3.66686717 1.79104906,8.50392 C1.79104906,8.50392 -1.95670724,15.2630602 3.02116678,19.9965897 C3.02116678,19.9965897 5.43347746,22.6462055 6.44010566,27.6659753 C6.72562511,29.08978 6.80912453,33.1005288 10.6838226,26.2382791 C10.6838226,26.2382791 14.0296906,20.8022244 15.4825208,18.2305697 L15.4825208,8.50392 Z"/>
      <path stroke="#981C1C" stroke-width="2" d="M13 16.5333333L7 22.7333333M12.5 12.9166667L3.5 17.05M13 10.3333333L3.5 10.85M10.3483939 7.21535951L5.19694385 6.46091568"/>
    </g>
    <g transform="rotate(180 39 15.5)">
      <path fill="#EA3434" stroke="#45413C" d="M15.4825208,8.50392 C15.4825208,8.50392 8.10504906,0.392623774 0.726124528,0.539747044 C0.726124528,0.539747044 4.82891698,3.66686717 1.79104906,8.50392 C1.79104906,8.50392 -1.95670724,15.2630602 3.02116678,19.9965897 C3.02116678,19.9965897 5.43347746,22.6462055 6.44010566,27.6659753 C6.72562511,29.08978 6.80912453,33.1005288 10.6838226,26.2382791 C10.6838226,26.2382791 14.0296906,20.8022244 15.4825208,18.2305697 L15.4825208,8.50392 Z"/>
      <path stroke="#981C1C" stroke-linecap="round" stroke-linejoin="round" stroke-width="2" d="M13 16.5333333L7 22.7333333M12.5 12.9166667L3.5 17.05M13 10.3333333L3.5 10.85M10.3483939 7.21535951L5.19694385 6.46091568"/>
    </g>
    <path fill="#EA3434" d="M63,18.0007416 C63,27.941494 52.2554672,36 39,36 C25.7445328,36 15,27.941494 15,18.0007416 C15,8.05850604 25.7445328,0 39,0 C52.2554672,0 63,8.05850604 63,18.0007416"/>
    <path fill="#981C1C" d="M18,23.6506963 C21.8738137,28.7632382 29.2512432,32.2167404 37.7157075,32.2167404 C50.2009175,32.2167404 60.3211001,24.703064 60.3211001,15.4343987 C60.3211001,13.5324195 59.8950743,11.7043777 59.1100054,10 C60.9503166,12.4288335 62,15.2321589 62,18.2176583 C62,27.4863236 51.8798174,35 39.3946074,35 C29.4707096,35 21.0410129,30.2529332 18,23.6506963 Z"/>
    <path stroke="#45413C" d="M63,18.0007416 C63,27.941494 52.2554672,36 39,36 C25.7445328,36 15,27.941494 15,18.0007416 C15,8.05850604 25.7445328,0 39,0 C52.2554672,0 63,8.05850604 63,18.0007416 Z"/>
    <g transform="translate(42 2)">
      <path fill="#EA7D96" d="M0.871418182,0.9786 C0.871418182,0.9786 10.1877818,2.9226 14.9674182,8.6106"/>
      <path stroke="#F294B1" stroke-linecap="round" stroke-linejoin="round" stroke-width="2" d="M0.871418182,0.9786 C0.871418182,0.9786 10.1877818,2.9226 14.9674182,8.6106"/>
    </g>
    <path fill="#FFD5B3" d="M51 19.001853C51 19.551575 50.1048536 20 49.000741 20 47.8951464 20 47 19.551575 47 19.001853 47 18.448425 47.8951464 18 49.000741 18 50.1048536 18 51 18.448425 51 19.001853M28 19.001853C28 19.551575 28.8959645 20 29.9992595 20 31.1025546 20 32 19.551575 32 19.001853 32 18.448425 31.1025546 18 29.9992595 18 28.8959645 18 28 18.448425 28 19.001853"/>
    <path stroke="#45413C" stroke-linecap="round" stroke-linejoin="round" d="M49 12L46.4417518 13.2844444C45.8527494 13.5777778 45.8527494 14.4207407 46.4417518 14.7155556L49 16M29 12L31.5594096 13.2844444C32.1468635 13.5777778 32.1468635 14.4207407 31.5594096 14.7155556L29 16"/>
    <path fill="#FFB0CA" d="M34.7417014,21 C34.5263414,21 34.3197123,21.1031746 34.1800193,21.2809524 C34.0374161,21.4603175 33.9763005,21.6952381 34.0083134,21.931746 C34.4186614,24.8380952 36.7221399,27 39.5014475,27 C42.2792999,27 44.5827784,24.8380952 44.9916712,21.931746 C45.0236842,21.6952381 44.9625685,21.4603175 44.8228756,21.2809524 C44.6817275,21.1031746 44.4736432,21 44.2582833,21 L34.7417014,21 Z"/>
    <path stroke="#45413C" stroke-linecap="round" stroke-linejoin="round" stroke-width=".6" d="M34.7417014,21 C34.5263414,21 34.3197123,21.1031746 34.1800193,21.2809524 C34.0374161,21.4603175 33.9763005,21.6952381 34.0083134,21.931746 C34.4186614,24.8380952 36.7221399,27 39.5014475,27 C42.2792999,27 44.5827784,24.8380952 44.9916712,21.931746 C45.0236842,21.6952381 44.9625685,21.4603175 44.8228756,21.2809524 C44.6817275,21.1031746 44.4736432,21 44.2582833,21 L34.7417014,21 Z"/>
    <path fill="#FF87AF" d="M44,24.9883341 C42.8817276,24.3835744 41.2835548,24 39.5,24 C37.7179402,24 36.1182724,24.3835744 35,24.9883341 C36.0450166,26.2426505 37.6686047,27 39.5,27 C41.3299003,27 42.9564784,26.2426505 44,24.9883341"/>
    <path stroke="#45413C" stroke-linecap="round" stroke-linejoin="round" stroke-width=".6" d="M44,24.9883341 C42.8817276,24.3835744 41.2835548,24 39.5,24 C37.7179402,24 36.1182724,24.3835744 35,24.9883341 C36.0450166,26.2426505 37.6686047,27 39.5,27 C41.3299003,27 42.9564784,26.2426505 44,24.9883341 Z"/>
  </g>
</svg>
