<svg xmlns="http://www.w3.org/2000/svg" width="80" height="43" viewBox="0 0 80 43">
  <g fill="none" fill-rule="evenodd" transform="translate(1)">
    <g stroke-linecap="round" stroke-linejoin="round" transform="translate(0 6)">
      <path fill="#EA3434" stroke="#45413C" d="M15.4825208,8.50392 C15.4825208,8.50392 8.10504906,0.392623774 0.726124528,0.539747044 C0.726124528,0.539747044 4.82891698,3.66686717 1.79104906,8.50392 C1.79104906,8.50392 -1.95670724,15.2630602 3.02116678,19.9965897 C3.02116678,19.9965897 5.43347746,22.6462055 6.44010566,27.6659753 C6.72562511,29.08978 6.80912453,33.1005288 10.6838226,26.2382791 C10.6838226,26.2382791 14.0296906,20.8022244 15.4825208,18.2305697 L15.4825208,8.50392 Z"/>
      <path stroke="#981C1C" stroke-width="2" d="M13 16.5333333L7 22.7333333M12.5 12.9166667L3.5 17.05M13 10.3333333L3.5 10.85M10.3483939 7.21535951L5.19694385 6.46091568"/>
    </g>
    <g stroke-linecap="round" stroke-linejoin="round" transform="rotate(180 39 16)">
      <path fill="#EA3434" stroke="#45413C" d="M15.4825208,8.50392 C15.4825208,8.50392 8.10504906,0.392623774 0.726124528,0.539747044 C0.726124528,0.539747044 4.82891698,3.66686717 1.79104906,8.50392 C1.79104906,8.50392 -1.95670724,15.2630602 3.02116678,19.9965897 C3.02116678,19.9965897 5.43347746,22.6462055 6.44010566,27.6659753 C6.72562511,29.08978 6.80912453,33.1005288 10.6838226,26.2382791 C10.6838226,26.2382791 14.0296906,20.8022244 15.4825208,18.2305697 L15.4825208,8.50392 Z"/>
      <path stroke="#981C1C" stroke-width="2" d="M13 16.5333333L7 22.7333333M12.5 12.9166667L3.5 17.05M13 10.3333333L3.5 10.85M10.3483939 7.21535951L5.19694385 6.46091568"/>
    </g>
    <path fill="#151444" d="M60.9548151,40.0879604 C60.9548151,41.2909038 51.5230415,42.2672057 39.8887774,42.2672057 C28.2545132,42.2672057 18.8227396,41.2909038 18.8227396,40.0879604 C18.8227396,38.885017 28.2545132,37.9087151 39.8887774,37.9087151 C51.5230415,37.9087151 60.9548151,38.885017 60.9548151,40.0879604" opacity=".3"/>
    <path fill="#EA3434" d="M63.2530736,19.5554209 C63.2530736,29.5473947 52.4495886,37.6474236 39.1213925,37.6474236 C25.7931963,37.6474236 14.9897113,29.5473947 14.9897113,19.5554209 C14.9897113,9.56195624 25.7931963,1.46192736 39.1213925,1.46192736 C52.4495886,1.46192736 63.2530736,9.56195624 63.2530736,19.5554209"/>
    <path stroke="#45413C" d="M63.2530736,19.5554415 C63.2530736,29.8235473 52.4495886,38.1474236 39.1213925,38.1474236 C25.7931963,38.1474236 14.9897113,29.8235473 14.9897113,19.5554415 C14.9897113,9.28580363 25.7931963,0.961927358 39.1213925,0.961927358 C52.4495886,0.961927358 63.2530736,9.28580363 63.2530736,19.5554415 Z"/>
    <path fill="#981C1C" d="M18,25.6506963 C21.8738137,30.7632382 29.2512432,34.2167404 37.7157075,34.2167404 C50.2009175,34.2167404 60.3211001,26.703064 60.3211001,17.4343987 C60.3211001,15.5324195 59.8950743,13.7043777 59.1100054,12 C60.9503166,14.4288335 62,17.2321589 62,20.2176583 C62,29.4863236 51.8798174,37 39.3946074,37 C29.4707096,37 21.0410129,32.2529332 18,25.6506963 Z"/>
    <g transform="translate(41.68 3.991)">
      <path fill="#EA7D96" d="M0.870390566,0.947826415 C0.870390566,0.947826415 10.1757679,2.83069434 14.9497679,8.33982642"/>
      <path stroke="#ED8787" stroke-linecap="round" stroke-linejoin="round" stroke-width="2" d="M0.870390566,0.947826415 C0.870390566,0.947826415 10.1757679,2.83069434 14.9497679,8.33982642"/>
    </g>
    <path fill="#FFD5B3" d="M50.4579717 18.3281962C50.4579717 18.9529132 49.6138774 19.4599509 48.5721981 19.4599509 47.5305189 19.4599509 46.6864245 18.9529132 46.6864245 18.3281962 46.6864245 17.7034792 47.5305189 17.1978943 48.5721981 17.1978943 49.6138774 17.1978943 50.4579717 17.7034792 50.4579717 18.3281962M28.5831434 18.3281962C28.5831434 18.9529132 29.4286906 19.4599509 30.468917 19.4599509 31.5105962 19.4599509 32.3546906 18.9529132 32.3546906 18.3281962 32.3546906 17.7034792 31.5105962 17.1978943 30.468917 17.1978943 29.4286906 17.1978943 28.5831434 17.7034792 28.5831434 18.3281962"/>
    <path stroke="#45413C" stroke-linecap="round" stroke-linejoin="round" d="M28.9605887 15.4991C28.9605887 14.7712321 29.5504377 14.1799302 30.2812113 14.1799302 31.0105321 14.1799302 31.6003811 14.7712321 31.6003811 15.4991M47.4408792 15.4991C47.4408792 14.7712321 48.0321811 14.1799302 48.7600491 14.1799302 49.4893698 14.1799302 50.0806717 14.7712321 50.0806717 15.4991"/>
    <path fill="#FFF" d="M57.3468566,24.8942623 L61.0806302,23.6491868 C61.2230075,23.6012434 61.3188943,23.467583 61.3188943,23.3179415 C61.3188943,23.1668472 61.2230075,23.0331868 61.0806302,22.9852434 L58.0122528,21.9609981 C57.5923849,21.8215264 57.2640453,21.4931868 57.1245736,21.0747717 L56.1017811,18.0034887 C56.0523849,17.8625642 55.9187245,17.7652245 55.7676302,17.7652245 C55.6179887,17.7652245 55.4828755,17.8625642 55.4363849,18.0034887 L54.4121396,21.071866 C54.2712151,21.4931868 53.9443283,21.8215264 53.5259132,21.9609981 L50.4531774,22.9852434 C50.3108,23.0331868 50.2134604,23.1668472 50.2134604,23.3179415 C50.2134604,23.467583 50.3108,23.6012434 50.4531774,23.6491868 L53.5259132,24.6734321 C53.9443283,24.8129038 54.2712151,25.1412434 54.4121396,25.5611113 L55.4363849,28.6323943 C55.4828755,28.7733189 55.6179887,28.8721113 55.7676302,28.8721113 C55.9187245,28.8721113 56.0523849,28.7733189 56.1017811,28.6323943 L57.3468566,24.8942623 Z"/>
    <path stroke="#45413C" stroke-linecap="round" stroke-linejoin="round" stroke-width=".8" d="M57.3468566,24.8942623 L61.0806302,23.6491868 C61.2230075,23.6012434 61.3188943,23.467583 61.3188943,23.3179415 C61.3188943,23.1668472 61.2230075,23.0331868 61.0806302,22.9852434 L58.0122528,21.9609981 C57.5923849,21.8215264 57.2640453,21.4931868 57.1245736,21.0747717 L56.1017811,18.0034887 C56.0523849,17.8625642 55.9187245,17.7652245 55.7676302,17.7652245 C55.6179887,17.7652245 55.4828755,17.8625642 55.4363849,18.0034887 L54.4121396,21.071866 C54.2712151,21.4931868 53.9443283,21.8215264 53.5259132,21.9609981 L50.4531774,22.9852434 C50.3108,23.0331868 50.2134604,23.1668472 50.2134604,23.3179415 C50.2134604,23.467583 50.3108,23.6012434 50.4531774,23.6491868 L53.5259132,24.6734321 C53.9443283,24.8129038 54.2712151,25.1412434 54.4121396,25.5611113 L55.4363849,28.6323943 C55.4828755,28.7733189 55.6179887,28.8721113 55.7676302,28.8721113 C55.9187245,28.8721113 56.0523849,28.7733189 56.1017811,28.6323943 L57.3468566,24.8942623 Z"/>
    <path fill="#FFF" d="M39.5206302,26.9203792 C46.4622528,26.9203792 47.3877057,24.0234358 46.9838189,21.652417 C46.7382906,20.2213792 45.0617245,19.3395113 43.5420642,19.8727 C42.3914226,20.2736811 41.0097811,20.5090396 39.5206302,20.5090396 C38.0314792,20.5090396 36.6498377,20.2736811 35.4991962,19.8727 C33.9795358,19.3395113 32.301517,20.2213792 32.0588943,21.652417 C31.6535547,24.0234358 32.5790075,26.9203792 39.5206302,26.9203792"/>
    <path stroke="#45413C" stroke-linecap="round" stroke-linejoin="round" stroke-width=".6" d="M39.5206302,26.9203792 C46.4622528,26.9203792 47.3877057,24.0234358 46.9838189,21.652417 C46.7382906,20.2213792 45.0617245,19.3395113 43.5420642,19.8727 C42.3914226,20.2736811 41.0097811,20.5090396 39.5206302,20.5090396 C38.0314792,20.5090396 36.6498377,20.2736811 35.4991962,19.8727 C33.9795358,19.3395113 32.301517,20.2213792 32.0588943,21.652417 C31.6535547,24.0234358 32.5790075,26.9203792 39.5206302,26.9203792 Z"/>
    <path stroke="#45413C" stroke-linecap="round" stroke-linejoin="round" stroke-width=".6" d="M47.0493415,22.1915623 C46.2837,22.5562226 45.1548509,22.9484868 43.5770774,23.2129019 C42.4613038,23.4017698 41.1290585,23.5267132 39.5207755,23.5267132 C37.9124925,23.5267132 36.5787943,23.4017698 35.4630208,23.2129019 C33.8852472,22.9484868 32.7563981,22.5562226 31.9922094,22.1915623"/>
    <polyline stroke="#45413C" stroke-linecap="round" stroke-linejoin="round" stroke-width=".6" points="35.957 20.014 35.464 23.213 34.988 26.305"/>
    <path stroke="#45413C" stroke-linecap="round" stroke-linejoin="round" stroke-width=".6" d="M39.5206302,26.9203792 L39.5206302,20.5090396"/>
    <polyline stroke="#45413C" stroke-linecap="round" stroke-linejoin="round" stroke-width=".6" points="43.085 20.014 43.578 23.213 44.054 26.305"/>
  </g>
</svg>
