<svg xmlns="http://www.w3.org/2000/svg" width="304" height="92" viewBox="0 0 304 92">
  <g fill="none" fill-rule="evenodd">
    <rect width="304" height="92" fill="#FFF" rx="46"/>
    <path fill="#EB3A0A" d="M97.4892631,67.3148883 C97.4892631,67.3148883 97.6736575,67.626946 97.3048686,67.626946 L80.7093721,67.626946 C80.4020481,67.626946 80.3405833,67.3148883 80.3405833,67.3148883 L73.7023847,50.8382405 C67.8017637,55.0822256 71.0593982,61.8226724 72.2272294,63.0709033 C72.7189478,63.8822533 69.5842429,69 63.9294812,69 C58.5820434,69 54.7097609,64.5687803 55.0170849,59.0765644 C55.3858737,52.6481753 62.2084667,46.0949631 70.9364686,43.5360898 L60.9791707,23.3771609 C60.9791707,23.3771609 60.8562411,22.9402801 61.3479595,22.9402801 L76.8985544,22.9402801 C77.2058784,22.9402801 77.328808,23.3147494 77.328808,23.3147494 L83.7211474,39.8538087 C90.052022,36.109116 86.4255987,27.4963228 85.1348378,26.2480919 C84.7045842,25.8112111 86.4255987,21.9416954 92.0803605,21.442403 C98.2268407,20.8806991 102.099123,25.1870957 101.976194,30.7417232 C101.853264,37.2949353 95.645319,43.9105591 86.7329227,46.5942555 L97.4892631,67.3148883 Z M133.630567,54.5829332 C132.462735,64.5063688 136.888201,62.3843763 136.089159,64.069488 C135.228651,66.0666574 131.602228,68.5007076 128.160199,68.5007076 C123.919128,68.5007076 120.907353,65.8170112 120.661493,61.3857916 C118.079972,65.442542 114.392084,68.4382961 110.089547,68.4382961 C102.344982,68.4382961 99.0873479,59.0141529 100.13225,50.6510059 C101.177151,42.1006243 106.463124,34.4864158 114.515013,34.4864158 C118.756085,34.4864158 121.460536,36.9204661 122.935691,40.4155126 C123.243015,37.7942277 123.488874,36.109116 123.488874,36.109116 C123.488874,35.7970583 123.857663,35.7346467 123.857663,35.7346467 L136.150624,35.7346467 C136.150624,35.7346467 136.335018,35.7970583 136.335018,36.0467044 C136.335018,36.0467044 134.18375,50.2765366 133.630567,54.5829332 Z M116.358957,59.8255029 C119.370733,59.8255029 121.460536,56.0808103 122.013719,51.3999444 C122.566902,46.7190786 121.399071,42.9119744 118.387296,42.9119744 C115.37552,42.9119744 113.347182,46.7190786 112.793999,51.3999444 C112.240816,56.0808103 113.347182,59.8255029 116.358957,59.8255029 Z M175.795421,36.5459968 C175.611026,37.9814623 172.046068,67.3148883 172.046068,67.3148883 C172.046068,67.626946 171.800209,67.626946 171.800209,67.626946 L159.937502,67.626946 C159.937502,67.626946 159.691643,67.626946 159.691643,67.3148883 C159.691643,67.3148883 161.658516,51.2751213 162.764883,42.0382127 L157.786234,42.0382127 C157.540375,47.8424864 156.802797,53.3347023 155.573501,58.2652143 C153.729557,65.7545997 150.287528,69 145.308879,69 C139.592652,69 138.056032,63.4453725 138.240427,62.1347301 C138.363356,60.9489107 142.174174,60.5120299 145.677668,51.5247675 C147.521612,46.656667 148.689443,36.6084084 148.689443,36.6084084 C148.689443,36.3587622 148.873838,36.2963506 148.935302,36.2963506 C157.417445,34.4240043 166.083982,34.2991812 175.672491,36.2963506 L175.611026,36.2963506 C175.672491,36.2963506 175.795421,36.3587622 175.795421,36.5459968 Z M191.960664,43.4736783 C198.967651,41.039628 208.863484,42.9119744 209.539597,51.7744137 C210.277175,61.8850839 202.40968,68.7503538 192.882636,68.7503538 C183.601451,68.7503538 178.561337,61.6354377 178.561337,53.0226446 C178.561337,39.4169279 186.490296,21.3799915 200.87306,21.0055222 C213.28895,20.6310529 217.345627,39.4169279 192.267988,42.2254474 L191.960664,43.4736783 Z M198.660327,29.1814345 C196.017341,29.1814345 194.234861,35.2977659 193.620213,37.48217 C193.620213,37.48217 199.705229,34.6736505 200.196947,30.8665462 C200.258412,30.0551962 200.196947,29.1814345 198.660327,29.1814345 Z M198.414468,54.7701678 C198.598862,51.3999444 197.615426,49.2155404 194.542185,48.6538365 C192.944101,48.4041903 190.977227,49.0283057 190.977227,49.0283057 C190.485508,51.7744137 189.133283,61.6978493 193.620213,61.6978493 C196.816383,61.6978493 198.353003,56.5801026 198.414468,54.7701678 Z M246.295549,54.5829332 C245.127717,64.5063688 249.553183,62.3843763 248.754141,64.069488 C247.893634,66.0666574 244.26721,68.5007076 240.825181,68.5007076 C236.58411,68.5007076 233.572335,65.8170112 233.326475,61.3857916 C230.744954,65.442542 227.057066,68.4382961 222.75453,68.4382961 C215.009964,68.4382961 211.75233,59.0141529 212.797232,50.6510059 C213.842133,42.1006243 219.128106,34.4864158 227.179995,34.4864158 C231.421067,34.4864158 234.125518,36.9204661 235.600673,40.4155126 C235.907997,37.7942277 236.153856,36.109116 236.153856,36.109116 C236.153856,35.7970583 236.522645,35.7346467 236.522645,35.7346467 L248.815606,35.7346467 C248.815606,35.7346467 249,35.7970583 249,36.0467044 C249,36.0467044 246.848732,50.2765366 246.295549,54.5829332 Z M229.023939,59.8255029 C232.035715,59.8255029 234.125518,56.0808103 234.678701,51.3999444 C235.231884,46.7190786 234.064053,42.9119744 231.052278,42.9119744 C228.040503,42.9119744 226.012164,46.7190786 225.458981,51.3999444 C224.905798,56.0808103 226.012164,59.8255029 229.023939,59.8255029 Z"/>
  </g>
</svg>
