<svg xmlns="http://www.w3.org/2000/svg" xmlns:xlink="http://www.w3.org/1999/xlink" width="351" height="339" viewBox="0 0 351 339">
  <defs>
    <polygon id="group_1-a" points=".228 .455 56.48 .455 56.48 162.711 .228 162.711"/>
  </defs>
  <g fill="none" fill-rule="evenodd" transform="translate(4.5)">
    <path fill="#FFE8EC" d="M203.268057 285C199.565489 285 196.536115 288.094658 196.536115 291.877018L196.536115 322.243179 188.164271 325.766963C184.740405 327.208386 183.095118 331.247946 184.504787 334.745598 185.915802 338.241874 189.870145 339.925368 193.294011 338.483945L204.907959 333.594385C205.477481 333.355065 205.975645 333.023592 206.440149 332.654984 208.5459 331.488642 210 329.237106 210 326.630716L210 291.877018C210 288.094658 206.970626 285 203.268057 285M155.268203 284C151.565715 284 148.536406 287.094648 148.536406 290.876995L148.536406 321.243052 140.164743 324.766824C136.740951 326.208242 135.094354 330.247788 136.505339 333.745428 137.916323 337.243067 141.870581 338.92518 145.294373 337.483762L156.908069 332.594219C157.476232 332.354899 157.975732 332.023428 158.438879 331.654821 160.544585 330.489858 162 328.236955 162 325.630574L162 290.876995C162 287.094648 158.970691 284 155.268203 284"/>
    <path fill="#FFE4E9" d="M286,159.5 C286,168.892495 265.785656,177.099424 235.690636,181.524351 C220.662343,183.734754 203.170059,185 184.5,185 C128.443151,185 83,173.582561 83,159.5 C83,145.416065 128.443151,134 184.5,134 C240.556849,134 286,145.416065 286,159.5"/>
    <path fill="#FFF" d="M278,158.5 C278,165.682784 259.57769,171.959254 232.151811,175.342018 C218.455313,177.031367 202.514432,178 185.499315,178 C134.414229,178 93,169.270113 93,158.5 C93,147.729887 134.414229,139 185.499315,139 C236.585771,139 278,147.729887 278,158.5"/>
    <path fill="#696055" d="M105,166 C119.732793,172.518319 150.234536,177 185.495222,177 C202.032755,177 217.528673,176.014704 230.841701,174.294817 C245.908958,172.349835 258.176275,169.464036 266,166.004044 C251.269937,159.483029 220.762734,155 185.495222,155 C150.234536,155 119.732793,159.480333 105,166"/>
    <path fill="#6E6A66" d="M125,166 C135.981113,171.926135 158.714909,176 184.996555,176 C197.322407,176 208.872553,175.103468 218.795511,173.541584 C230.024628,171.772484 239.169126,169.14914 245,166.002819 C234.020265,160.075275 211.282335,156 184.996555,156 C158.714909,156 135.981113,160.072456 125,166"/>
    <path fill="#E9E9E9" d="M84.7068495,260.276371 C73.8678161,237.376659 63.0274112,214.476947 52.1883778,191.577236 C50.4918216,187.992397 50.3628997,183.888791 51.7494951,180.173918 C54.9204232,171.684736 55.4415965,160.34712 51.4121039,149.652832 C44.2295128,130.592552 27.6356288,119.183759 14.3484524,124.17023 C1.061276,129.158069 -3.88712744,148.652253 3.29546369,167.712533 C7.96819388,180.112323 17.0091793,188.768496 26.164,192.25752 C29.3980175,193.490792 32.0916607,195.816351 33.7607868,198.844096 C46.1962563,221.40435 58.6330973,243.965973 71.0699383,266.526227 C76.3886491,276.174766 80.5498065,286.466633 82.8223965,297.243049 C85.0332685,307.718333 90.3314067,315.081007 96.9091625,316.670163 C98.6838948,317.09996 101.348736,317.301171 104.907801,316.043261 C108.027984,313.895643 109.418693,311.616622 110.100333,309.941233 C112.623909,303.737916 109.75197,295.218621 102.572122,287.39193 C95.2180922,279.37224 89.359007,270.10559 84.7068495,260.276371"/>
    <path fill="#B3B3AE" d="M37.5629108,154.033554 C42.8810592,168.061964 38.8332212,183.293724 31.7927333,185.529311 C23.8441029,188.054257 12.0831797,180.249876 6.76503125,166.221466 C1.44688283,152.193055 4.03107272,138.092305 12.5352087,134.7271 C21.0393446,131.360504 32.2447623,140.005143 37.5629108,154.033554"/>
    <path stroke="#000" stroke-width="2" d="M138,259 C138.507677,259.787884 146.770613,272.144573 161.580645,271.998719 C172.587258,271.891033 179.626774,264.954111 181,263.543281"/>
    <g transform="translate(149)">
      <mask id="group_1-b" fill="#fff">
        <use xlink:href="#group_1-a"/>
      </mask>
      <path fill="#FFF" fill-opacity=".485" d="M25.0055145,162.578666 C24.1381232,163.09643 23.2156594,161.975976 23.927471,161.260968 C30.3489203,154.825892 37.1627609,145.38422 40.2041377,136.90959 C49.9299348,109.805018 6.31805072,103.652111 0.870007246,68.8824303 C-4.98694928,31.4883126 31.0813841,-0.52132605 33.0047899,0.477220168 C34.6996449,1.35659832 9.45855797,28.6323882 13.4898623,62.4761193 C16.846529,90.6545731 44.8825435,94.8213462 53.9529783,115.223741 C61.2266739,131.579901 53.1626884,145.748573 25.0055145,162.578666" mask="url(#group_1-b)"/>
    </g>
    <path fill="#FFF" fill-opacity=".547" d="M230.178204 167.889884C229.440198 168.32096 228.652991 167.387646 229.261163 166.793719 233.190364 162.944139 240.156324 154.74548 243.115183 146.533135 248.769132 130.847433 214.674603 117.107733 209.632926 89.9348759 204.212679 60.727065 235.341516 32.0680209 236.986997 33.0232312 238.464376 33.8799097 214.848171 57.7738505 220.375019 84.6059523 226.19707 112.872238 259.072522 118.730769 256.89677 139.222629 255.269056 154.552522 234.786644 165.198052 230.178204 167.889884M125.809587 167.906192C125.501129 168.273341 125.172728 167.478766 125.425344 166.971882 127.709529 162.411296 130.130659 155.719058 131.212922 149.713168 134.671109 130.502266 119.164443 126.143064 117.228603 101.497545 115.145181 74.9957337 127.970123 52.307882 128.653517 53.0161495 129.255808 53.6394798 120.281274 72.9709378 121.71454 96.9588784 122.908486 116.930106 132.876202 119.882363 136.101716 134.342255 138.687711 145.934828 135.819849 155.97798 125.809587 167.906192"/>
    <path fill="#FFE8EC" d="M75.5499581,254.528117 C73.3151554,254.576596 71.2306264,255.233132 69.4507805,256.337053 C67.0477817,257.827417 64.0712617,257.985318 61.563485,256.683327 C51.5571941,251.490601 44.7162992,240.999881 44.7162992,228.90522 C44.7162992,226.000673 45.154712,223.328822 45.8261179,220.906288 L38.9852229,209 C35.8060404,214.925442 34,221.702719 34,228.90522 C34,246.65246 44.9561854,261.82342 60.4426371,267.977403 C62.2941731,268.714274 63.9099589,270.025961 64.7385316,271.845977 C66.6590005,276.067751 70.8969914,279 75.8187962,279 C82.6624484,279 88.1881048,273.330801 87.9950929,266.412244 C87.8103528,259.794254 82.1385588,254.384067 75.5499581,254.528117"/>
    <path fill="#FFE4E9" d="M73.8602786,198.526757 C75.2343984,198.463115 76.5881508,197.964809 77.5250506,196.960072 C78.4633083,195.953981 79.0159434,194.608013 78.9996495,193.174028 C78.995576,192.773217 78.9466943,192.38053 78.8570778,192.001384 C78.2840752,189.555892 75.9065222,187.906607 73.389113,188.004102 C65.9061348,188.29794 58.9404881,190.587711 53,194.346673 L57.5324227,204 C64.1219516,199.457019 70.9205856,198.662166 73.8602786,198.526757"/>
    <path fill="#FAFAFA" d="M285.791464,160 C285.791464,168.282529 265.61282,175.520035 235.569855,179.420821 C220.56758,181.369171 203.105398,182.486406 184.468826,182.486406 C128.509722,182.486406 83.1475609,172.419025 83.1475609,160 C83.1475609,173.717471 82.8155489,187.440391 83.1475609,201.155137 C84.5359745,258.503374 132.709261,303.149191 186.676294,301.977456 C238.409792,300.853408 283.996953,257.985631 285.791464,203.074874 C286.260671,188.725212 285.791464,174.3592 285.791464,160"/>
    <path stroke="#45413C" stroke-linecap="round" stroke-linejoin="round" stroke-width="4" d="M116 214.403557C116.449543 206.016229 123.295679 199.57964 131.301162 200.02145 139.308037 200.461848 145.426275 207.612673 144.976732 216M176 217.455996C176.419657 209.606961 183.023737 203.595023 190.750125 204.021342 198.480653 204.447661 204.398649 211.150964 203.978992 219"/>
    <path fill="#FF6242" d="M132.99526 229.619748C132.814691 232.915471 127.52126 235.309105 121.172199 234.967551 114.824527 234.625996 109.824172 231.677337 110.00474 228.381613 110.185309 225.08589 115.47874 222.690879 121.826412 223.032433 128.175473 223.373987 133.175828 226.324025 132.99526 229.619748M215.99526 234.61962C215.814691 237.91528 210.522649 240.310245 204.173588 239.96732 197.824527 239.625772 192.824172 236.677169 193.00474 233.38151 193.185309 230.08585 198.47874 227.690885 204.826412 228.032433 211.175473 228.375357 216.175828 231.32396 215.99526 234.61962"/>
    <path fill="#FFE4E9" d="M285.791154,160 C285.791154,166.275594 274.182328,171.950333 255.47273,176.028243 C255.478226,180.912743 255.453494,185.79588 255.306478,190.677654 C253.722269,243.131865 213.467163,284.081273 167.784804,285.15491 C137.840105,285.859313 109.923413,269.273815 93,243.262663 C110.118519,278.853428 146.738052,302.839931 186.528751,301.97748 C238.339097,300.853432 283.993977,257.985648 285.791154,203.074882 C286.261058,188.725217 285.791154,174.359202 285.791154,160"/>
    <path fill="#FFE4E9" d="M332.285497,180.810791 C351.331407,194.279945 356.136747,220.236576 343.017098,238.788167 C341.108051,240.285049 338.389992,240.344924 336.358409,238.941336 C334.286446,237.511292 333.389709,234.880957 334.179227,232.537466 C335.357239,230.87349 341.443631,221.903337 339.160015,209.560674 C338.857854,207.927332 336.465628,196.679133 326.197713,189.418907 C314.675202,181.270299 299.693849,181.778542 289.25327,189.679295 C290.111019,192.97522 289.591635,196.573307 287.502963,199.528083 C283.682084,204.932175 276.08767,206.132466 270.538763,202.208546 C264.991248,198.286019 263.591838,190.725024 267.412716,185.322324 C270.767125,180.578252 277.030358,179.077192 282.263179,181.436 C296.315769,170.5568 316.662226,169.761712 332.285497,180.810791" transform="rotate(76 307.835 206.423)"/>
    <path stroke="#000" d="M217,170.205256 C227.926162,150.079132 246.902011,155.197749 250.674435,170.59868 C256.643742,194.971877 235.83161,226.115254 263,237"/>
    <path fill="#FFF" d="M244.847949,254.718101 C244.140165,255.90023 243.862009,257.28144 244.064429,258.643428 C245.219742,266.429552 248.088057,281.394945 249.076751,286.518876 C249.266779,287.503297 250.212785,288.145848 251.20148,287.97148 C256.821064,286.976076 274.267799,283.889635 284.490732,282.080058 C285.491819,281.901572 286.148654,280.951475 285.971019,279.954698 C284.333753,270.755786 282.696486,261.558247 281.059219,252.360709 C280.789325,250.846321 279.94384,249.495316 278.697645,248.590528 C273.449854,244.775039 268.20344,240.95955 262.95565,237.144061 C260.116252,235.079112 256.110526,235.894657 254.310772,238.904211 L244.847949,254.718101 Z"/>
    <path d="M244.847949,254.718101 C244.140165,255.90023 243.862009,257.28144 244.064429,258.643428 C245.219742,266.429552 248.088057,281.394945 249.076751,286.518876 C249.266779,287.503297 250.212785,288.145848 251.20148,287.97148 C256.821064,286.976076 274.267799,283.889635 284.490732,282.080058 C285.491819,281.901572 286.148654,280.951475 285.971019,279.954698 C284.333753,270.755786 282.696486,261.558247 281.059219,252.360709 C280.789325,250.846321 279.94384,249.495316 278.697645,248.590528 C273.449854,244.775039 268.20344,240.95955 262.95565,237.144061 C260.116252,235.079112 256.110526,235.894657 254.310772,238.904211 L244.847949,254.718101 Z"/>
    <path fill="#EB3A0A" d="M274.906755,276.510887 L267.387377,277.89035 C267.247957,277.915584 267.196173,277.773992 267.196173,277.773992 L262.911335,270.564056 C260.566426,273.052416 262.566105,275.957139 263.191503,276.449203 C263.476982,276.789863 262.453241,279.46047 259.891899,279.931506 C257.468649,280.375906 255.370712,278.610923 255.083905,275.997794 C254.753281,272.938863 257.335868,269.284128 261.092238,267.353721 L255.017515,258.684414 C255.017515,258.684414 254.928552,258.489551 255.151623,258.447494 L262.196974,257.154948 C262.335066,257.129714 262.420046,257.295138 262.420046,257.295138 L266.598659,264.555542 C269.177263,262.266251 266.865548,258.509177 266.184383,258.028328 C265.956,257.858699 266.435338,255.891843 268.959502,255.188092 C271.700098,254.412846 273.788741,256.118949 274.163183,258.746097 C274.615965,261.844281 272.316201,265.475184 268.486802,267.481293 L274.965179,276.348267 C274.965179,276.348267 275.074059,276.480045 274.906755,276.510887"/>
    <path fill="#74302F" d="M257 247.65L264 246M257 247.697096C258.07463 246.810607 259.220239 246.431405 260.382884 246.171863 261.554046 245.96288 262.740823 245.878613 264 246.30669 262.92679 247.198235 261.78118 247.575751 260.617116 247.831923 259.447374 248.035849 258.259177 248.120116 257 247.697096"/>
    <path fill="#44413C" d="M184.418537,244.832852 C187.775403,249.091337 176.219876,269.006869 159.498672,268.999998 C142.767861,268.994502 131.23292,249.048739 134.578808,244.832852 C136.582498,242.308541 143.046456,246.529925 158.701313,246.648102 C175.244107,246.773149 182.314662,242.164256 184.418537,244.832852"/>
    <path fill="#FF6242" d="M157.983325,256 C150.860545,256 144.451565,257.317797 140,259.41783 C144.581598,264.080905 151.127528,267.99736 158.751075,267.999999 C166.093805,268.002637 172.446069,264.375068 177,259.942838 C172.538752,257.539408 165.680188,256 157.983325,256"/>
  </g>
</svg>
