<svg xmlns="http://www.w3.org/2000/svg" xmlns:xlink="http://www.w3.org/1999/xlink" width="349" height="414" viewBox="0 0 349 414">
  <defs>
    <polygon id="group-a" points=".276 .555 68.37 .555 68.37 198.647 .276 198.647"/>
  </defs>
  <g fill="none" fill-rule="evenodd">
    <path fill="#FFE8EC" d="M247.714532 348C243.157525 348 239.429064 351.78236 239.429064 356.405244L239.429064 393.519441 229.125257 397.826288C224.911268 399.588027 222.886299 404.525268 224.621276 408.800175 226.35791 413.073401 231.224794 415.131005 235.438783 413.369266L249.732872 407.393137C250.433823 407.100634 251.046947 406.695502 251.618645 406.244981 254.210339 404.819451 256 402.067574 256 398.881987L256 356.405244C256 351.78236 252.271539 348 247.714532 348M189.714711 347C185.157803 347 181.429423 350.782347 181.429423 355.405216L181.429423 392.519285 171.125838 396.826118C166.91194 398.587851 164.885359 403.525074 166.621955 407.799967 168.358552 412.07486 173.22533 414.130775 177.439228 412.369042L191.733008 406.392934C192.432286 406.100432 193.047054 405.695301 193.617082 405.244782 196.208721 403.820938 198 401.067389 198 397.881813L198 355.405216C198 350.782347 194.27162 347 189.714711 347"/>
    <path fill="#FFE4E9" d="M349,195 C349,206.418328 324.304644,216.395378 287.538314,221.774701 C269.178626,224.461858 247.808742,226 225,226 C156.516756,226 101,212.119976 101,195 C101,177.878354 156.516756,164 225,164 C293.483244,164 349,177.878354 349,195"/>
    <path fill="#FFF" d="M339,194 C339,202.84035 316.494908,210.565236 282.99086,214.728637 C266.258923,216.807837 246.785197,218 225.999163,218 C163.592518,218 113,207.255523 113,194 C113,180.744477 163.592518,170 225.999163,170 C288.407482,170 339,180.744477 339,194"/>
    <path fill="#696055" d="M128,202.5 C146.027083,210.499755 183.349091,216 226.494154,216 C246.72952,216 265.690363,214.790773 281.980218,212.680002 C300.416551,210.292979 315.426871,206.751317 325,202.504963 C306.976258,194.501899 269.647569,189 226.494154,189 C183.349091,189 146.027083,194.498591 128,202.5"/>
    <path fill="#6E6A66" d="M153,203 C166.360354,210.111362 194.019806,215 225.995809,215 C240.992261,215 255.044939,213.924161 267.117871,212.049901 C280.779964,209.926981 291.90577,206.778968 299,203.003383 C285.641323,195.89033 257.976841,191 225.995809,191 C194.019806,191 166.360354,195.886947 153,203"/>
    <path fill="#E9E9E9" d="M103.784969,317.703608 C90.5047116,289.728187 77.2227741,261.752766 63.942517,233.777344 C61.8638535,229.397929 61.7058952,224.38476 63.4047867,219.846488 C67.2898879,209.475683 67.9284426,195.62509 62.9914066,182.560418 C54.1911148,159.275437 33.8598696,145.337891 17.5800859,151.42961 C1.30030212,157.523002 -4.7626066,181.338061 4.03768525,204.623043 C9.76283215,219.77124 20.8400756,230.34605 32.0567928,234.608413 C36.0191927,236.11504 39.3195122,238.956058 41.3645676,242.6549 C56.6008185,270.215623 71.8387498,297.778018 87.0766812,325.338741 C93.5932998,337.125875 98.6916549,349.698928 101.476089,362.863931 C104.184906,375.661056 110.676318,384.655664 118.73555,386.597054 C120.909997,387.122116 124.175028,387.367925 128.535684,385.8312 C132.358611,383.207564 134.062543,380.423399 134.897706,378.376661 C137.989655,370.798382 134.470882,360.39079 125.673951,350.829316 C116.663609,341.032066 109.48491,329.711468 103.784969,317.703608"/>
    <path fill="#B3B3AE" d="M46.0213354,188.271421 C52.5212946,205.26738 47.573937,223.721242 38.9688963,226.429742 C29.2539035,229.488812 14.8794418,220.033504 8.37948264,203.037545 C1.87952346,186.041586 5.03797777,168.957985 15.4319217,164.88091 C25.8258657,160.802149 39.5213762,171.275462 46.0213354,188.271421"/>
    <path stroke="#000" stroke-width="2" d="M169,316 C169.613935,316.969703 179.606323,332.177936 197.516129,331.998423 C210.826452,331.865886 219.339355,323.328137 221,321.591731"/>
    <g transform="translate(182)">
      <mask id="group-b" fill="#fff">
        <use xlink:href="#group-a"/>
      </mask>
      <path fill="#FFF" fill-opacity=".547" d="M30.2698333,198.48561 C29.2198333,199.117728 28.1031667,197.749812 28.9648333,196.876887 C36.7381667,189.020568 44.9865,177.493618 48.6681667,167.147291 C60.4415,134.056434 7.64816667,126.544602 1.05316667,84.0957277 C-6.03683333,38.4427866 37.6248333,-0.636465546 39.9531667,0.582618487 C42.0048333,1.65621513 11.4498333,34.9561059 16.3298333,76.2745261 C20.3931667,110.676442 54.3315,115.763484 65.3115,140.671929 C74.1165,160.640492 64.3548333,177.938442 30.2698333,198.48561" mask="url(#group-b)"/>
    </g>
    <path fill="#FFF" fill-opacity=".547" d="M281.031543 204.865414C280.12441 205.392285 279.156802 204.251567 279.904346 203.525656 284.733989 198.820615 293.296315 188.800031 296.933246 178.762721 303.882892 159.591307 261.975033 142.798341 255.777972 109.587071 249.115585 73.8886349 287.378113 38.8609145 289.400684 40.0283937 291.216629 41.0754452 262.188377 70.2791506 268.981795 103.073942 276.138065 137.621624 316.547475 144.782052 313.873113 169.827658 311.872381 188.564193 286.696084 201.575397 281.031543 204.865414M154.011984 204.885799C153.626411 205.332763 153.21591 204.365454 153.53168 203.748378 156.386912 198.196361 159.413324 190.049288 160.766152 182.73777 165.088886 159.350585 145.705554 154.043731 143.285754 124.040489 140.681477 91.7774149 156.712654 64.1574215 157.566897 65.0196603 158.31976 65.7784971 147.101593 89.312446 148.893176 118.515156 150.385607 142.827955 162.845252 146.422007 166.877145 164.025354 170.109639 178.138051 166.524812 190.364497 154.011984 204.885799"/>
    <path fill="#FFE8EC" d="M92.7832821,310.284143 C90.0518567,310.343009 87.5040989,311.140231 85.3287317,312.480708 C82.3917332,314.290435 78.7537643,314.482172 75.6887039,312.901183 C63.4587928,306.59573 55.097699,293.856999 55.097699,279.170624 C55.097699,275.643674 55.6335369,272.399284 56.4541441,269.457636 L48.0930502,255 C44.2073827,262.19518 42,270.42473 42,279.170624 C42,300.720844 55.3908933,319.142724 74.3187786,326.615418 C76.5817672,327.51019 78.5566164,329.102952 79.5693164,331.312972 C81.9165562,336.439412 87.0963229,340 93.111862,340 C101.476326,340 108.229906,333.115972 107.994002,324.714868 C107.768209,316.678737 100.836016,310.109225 92.7832821,310.284143"/>
    <path fill="#FFB3C1" d="M90.6741891,242.158446 C92.3654134,242.078893 94.0315702,241.456011 95.1846777,240.20009 C96.3394563,238.942476 97.0196226,237.260016 96.9995686,235.467535 C96.9945551,234.966521 96.9343929,234.475662 96.8240957,234.00173 C96.1188618,230.944865 93.1926427,228.883259 90.094293,229.005128 C80.8844735,229.372425 72.31137,232.234639 65,236.933341 L70.5783664,249 C78.6885558,243.321273 87.0561054,242.327708 90.6741891,242.158446"/>
    <path fill="#FAFAFA" d="M348.745236,196 C348.745236,206.149015 324.093495,215.017507 287.390759,219.797344 C269.062856,222.184758 247.729747,223.553765 224.961916,223.553765 C156.598084,223.553765 101.180271,211.217679 101.180271,196 C101.180271,212.808732 100.774661,229.624141 101.180271,246.429534 C102.876461,316.701318 161.728556,371.408163 227.658724,369.972376 C290.860238,368.595021 346.552927,316.0669 348.745236,248.781888 C349.318455,231.198499 348.745236,213.595076 348.745236,196"/>
    <path stroke="#45413C" stroke-linecap="round" stroke-linejoin="round" stroke-width="4" d="M142 261.104223C142.542552 251.144272 150.805129 243.500822 160.466919 244.025471 170.130389 244.548444 177.514469 253.040049 176.971917 263M215 265.147196C215.509584 255.728353 223.528824 248.514028 232.910866 249.02561 242.297936 249.537193 249.484074 257.581157 248.97449 267"/>
    <path fill="#FF6242" d="M161.994229 280.274685C161.774407 284.394338 155.33023 287.386381 147.600938 286.959438 139.873337 286.532496 133.785949 282.846671 134.005771 278.727017 134.225593 274.607363 140.66977 271.613599 148.397371 272.040541 156.126663 272.467484 162.214051 276.155031 161.994229 280.274685M262.994229 286.274525C262.774407 290.394099 256.331921 293.387806 248.602629 292.95915 240.873337 292.532215 234.785949 288.846462 235.005771 284.726887 235.225593 280.607313 241.66977 277.613606 249.397371 278.040541 257.126663 278.469197 263.214051 282.154951 262.994229 286.274525"/>
    <path fill="#FFE4E9" d="M348.745705,196 C348.745705,203.689812 334.610606,210.643366 311.82949,215.640242 C311.836182,221.625473 311.806068,227.609036 311.627058,233.590928 C309.6981,297.865806 260.682815,348.043251 205.059217,349.358833 C168.598055,350.221975 134.606228,329.8989 114,298.02608 C134.843792,341.6373 179.432344,371.029212 227.882157,369.972405 C290.967295,368.59505 346.557433,316.066921 348.745705,248.781897 C349.317868,231.198505 348.745705,213.595079 348.745705,196"/>
    <path stroke="#000" d="M265,208.176438 C278.301414,183.521936 301.402448,189.792242 305.994965,208.658383 C313.261947,238.515549 287.925438,276.666187 321,290"/>
    <path fill="#FFF" d="M299.029652,310.6777 C298.1702,312.109894 297.832439,313.783283 298.078236,315.433384 C299.481115,324.866572 302.964069,342.997722 304.164626,349.205562 C304.395374,350.398225 305.544097,351.1767 306.744654,350.965447 C313.568434,349.759476 334.753756,346.020135 347.167317,343.827763 C348.382924,343.61152 349.180508,342.460441 348.964809,341.252807 C346.9767,330.107972 344.98859,318.9648 343.000481,307.821628 C342.672752,305.986889 341.646092,304.350095 340.132854,303.253909 C333.760537,298.631297 327.389892,294.008686 321.017575,289.386074 C317.569735,286.884308 312.705638,287.872373 310.520223,291.518564 L299.029652,310.6777 Z"/>
    <path d="M299.029652,310.6777 C298.1702,312.109894 297.832439,313.783283 298.078236,315.433384 C299.481115,324.866572 302.964069,342.997722 304.164626,349.205562 C304.395374,350.398225 305.544097,351.1767 306.744654,350.965447 C313.568434,349.759476 334.753756,346.020135 347.167317,343.827763 C348.382924,343.61152 349.180508,342.460441 348.964809,341.252807 C346.9767,330.107972 344.98859,318.9648 343.000481,307.821628 C342.672752,305.986889 341.646092,304.350095 340.132854,303.253909 C333.760537,298.631297 327.389892,294.008686 321.017575,289.386074 C317.569735,286.884308 312.705638,287.872373 310.520223,291.518564 L299.029652,310.6777 Z"/>
    <path fill="#EB3A0A" d="M335.883444,336.813064 L326.484221,338.46842 C326.309946,338.4987 326.245216,338.328791 326.245216,338.328791 L320.889169,329.676867 C317.958032,332.6629 320.457631,336.148567 321.239378,336.739044 C321.596227,337.147836 320.316552,340.352564 317.114874,340.917807 C314.085811,341.451087 311.46339,339.333107 311.104882,336.197353 C310.691601,332.526636 313.919835,328.140953 318.615297,325.824465 L311.021894,315.421297 C311.021894,315.421297 310.91069,315.187461 311.189529,315.136993 L319.996218,313.585938 C320.168833,313.555657 320.275058,313.754165 320.275058,313.754165 L325.498324,322.466651 C328.721578,319.719501 325.831935,315.211013 324.980478,314.633993 C324.695,314.430439 325.294173,312.070211 328.449378,311.225711 C331.875123,310.295415 334.485926,312.342739 334.953979,315.495317 C335.519957,319.213137 332.645252,323.570221 327.858503,325.977552 L335.956474,336.617921 C335.956474,336.617921 336.092574,336.776054 335.883444,336.813064"/>
    <path fill="#74302F" d="M314 301.65L322 300M314 301.697096C315.228148 300.810607 316.537416 300.431405 317.866153 300.171863 319.204624 299.96288 320.560941 299.878613 322 300.30669 320.773474 301.198235 319.464206 301.575751 318.133847 301.831923 316.796999 302.035849 315.439059 302.120116 314 301.697096"/>
    <path fill="#44413C" d="M224.293123,298.999422 C228.37402,304.109605 214.326124,328.008243 193.998386,327.999998 C173.658969,327.993402 159.636099,304.058487 163.703649,298.999422 C166.139507,295.97025 173.997653,301.03591 193.029048,301.177722 C213.139895,301.327779 221.735472,295.797107 224.293123,298.999422"/>
    <path fill="#FF6242" d="M192.871612,313 C184.208771,313 176.414065,314.647246 171,317.272287 C176.572214,323.101131 184.53348,327.9967 193.805361,327.999998 C202.735709,328.003296 210.461435,323.468835 216,317.928547 C210.574158,314.924261 202.232662,313 192.871612,313"/>
  </g>
</svg>
