<svg xmlns="http://www.w3.org/2000/svg" width="65" height="55" viewBox="0 0 65 55">
  <path fill="#FFF" d="M665.903066,77.050149 L619.155574,77.050149 C616.860312,77.050149 615,75.2594824 615,73.050149 C615,70.8408157 616.860312,69.050149 619.155574,69.050149 L665.343146,69.050149 L648.505683,52.2126865 C647.479751,51.1867544 647.914425,49.089043 649.476659,47.5268085 C651.038894,45.9645739 653.136605,45.5299002 654.162537,46.5558323 L679.054237,71.4475321 C679.514453,71.9077479 679.680756,72.5836343 679.583209,73.3301093 C679.680756,74.0765844 679.514453,74.7524708 679.054237,75.2126865 L654.162537,100.104386 C653.136605,101.130318 651.038894,100.695645 649.476659,99.1334102 C647.914425,97.5711756 647.479751,95.4734642 648.505683,94.4475321 L665.903066,77.050149 Z" transform="translate(-615 -46)"/>
</svg>
