<svg xmlns="http://www.w3.org/2000/svg" width="84" height="64" viewBox="0 0 84 64">
  <g fill="#FFF">
    <path d="M79.8458109 62L24.1555743 62C21.8603121 62 20 60.2093333 20 58 20 55.7906667 21.8603121 54 24.1555743 54L79.8444257 54C82.1396879 54 84 55.7906667 84 58 84 60.2093333 82.1410731 62 79.8458109 62zM79.8458102 36L24.1555743 36C21.8603121 36 20 34.2093333 20 32 20 29.7906667 21.8603121 28 24.1555743 28L79.844425 28C82.1396871 28 83.9999992 29.7906667 83.9999992 32 84.0013844 34.2093333 82.1410723 36 79.8458102 36zM79.8458109 10L24.1555743 10C21.8603121 10 20 8.20933333 20 6 20 3.79066667 21.8603121 2 24.1555743 2L79.8444257 2C82.1396879 2 84 3.79066667 84 6 84 8.20933333 82.1410731 10 79.8458109 10z"/>
    <circle cx="6" cy="6" r="6"/>
    <circle cx="6" cy="32" r="6"/>
    <circle cx="6" cy="58" r="6"/>
  </g>
</svg>
