<svg xmlns="http://www.w3.org/2000/svg" width="68" height="77" viewBox="0 0 68 77">
  <g fill="none" fill-rule="evenodd" transform="translate(1 1)">
    <path fill="#151444" d="M53.5652174,73.0010217 C53.5652174,74.4924783 42.6981739,75.6976957 29.2934783,75.6976957 C15.8887826,75.6976957 5.02173913,74.4924783 5.02173913,73.0010217 C5.02173913,71.5112391 15.8887826,70.3043478 29.2934783,70.3043478 C42.6981739,70.3043478 53.5652174,71.5112391 53.5652174,73.0010217" opacity=".3"/>
    <path fill="#FFF" d="M14.7304348,16.9249348 C15.418413,15.7515217 15.8201522,14.3889565 15.8201522,12.9309783 C15.8201522,8.56206522 12.2798261,5.02173913 7.91091304,5.02173913 C3.54032609,5.02173913 0,8.56206522 0,12.9309783 C0,17.3015652 3.54032609,20.8418913 7.91091304,20.8418913 C8.15363043,20.8418913 8.39467391,20.8268261 8.63236957,20.8050652 C8.63236957,20.8184565 8.62902174,20.8301739 8.62902174,20.8418913 C8.62902174,23.2255435 10.5623913,25.1572391 12.9443696,25.1572391 C15.3263478,25.1572391 17.2597174,23.2255435 17.2597174,20.8418913 C17.2597174,19.0993478 16.2202174,17.6045435 14.7304348,16.9249348"/>
    <path stroke="#45413C" stroke-linecap="round" stroke-linejoin="round" d="M14.7304348,16.9249348 C15.418413,15.7515217 15.8201522,14.3889565 15.8201522,12.9309783 C15.8201522,8.56206522 12.2798261,5.02173913 7.91091304,5.02173913 C3.54032609,5.02173913 0,8.56206522 0,12.9309783 C0,17.3015652 3.54032609,20.8418913 7.91091304,20.8418913 C8.15363043,20.8418913 8.39467391,20.8268261 8.63236957,20.8050652 C8.63236957,20.8184565 8.62902174,20.8301739 8.62902174,20.8418913 C8.62902174,23.2255435 10.5623913,25.1572391 12.9443696,25.1572391 C15.3263478,25.1572391 17.2597174,23.2255435 17.2597174,20.8418913 C17.2597174,19.0993478 16.2202174,17.6045435 14.7304348,16.9249348 Z"/>
    <path fill="#FFF" d="M30.3898913,4.31534783 C30.3898913,6.699 28.4598696,8.62902174 26.0762174,8.62902174 C23.6925652,8.62902174 21.7608696,6.699 21.7608696,4.31534783 C21.7608696,1.93169565 23.6925652,0 26.0762174,0 C28.4598696,0 30.3898913,1.93169565 30.3898913,4.31534783"/>
    <path stroke="#45413C" stroke-linecap="round" stroke-linejoin="round" d="M30.3898913,4.31534783 C30.3898913,6.699 28.4598696,8.62902174 26.0762174,8.62902174 C23.6925652,8.62902174 21.7608696,6.699 21.7608696,4.31534783 C21.7608696,1.93169565 23.6925652,0 26.0762174,0 C28.4598696,0 30.3898913,1.93169565 30.3898913,4.31534783 Z"/>
    <path fill="#E6F8FF" d="M56.6887391,57.1992826 C61.8527609,57.1992826 66.0375435,53.0128261 66.0375435,47.8488043 C66.0375435,42.6864565 61.8527609,38.5 56.6887391,38.5 L53.0948478,38.5 L53.0948478,44.254913 L56.6887391,44.254913 C58.6756739,44.254913 60.2843043,45.8635435 60.2843043,47.8488043 C60.2843043,49.8357391 58.6756739,51.4443696 56.6887391,51.4443696 L50.2173913,51.4443696 L50.2173913,57.1992826 L56.6887391,57.1992826 Z"/>
    <path fill="#FFF" d="M55.7228913,41.3774565 C60.8852391,41.3774565 65.0716957,45.563913 65.0716957,50.7262609 C65.0716957,51.6519348 64.9327609,52.5424565 64.6833478,53.3861087 C65.8249565,51.8343913 66.507913,49.9227826 66.507913,47.8488043 C66.507913,42.6864565 62.3231304,38.5 57.1591087,38.5 L53.5652174,38.5 L53.5652174,41.3774565 L55.7228913,41.3774565 Z"/>
    <path stroke="#45413C" stroke-linecap="round" stroke-linejoin="round" d="M56.6887391,57.1992826 C61.8527609,57.1992826 66.0375435,53.0128261 66.0375435,47.8488043 C66.0375435,42.6864565 61.8527609,38.5 56.6887391,38.5 L53.0948478,38.5 L53.0948478,44.254913 L56.6887391,44.254913 C58.6756739,44.254913 60.2843043,45.8635435 60.2843043,47.8488043 C60.2843043,49.8357391 58.6756739,51.4443696 56.6887391,51.4443696 L50.2173913,51.4443696 L50.2173913,57.1992826 L56.6887391,57.1992826 Z"/>
    <path fill="#FFF" d="M3.34782609,31.8043478 L3.34782609,46.8695652 C3.34782609,61.6619348 14.9631087,73.6521739 29.2934783,73.6521739 C43.6238478,73.6521739 55.2391304,61.6619348 55.2391304,46.8695652 L55.2391304,31.8043478 L3.34782609,31.8043478 Z"/>
    <path fill="#E8F4FA" d="M28.6473478,64.1805 C17.8573043,64.1805 8.42982609,59.5136304 3.34782609,52.5652174 C5.97084783,64.4885 16.3022391,73.3870217 28.6473478,73.3870217 C40.9924565,73.3870217 51.3238478,64.4885 53.9468696,52.5652174 C48.8648696,59.5136304 39.4373913,64.1805 28.6473478,64.1805"/>
    <path stroke="#45413C" stroke-linecap="round" stroke-linejoin="round" d="M3.34782609,31.8043478 L3.34782609,46.8695652 C3.34782609,61.6619348 14.9631087,73.6521739 29.2934783,73.6521739 C43.6238478,73.6521739 55.2391304,61.6619348 55.2391304,46.8695652 L55.2391304,31.8043478 L3.34782609,31.8043478 Z"/>
    <path fill="#E8F4FA" d="M55.2391304,31.8043478 C55.2391304,33.6523478 43.6238478,35.1521739 29.2934783,35.1521739 C14.9631087,35.1521739 3.34782609,33.6523478 3.34782609,31.8043478 C3.34782609,29.9563478 14.9631087,28.4565217 29.2934783,28.4565217 C43.6238478,28.4565217 55.2391304,29.9563478 55.2391304,31.8043478"/>
    <path fill="#C25962" d="M48.6521739,33.4378913 C48.6521739,34.2316073 40.0003212,34.8757826 29.326087,34.8757826 C18.6518527,34.8757826 10,34.2316073 10,33.4378913 C10,32.6441753 18.6518527,32 29.326087,32 C40.0003212,32 48.6521739,32.6441753 48.6521739,33.4378913"/>
    <path stroke="#45413C" stroke-linecap="round" stroke-linejoin="round" d="M55.2391304,31.8043478 C55.2391304,33.6523478 43.6238478,35.1521739 29.2934783,35.1521739 C14.9631087,35.1521739 3.34782609,33.6523478 3.34782609,31.8043478 C3.34782609,29.9563478 14.9631087,28.4565217 29.2934783,28.4565217 C43.6238478,28.4565217 55.2391304,29.9563478 55.2391304,31.8043478 Z"/>
    <path fill="#FFB0CA" d="M24.3349468,55.2391304 C24.0721424,55.2391304 23.8227294,55.3529565 23.6536642,55.5521522 C23.4795772,55.7513478 23.4042511,56.0158261 23.446099,56.2752826 C23.9449251,59.5109565 26.7403598,61.9833261 30.1116207,61.9833261 C33.4862294,61.9833261 36.2799903,59.5109565 36.7804903,56.2752826 C36.8189903,56.0158261 36.7436642,55.7513478 36.5712511,55.5521522 C36.400512,55.3529565 36.1527729,55.2391304 35.8882946,55.2391304 L24.3349468,55.2391304 Z"/>
    <path stroke="#45413C" stroke-linecap="round" stroke-linejoin="round" stroke-width=".8" d="M24.3349468,55.2391304 C24.0721424,55.2391304 23.8227294,55.3529565 23.6536642,55.5521522 C23.4795772,55.7513478 23.4042511,56.0158261 23.446099,56.2752826 C23.9449251,59.5109565 26.7403598,61.9833261 30.1116207,61.9833261 C33.4862294,61.9833261 36.2799903,59.5109565 36.7804903,56.2752826 C36.8189903,56.0158261 36.7436642,55.7513478 36.5712511,55.5521522 C36.400512,55.3529565 36.1527729,55.2391304 35.8882946,55.2391304 L24.3349468,55.2391304 Z"/>
    <path fill="#FF87AF" d="M35.7447391,59.8373696 C34.4240217,59.0707174 32.5341739,58.5869565 30.4267174,58.5869565 C28.3192609,58.5869565 26.431087,59.0707174 25.1086957,59.8373696 C26.3457174,61.4192174 28.2640217,62.4403043 30.4267174,62.4403043 C32.589413,62.4403043 34.5110652,61.4192174 35.7447391,59.8373696"/>
    <path stroke="#45413C" stroke-linecap="round" stroke-linejoin="round" stroke-width=".8" d="M35.7447391,59.8373696 C34.4240217,59.0707174 32.5341739,58.5869565 30.4267174,58.5869565 C28.3192609,58.5869565 26.431087,59.0707174 25.1086957,59.8373696 C26.3457174,61.4192174 28.2640217,62.4403043 30.4267174,62.4403043 C32.589413,62.4403043 34.5110652,61.4192174 35.7447391,59.8373696 Z"/>
    <path fill="#FFF" d="M27.4189627,45.0568713 C27.5227453,45.0367843 27.6399192,44.8878061 27.6365714,44.7840234 C27.6399192,44.6785669 27.5227453,44.5312626 27.4189627,44.5128495 C23.1873105,43.3042843 22.8357888,42.9544365 21.6205279,38.7160887 C21.6037888,38.61398 21.4548105,38.4951321 21.349354,38.5001539 C21.2472453,38.4951321 21.098267,38.61398 21.0781801,38.7160887 C19.8679409,42.9527626 19.5113975,43.3042843 15.2814192,44.5128495 C15.1793105,44.5312626 15.0587888,44.6785669 15.0654844,44.7840234 C15.0587888,44.8878061 15.1793105,45.0367843 15.2814192,45.0568713 C19.5180931,46.2671104 19.8696148,46.62198 21.0781801,50.8536321 C21.098267,50.9574147 21.2472453,51.0762626 21.349354,51.0712408 C21.4548105,51.0762626 21.6037888,50.9574147 21.6205279,50.8536321 C22.830767,46.62198 23.1806148,46.2671104 27.4189627,45.0568713"/>
    <path stroke="#45413C" stroke-linecap="round" stroke-linejoin="round" stroke-width=".8" d="M27.4189627,45.0568713 C27.5227453,45.0367843 27.6399192,44.8878061 27.6365714,44.7840234 C27.6399192,44.6785669 27.5227453,44.5312626 27.4189627,44.5128495 C23.1873105,43.3042843 22.8357888,42.9544365 21.6205279,38.7160887 C21.6037888,38.61398 21.4548105,38.4951321 21.349354,38.5001539 C21.2472453,38.4951321 21.098267,38.61398 21.0781801,38.7160887 C19.8679409,42.9527626 19.5113975,43.3042843 15.2814192,44.5128495 C15.1793105,44.5312626 15.0587888,44.6785669 15.0654844,44.7840234 C15.0587888,44.8878061 15.1793105,45.0367843 15.2814192,45.0568713 C19.5180931,46.2671104 19.8696148,46.62198 21.0781801,50.8536321 C21.098267,50.9574147 21.2472453,51.0762626 21.349354,51.0712408 C21.4548105,51.0762626 21.6037888,50.9574147 21.6205279,50.8536321 C22.830767,46.62198 23.1806148,46.2671104 27.4189627,45.0568713 Z"/>
    <path fill="#FFF" d="M32.0204365,45.0568713 C31.9183278,45.0367843 31.79948,44.8878061 31.8045017,44.7840234 C31.79948,44.6785669 31.9183278,44.5312626 32.0204365,44.5128495 C36.2554365,43.3042843 36.6069582,42.9544365 37.8188713,38.7160887 C37.8372843,38.61398 37.9862626,38.4951321 38.0917191,38.5001539 C38.1955017,38.4951321 38.3428061,38.61398 38.362893,38.7160887 C39.5731321,42.9527626 39.9296756,43.3042843 44.1596539,44.5128495 C44.2600887,44.5312626 44.3806104,44.6785669 44.3755887,44.7840234 C44.3822843,44.8878061 44.2600887,45.0367843 44.1596539,45.0568713 C39.92298,46.2671104 39.5697843,46.62198 38.362893,50.8536321 C38.3428061,50.9574147 38.1955017,51.0762626 38.0917191,51.0712408 C37.9862626,51.0762626 37.8372843,50.9574147 37.8188713,50.8536321 C36.6103061,46.62198 36.2604582,46.2671104 32.0204365,45.0568713"/>
    <path stroke="#45413C" stroke-linecap="round" stroke-linejoin="round" stroke-width=".8" d="M32.0204365,45.0568713 C31.9183278,45.0367843 31.79948,44.8878061 31.8045017,44.7840234 C31.79948,44.6785669 31.9183278,44.5312626 32.0204365,44.5128495 C36.2554365,43.3042843 36.6069582,42.9544365 37.8188713,38.7160887 C37.8372843,38.61398 37.9862626,38.4951321 38.0917191,38.5001539 C38.1955017,38.4951321 38.3428061,38.61398 38.362893,38.7160887 C39.5731321,42.9527626 39.9296756,43.3042843 44.1596539,44.5128495 C44.2600887,44.5312626 44.3806104,44.6785669 44.3755887,44.7840234 C44.3822843,44.8878061 44.2600887,45.0367843 44.1596539,45.0568713 C39.92298,46.2671104 39.5697843,46.62198 38.362893,50.8536321 C38.3428061,50.9574147 38.1955017,51.0762626 38.0917191,51.0712408 C37.9862626,51.0762626 37.8372843,50.9574147 37.8188713,50.8536321 C36.6103061,46.62198 36.2604582,46.2671104 32.0204365,45.0568713 Z"/>
  </g>
</svg>
