<svg xmlns="http://www.w3.org/2000/svg" width="68" height="77" viewBox="0 0 68 77">
  <g fill="none" fill-rule="evenodd" transform="translate(1 1)">
    <path fill="#151444" d="M53.5652174,73.0010217 C53.5652174,74.4924783 42.6981739,75.6976957 29.2934783,75.6976957 C15.8887826,75.6976957 5.02173913,74.4924783 5.02173913,73.0010217 C5.02173913,71.5112391 15.8887826,70.3043478 29.2934783,70.3043478 C42.6981739,70.3043478 53.5652174,71.5112391 53.5652174,73.0010217" opacity=".3"/>
    <path fill="#FFF" d="M14.7304348,16.9249348 C15.418413,15.7515217 15.8201522,14.3889565 15.8201522,12.9309783 C15.8201522,8.56206522 12.2798261,5.02173913 7.91091304,5.02173913 C3.54032609,5.02173913 0,8.56206522 0,12.9309783 C0,17.3015652 3.54032609,20.8418913 7.91091304,20.8418913 C8.15363043,20.8418913 8.39467391,20.8268261 8.63236957,20.8050652 C8.63236957,20.8184565 8.62902174,20.8301739 8.62902174,20.8418913 C8.62902174,23.2255435 10.5623913,25.1572391 12.9443696,25.1572391 C15.3263478,25.1572391 17.2597174,23.2255435 17.2597174,20.8418913 C17.2597174,19.0993478 16.2202174,17.6045435 14.7304348,16.9249348"/>
    <path stroke="#45413C" stroke-linecap="round" stroke-linejoin="round" d="M14.7304348,16.9249348 C15.418413,15.7515217 15.8201522,14.3889565 15.8201522,12.9309783 C15.8201522,8.56206522 12.2798261,5.02173913 7.91091304,5.02173913 C3.54032609,5.02173913 0,8.56206522 0,12.9309783 C0,17.3015652 3.54032609,20.8418913 7.91091304,20.8418913 C8.15363043,20.8418913 8.39467391,20.8268261 8.63236957,20.8050652 C8.63236957,20.8184565 8.62902174,20.8301739 8.62902174,20.8418913 C8.62902174,23.2255435 10.5623913,25.1572391 12.9443696,25.1572391 C15.3263478,25.1572391 17.2597174,23.2255435 17.2597174,20.8418913 C17.2597174,19.0993478 16.2202174,17.6045435 14.7304348,16.9249348 Z"/>
    <path fill="#FFF" d="M30.3898913,4.31534783 C30.3898913,6.699 28.4598696,8.62902174 26.0762174,8.62902174 C23.6925652,8.62902174 21.7608696,6.699 21.7608696,4.31534783 C21.7608696,1.93169565 23.6925652,0 26.0762174,0 C28.4598696,0 30.3898913,1.93169565 30.3898913,4.31534783"/>
    <path stroke="#45413C" stroke-linecap="round" stroke-linejoin="round" d="M30.3898913,4.31534783 C30.3898913,6.699 28.4598696,8.62902174 26.0762174,8.62902174 C23.6925652,8.62902174 21.7608696,6.699 21.7608696,4.31534783 C21.7608696,1.93169565 23.6925652,0 26.0762174,0 C28.4598696,0 30.3898913,1.93169565 30.3898913,4.31534783 Z"/>
    <path fill="#E6F8FF" d="M56.6887391,57.1992826 C61.8527609,57.1992826 66.0375435,53.0128261 66.0375435,47.8488043 C66.0375435,42.6864565 61.8527609,38.5 56.6887391,38.5 L53.0948478,38.5 L53.0948478,44.254913 L56.6887391,44.254913 C58.6756739,44.254913 60.2843043,45.8635435 60.2843043,47.8488043 C60.2843043,49.8357391 58.6756739,51.4443696 56.6887391,51.4443696 L50.2173913,51.4443696 L50.2173913,57.1992826 L56.6887391,57.1992826 Z"/>
    <path fill="#FFF" d="M55.7228913,41.3774565 C60.8852391,41.3774565 65.0716957,45.563913 65.0716957,50.7262609 C65.0716957,51.6519348 64.9327609,52.5424565 64.6833478,53.3861087 C65.8249565,51.8343913 66.507913,49.9227826 66.507913,47.8488043 C66.507913,42.6864565 62.3231304,38.5 57.1591087,38.5 L53.5652174,38.5 L53.5652174,41.3774565 L55.7228913,41.3774565 Z"/>
    <path stroke="#45413C" stroke-linecap="round" stroke-linejoin="round" d="M56.6887391,57.1992826 C61.8527609,57.1992826 66.0375435,53.0128261 66.0375435,47.8488043 C66.0375435,42.6864565 61.8527609,38.5 56.6887391,38.5 L53.0948478,38.5 L53.0948478,44.254913 L56.6887391,44.254913 C58.6756739,44.254913 60.2843043,45.8635435 60.2843043,47.8488043 C60.2843043,49.8357391 58.6756739,51.4443696 56.6887391,51.4443696 L50.2173913,51.4443696 L50.2173913,57.1992826 L56.6887391,57.1992826 Z"/>
    <path fill="#FFF" d="M3.34782609,31.8043478 L3.34782609,46.8695652 C3.34782609,61.6619348 14.9631087,73.6521739 29.2934783,73.6521739 C43.6238478,73.6521739 55.2391304,61.6619348 55.2391304,46.8695652 L55.2391304,31.8043478 L3.34782609,31.8043478 Z"/>
    <path fill="#E8F4FA" d="M28.6473478,64.1805 C17.8573043,64.1805 8.42982609,59.5136304 3.34782609,52.5652174 C5.97084783,64.4885 16.3022391,73.3870217 28.6473478,73.3870217 C40.9924565,73.3870217 51.3238478,64.4885 53.9468696,52.5652174 C48.8648696,59.5136304 39.4373913,64.1805 28.6473478,64.1805"/>
    <path stroke="#45413C" stroke-linecap="round" stroke-linejoin="round" d="M3.34782609,31.8043478 L3.34782609,46.8695652 C3.34782609,61.6619348 14.9631087,73.6521739 29.2934783,73.6521739 C43.6238478,73.6521739 55.2391304,61.6619348 55.2391304,46.8695652 L55.2391304,31.8043478 L3.34782609,31.8043478 Z"/>
    <path fill="#E8F4FA" d="M55.2391304,31.8043478 C55.2391304,33.6523478 43.6238478,35.1521739 29.2934783,35.1521739 C14.9631087,35.1521739 3.34782609,33.6523478 3.34782609,31.8043478 C3.34782609,29.9563478 14.9631087,28.4565217 29.2934783,28.4565217 C43.6238478,28.4565217 55.2391304,29.9563478 55.2391304,31.8043478"/>
    <path fill="#C25962" d="M48.6195652,33.7142826 C48.6195652,34.5079986 39.9677125,35.1521739 29.2934783,35.1521739 C18.619244,35.1521739 9.9673913,34.5079986 9.9673913,33.7142826 C9.9673913,32.9205666 18.619244,32.2763913 29.2934783,32.2763913 C39.9677125,32.2763913 48.6195652,32.9205666 48.6195652,33.7142826"/>
    <path stroke="#45413C" stroke-linecap="round" stroke-linejoin="round" d="M55.2391304,31.8043478 C55.2391304,33.6523478 43.6238478,35.1521739 29.2934783,35.1521739 C14.9631087,35.1521739 3.34782609,33.6523478 3.34782609,31.8043478 C3.34782609,29.9563478 14.9631087,28.4565217 29.2934783,28.4565217 C43.6238478,28.4565217 55.2391304,29.9563478 55.2391304,31.8043478 Z"/>
    <path fill="#FFB0CA" d="M34.3330741,55.2391304 C35.2738132,55.2391304 35.970161,56.1279783 35.7341393,57.038587 C34.9356828,60.1403478 32.1218349,62.4302609 28.770661,62.4302609 C25.4194871,62.4302609 22.6039654,60.1403478 21.8071828,57.038587 C21.571161,56.1279783 22.2675089,55.2391304 23.208248,55.2391304 L34.3330741,55.2391304 Z"/>
    <path stroke="#45413C" stroke-linecap="round" stroke-linejoin="round" stroke-width=".8" d="M34.3330741,55.2391304 C35.2738132,55.2391304 35.970161,56.1279783 35.7341393,57.038587 C34.9356828,60.1403478 32.1218349,62.4302609 28.770661,62.4302609 C25.4194871,62.4302609 22.6039654,60.1403478 21.8071828,57.038587 C21.571161,56.1279783 22.2675089,55.2391304 23.208248,55.2391304 L34.3330741,55.2391304 Z"/>
    <path fill="#FF87AF" d="M29.0959565,61.2283913 C31.4042826,61.2283913 33.4414348,60.1252826 34.7571304,58.4346304 C33.3192391,57.4972391 31.3155652,56.9130435 29.0959565,56.9130435 C26.8763478,56.9130435 24.8726739,57.4972391 23.4347826,58.4346304 C24.7504783,60.1252826 26.7876304,61.2283913 29.0959565,61.2283913"/>
    <path stroke="#45413C" stroke-linecap="round" stroke-linejoin="round" stroke-width=".8" d="M29.0959565,61.2283913 C31.4042826,61.2283913 33.4414348,60.1252826 34.7571304,58.4346304 C33.3192391,57.4972391 31.3155652,56.9130435 29.0959565,56.9130435 C26.8763478,56.9130435 24.8726739,57.4972391 23.4347826,58.4346304 C24.7504783,60.1252826 26.7876304,61.2283913 29.0959565,61.2283913 Z"/>
    <path fill="#FFBDD5" d="M15.0652174,51.6552826 C15.0652174,52.4503913 16.0310652,53.0931739 17.2228913,53.0931739 C18.4147174,53.0931739 19.3805652,52.4503913 19.3805652,51.6552826 C19.3805652,50.8601739 18.4147174,50.2173913 17.2228913,50.2173913 C16.0310652,50.2173913 15.0652174,50.8601739 15.0652174,51.6552826"/>
    <path stroke="#45413C" stroke-linecap="round" stroke-linejoin="round" stroke-width="2" d="M15.0652174,47.3533261 C15.0652174,46.1615 16.0310652,45.1956522 17.2228913,45.1956522 C18.4147174,45.1956522 19.3805652,46.1615 19.3805652,47.3533261"/>
    <path fill="#FFBDD5" d="M42.8153478,51.6552826 C42.8153478,52.4503913 41.8495,53.0931739 40.6576739,53.0931739 C39.4658478,53.0931739 38.5,52.4503913 38.5,51.6552826 C38.5,50.8601739 39.4658478,50.2173913 40.6576739,50.2173913 C41.8495,50.2173913 42.8153478,50.8601739 42.8153478,51.6552826"/>
    <path stroke="#45413C" stroke-linecap="round" stroke-linejoin="round" stroke-width="2" d="M41.1414348,47.3533261 C41.1414348,46.1615 40.175587,45.1956522 38.9837609,45.1956522 C37.7919348,45.1956522 36.826087,46.1615 36.826087,47.3533261"/>
  </g>
</svg>
