<svg xmlns="http://www.w3.org/2000/svg" width="68" height="77" viewBox="0 0 68 77">
  <g fill="none" fill-rule="evenodd" transform="translate(1 1)">
    <path fill="#151444" d="M53.5652174,73.0010217 C53.5652174,74.4924783 42.6981739,75.6976957 29.2934783,75.6976957 C15.8887826,75.6976957 5.02173913,74.4924783 5.02173913,73.0010217 C5.02173913,71.5112391 15.8887826,70.3043478 29.2934783,70.3043478 C42.6981739,70.3043478 53.5652174,71.5112391 53.5652174,73.0010217" opacity=".3"/>
    <path fill="#FFF" d="M14.7304348,16.9249348 C15.418413,15.7515217 15.8201522,14.3889565 15.8201522,12.9309783 C15.8201522,8.56206522 12.2798261,5.02173913 7.91091304,5.02173913 C3.54032609,5.02173913 0,8.56206522 0,12.9309783 C0,17.3015652 3.54032609,20.8418913 7.91091304,20.8418913 C8.15363043,20.8418913 8.39467391,20.8268261 8.63236957,20.8050652 C8.63236957,20.8184565 8.62902174,20.8301739 8.62902174,20.8418913 C8.62902174,23.2255435 10.5623913,25.1572391 12.9443696,25.1572391 C15.3263478,25.1572391 17.2597174,23.2255435 17.2597174,20.8418913 C17.2597174,19.0993478 16.2202174,17.6045435 14.7304348,16.9249348"/>
    <path stroke="#45413C" stroke-linecap="round" stroke-linejoin="round" d="M14.7304348,16.9249348 C15.418413,15.7515217 15.8201522,14.3889565 15.8201522,12.9309783 C15.8201522,8.56206522 12.2798261,5.02173913 7.91091304,5.02173913 C3.54032609,5.02173913 0,8.56206522 0,12.9309783 C0,17.3015652 3.54032609,20.8418913 7.91091304,20.8418913 C8.15363043,20.8418913 8.39467391,20.8268261 8.63236957,20.8050652 C8.63236957,20.8184565 8.62902174,20.8301739 8.62902174,20.8418913 C8.62902174,23.2255435 10.5623913,25.1572391 12.9443696,25.1572391 C15.3263478,25.1572391 17.2597174,23.2255435 17.2597174,20.8418913 C17.2597174,19.0993478 16.2202174,17.6045435 14.7304348,16.9249348 Z"/>
    <path fill="#FFF" d="M30.3898913,4.31534783 C30.3898913,6.699 28.4598696,8.62902174 26.0762174,8.62902174 C23.6925652,8.62902174 21.7608696,6.699 21.7608696,4.31534783 C21.7608696,1.93169565 23.6925652,0 26.0762174,0 C28.4598696,0 30.3898913,1.93169565 30.3898913,4.31534783"/>
    <path stroke="#45413C" stroke-linecap="round" stroke-linejoin="round" d="M30.3898913,4.31534783 C30.3898913,6.699 28.4598696,8.62902174 26.0762174,8.62902174 C23.6925652,8.62902174 21.7608696,6.699 21.7608696,4.31534783 C21.7608696,1.93169565 23.6925652,0 26.0762174,0 C28.4598696,0 30.3898913,1.93169565 30.3898913,4.31534783 Z"/>
    <path fill="#E6F8FF" d="M56.6887391,57.1992826 C61.8527609,57.1992826 66.0375435,53.0128261 66.0375435,47.8488043 C66.0375435,42.6864565 61.8527609,38.5 56.6887391,38.5 L53.0948478,38.5 L53.0948478,44.254913 L56.6887391,44.254913 C58.6756739,44.254913 60.2843043,45.8635435 60.2843043,47.8488043 C60.2843043,49.8357391 58.6756739,51.4443696 56.6887391,51.4443696 L50.2173913,51.4443696 L50.2173913,57.1992826 L56.6887391,57.1992826 Z"/>
    <path fill="#FFF" d="M55.7228913,41.3774565 C60.8852391,41.3774565 65.0716957,45.563913 65.0716957,50.7262609 C65.0716957,51.6519348 64.9327609,52.5424565 64.6833478,53.3861087 C65.8249565,51.8343913 66.507913,49.9227826 66.507913,47.8488043 C66.507913,42.6864565 62.3231304,38.5 57.1591087,38.5 L53.5652174,38.5 L53.5652174,41.3774565 L55.7228913,41.3774565 Z"/>
    <path stroke="#45413C" stroke-linecap="round" stroke-linejoin="round" d="M56.6887391,57.1992826 C61.8527609,57.1992826 66.0375435,53.0128261 66.0375435,47.8488043 C66.0375435,42.6864565 61.8527609,38.5 56.6887391,38.5 L53.0948478,38.5 L53.0948478,44.254913 L56.6887391,44.254913 C58.6756739,44.254913 60.2843043,45.8635435 60.2843043,47.8488043 C60.2843043,49.8357391 58.6756739,51.4443696 56.6887391,51.4443696 L50.2173913,51.4443696 L50.2173913,57.1992826 L56.6887391,57.1992826 Z"/>
    <path fill="#FFF" d="M3.34782609,31.8043478 L3.34782609,46.8695652 C3.34782609,61.6619348 14.9631087,73.6521739 29.2934783,73.6521739 C43.6238478,73.6521739 55.2391304,61.6619348 55.2391304,46.8695652 L55.2391304,31.8043478 L3.34782609,31.8043478 Z"/>
    <path fill="#E8F4FA" d="M28.6473478,64.1805 C17.8573043,64.1805 8.42982609,59.5136304 3.34782609,52.5652174 C5.97084783,64.4885 16.3022391,73.3870217 28.6473478,73.3870217 C40.9924565,73.3870217 51.3238478,64.4885 53.9468696,52.5652174 C48.8648696,59.5136304 39.4373913,64.1805 28.6473478,64.1805"/>
    <path stroke="#45413C" stroke-linecap="round" stroke-linejoin="round" d="M3.34782609,31.8043478 L3.34782609,46.8695652 C3.34782609,61.6619348 14.9631087,73.6521739 29.2934783,73.6521739 C43.6238478,73.6521739 55.2391304,61.6619348 55.2391304,46.8695652 L55.2391304,31.8043478 L3.34782609,31.8043478 Z"/>
    <path fill="#E8F4FA" d="M55.2391304,31.8043478 C55.2391304,33.6523478 43.6238478,35.1521739 29.2934783,35.1521739 C14.9631087,35.1521739 3.34782609,33.6523478 3.34782609,31.8043478 C3.34782609,29.9563478 14.9631087,28.4565217 29.2934783,28.4565217 C43.6238478,28.4565217 55.2391304,29.9563478 55.2391304,31.8043478"/>
    <path fill="#C25962" d="M47.6521739,33.4378913 C47.6521739,34.2316073 39.0003212,34.8757826 28.326087,34.8757826 C17.6518527,34.8757826 9,34.2316073 9,33.4378913 C9,32.6441753 17.6518527,32 28.326087,32 C39.0003212,32 47.6521739,32.6441753 47.6521739,33.4378913"/>
    <path stroke="#45413C" stroke-linecap="round" stroke-linejoin="round" d="M55.2391304,31.8043478 C55.2391304,33.6523478 43.6238478,35.1521739 29.2934783,35.1521739 C14.9631087,35.1521739 3.34782609,33.6523478 3.34782609,31.8043478 C3.34782609,29.9563478 14.9631087,28.4565217 29.2934783,28.4565217 C43.6238478,28.4565217 55.2391304,29.9563478 55.2391304,31.8043478 Z"/>
    <path fill="#FFBDD5" d="M42.9643261 51.5565217C42.9643261 52.2963913 41.965 52.8956522 40.733 52.8956522 39.501 52.8956522 38.5 52.2963913 38.5 51.5565217 38.5 50.8183261 39.501 50.2173913 40.733 50.2173913 41.965 50.2173913 42.9643261 50.8183261 42.9643261 51.5565217M16.7391304 51.5565217C16.7391304 52.2963913 17.7384565 52.8956522 18.9704565 52.8956522 20.2024565 52.8956522 21.2017826 52.2963913 21.2017826 51.5565217 21.2017826 50.8183261 20.2024565 50.2173913 18.9704565 50.2173913 17.7384565 50.2173913 16.7391304 50.8183261 16.7391304 51.5565217"/>
    <path fill="#45413C" d="M20.1974348,46.0895217 C20.1974348,46.5816522 19.7990435,46.9817174 19.3052391,46.9817174 C18.8114348,46.9817174 18.4130435,46.5816522 18.4130435,46.0895217 C18.4130435,45.5973913 18.8114348,45.1956522 19.3052391,45.1956522 C19.7990435,45.1956522 20.1974348,45.5973913 20.1974348,46.0895217"/>
    <path stroke="#45413C" stroke-linecap="round" stroke-linejoin="round" d="M20.1974348,46.0895217 C20.1974348,46.5816522 19.7990435,46.9817174 19.3052391,46.9817174 C18.8114348,46.9817174 18.4130435,46.5816522 18.4130435,46.0895217 C18.4130435,45.5973913 18.8114348,45.1956522 19.3052391,45.1956522 C19.7990435,45.1956522 20.1974348,45.5973913 20.1974348,46.0895217 Z"/>
    <path fill="#45413C" d="M38.5,46.0895217 C38.5,46.5816522 38.9017391,46.9817174 39.3938696,46.9817174 C39.886,46.9817174 40.2843913,46.5816522 40.2843913,46.0895217 C40.2843913,45.5973913 39.886,45.1956522 39.3938696,45.1956522 C38.9017391,45.1956522 38.5,45.5973913 38.5,46.0895217"/>
    <path stroke="#45413C" stroke-linecap="round" stroke-linejoin="round" d="M38.5,46.0895217 C38.5,46.5816522 38.9017391,46.9817174 39.3938696,46.9817174 C39.886,46.9817174 40.2843913,46.5816522 40.2843913,46.0895217 C40.2843913,45.5973913 39.886,45.1956522 39.3938696,45.1956522 C38.9017391,45.1956522 38.5,45.5973913 38.5,46.0895217 Z"/>
    <path fill="#FFB0CA" d="M29.1470748,63.7156981 C33.7921834,63.7156981 37.6304661,60.424785 38.2012704,56.1663502 C38.2364226,55.9068937 38.1376617,55.6491111 37.94014,55.4700024 C37.7426182,55.2875459 37.4647487,55.2071981 37.1935748,55.2507198 C31.8303574,56.1060894 26.4621182,56.1060894 21.0989008,55.2507198 C20.8277269,55.2071981 20.5515313,55.2875459 20.3540095,55.4700024 C20.1564878,55.6491111 20.0577269,55.9068937 20.094553,56.1663502 C20.6636834,60.424785 24.5002921,63.7156981 29.1470748,63.7156981"/>
    <path stroke="#45413C" stroke-linecap="round" stroke-linejoin="round" stroke-width=".8" d="M29.1470748,63.7156981 C33.7921834,63.7156981 37.6304661,60.424785 38.2012704,56.1663502 C38.2364226,55.9068937 38.1376617,55.6491111 37.94014,55.4700024 C37.7426182,55.2875459 37.4647487,55.2071981 37.1935748,55.2507198 C31.8303574,56.1060894 26.4621182,56.1060894 21.0989008,55.2507198 C20.8277269,55.2071981 20.5515313,55.2875459 20.3540095,55.4700024 C20.1564878,55.6491111 20.0577269,55.9068937 20.094553,56.1663502 C20.6636834,60.424785 24.5002921,63.7156981 29.1470748,63.7156981 Z"/>
    <path fill="#FF87AF" d="M28.4113261,58.5869565 C25.7431087,58.5869565 23.3561087,59.1293043 21.7608696,59.9813261 C23.428087,61.656913 25.7899783,62.7047826 28.4113261,62.7047826 C31.031,62.7047826 33.3945652,61.656913 35.0584348,59.9813261 C33.4648696,59.1293043 31.0795435,58.5869565 28.4113261,58.5869565"/>
    <path stroke="#45413C" stroke-linecap="round" stroke-linejoin="round" stroke-width=".8" d="M28.4113261,58.5869565 C25.7431087,58.5869565 23.3561087,59.1293043 21.7608696,59.9813261 C23.428087,61.656913 25.7899783,62.7047826 28.4113261,62.7047826 C31.031,62.7047826 33.3945652,61.656913 35.0584348,59.9813261 C33.4648696,59.1293043 31.0795435,58.5869565 28.4113261,58.5869565 Z"/>
  </g>
</svg>
