<svg xmlns="http://www.w3.org/2000/svg" width="59" height="78" viewBox="0 0 59 78">
  <g fill="none" fill-rule="evenodd" transform="translate(1 1)">
    <path fill="#151444" d="M51.8913043,74.4891304 C51.8913043,75.8751304 41.0242609,77 27.6195652,77 C14.2148696,77 3.34782609,75.8751304 3.34782609,74.4891304 C3.34782609,73.1031304 14.2148696,71.9782609 27.6195652,71.9782609 C41.0242609,71.9782609 51.8913043,73.1031304 51.8913043,74.4891304" opacity=".3"/>
    <path fill="#FFFEF2" d="M48.5074559,29.4503373 C49.2690863,28.2183373 49.6691515,26.7369242 49.5268689,25.1500547 C49.2021298,21.4959025 45.944695,18.790859 42.2754776,18.790859 L40.6266733,18.790859 C42.1817385,17.6325112 43.2028254,15.7962286 43.2028254,13.708859 C43.2028254,10.2003373 40.3588472,7.35635901 36.8486515,7.35635901 C33.4941298,7.35635901 23.2598254,8.5866851 25.2651733,1.6700764 C25.5380211,0.725989447 24.7244993,-0.209727944 23.7737167,0.0413590126 C19.1085211,1.26666336 13.9779776,6.08920684 13.9779776,13.708859 C13.9779776,15.7962286 14.9990646,17.6325112 16.5541298,18.790859 L14.9053254,18.790859 C11.236108,18.790859 7.97867326,21.4959025 7.65393413,25.1500547 C7.51165152,26.7369242 7.91171674,28.2183373 8.67334717,29.4503373 C3.47417326,30.9735981 -0.275391959,35.8965764 0.0158689106,41.6531634 C0.34562978,48.1462721 6.00512978,53.0993808 12.5049341,53.0993808 L44.6758689,53.0993808 C51.1756733,53.0993808 56.8368472,48.1462721 57.1649341,41.6531634 C57.456195,35.8965764 53.7066298,30.9735981 48.5074559,29.4503373"/>
    <path fill="#FFF" d="M7.00612978,45.1980106 C6.71486891,39.4414236 10.4610863,34.5184454 15.663608,32.9935106 C14.9003037,31.7631845 14.5002385,30.2817715 14.6425211,28.6949019 C14.9672602,25.0390758 18.224695,22.3357062 21.8955863,22.3357062 L23.5427167,22.3357062 C21.9876515,21.1773584 20.9665646,19.3410758 20.9665646,17.2537062 C20.9665646,12.1231628 23.2933037,8.26814102 26.2377167,5.91796711 C25.1714341,5.05590189 24.6675863,3.73016276 25.2651733,1.67124972 C25.5380211,0.72716276 24.7244993,-0.208554631 23.7737167,0.040858412 C19.1068472,1.26783667 13.9779776,6.09038015 13.9779776,13.7083584 C13.9779776,15.7974019 14.9990646,17.6336845 16.5541298,18.7920323 L14.9053254,18.7920323 C11.236108,18.7920323 7.97867326,21.4954019 7.65393413,25.1495541 C7.51165152,26.7380975 7.91171674,28.2178367 8.67334717,29.4515106 C3.47417326,30.9747715 -0.275391959,35.8960758 0.0158689106,41.6543367 C0.310477606,47.4678367 4.88360804,52.0376193 10.504608,52.9298149 C8.484195,50.9160975 7.15845587,48.231141 7.00612978,45.1980106"/>
    <path stroke="#45413C" stroke-linecap="round" stroke-linejoin="round" d="M48.5074559,29.4503373 C49.2690863,28.2183373 49.6691515,26.7369242 49.5268689,25.1500547 C49.2021298,21.4959025 45.944695,18.790859 42.2754776,18.790859 L40.6266733,18.790859 C42.1817385,17.6325112 43.2028254,15.7962286 43.2028254,13.708859 C43.2028254,10.2003373 40.3588472,7.35635901 36.8486515,7.35635901 C33.4941298,7.35635901 23.2598254,8.5866851 25.2651733,1.6700764 C25.5380211,0.725989447 24.7244993,-0.209727944 23.7737167,0.0413590126 C19.1085211,1.26666336 13.9779776,6.08920684 13.9779776,13.708859 C13.9779776,15.7962286 14.9990646,17.6325112 16.5541298,18.790859 L14.9053254,18.790859 C11.236108,18.790859 7.97867326,21.4959025 7.65393413,25.1500547 C7.51165152,26.7369242 7.91171674,28.2183373 8.67334717,29.4503373 C3.47417326,30.9735981 -0.275391959,35.8965764 0.0158689106,41.6531634 C0.34562978,48.1462721 6.00512978,53.0993808 12.5049341,53.0993808 L44.6758689,53.0993808 C51.1756733,53.0993808 56.8368472,48.1462721 57.1649341,41.6531634 C57.456195,35.8965764 53.7066298,30.9735981 48.5074559,29.4503373 Z"/>
    <path fill="#FFF48C" d="M15.0652174,33.0765217 C15.0652174,33.7778913 15.918913,34.3470217 16.9718043,34.3470217 C18.0246957,34.3470217 18.8767174,33.7778913 18.8767174,33.0765217 C18.8767174,32.3734783 18.0246957,31.8043478 16.9718043,31.8043478 C15.918913,31.8043478 15.0652174,32.3734783 15.0652174,33.0765217"/>
    <path fill="#FFB0CA" d="M32.8671571,35.1521739 C33.697418,35.1521739 34.311744,35.938913 34.1058527,36.7423913 C33.3994614,39.480913 30.9120267,41.5046739 27.9525484,41.5046739 C24.994744,41.5046739 22.5073093,39.480913 21.800918,36.7423913 C21.5950267,35.938913 22.2093527,35.1521739 23.0396136,35.1521739 L32.8671571,35.1521739 Z"/>
    <path stroke="#45413C" stroke-linecap="round" stroke-linejoin="round" stroke-width=".8" d="M32.8671571,35.1521739 C33.697418,35.1521739 34.311744,35.938913 34.1058527,36.7423913 C33.3994614,39.480913 30.9120267,41.5046739 27.9525484,41.5046739 C24.994744,41.5046739 22.5073093,39.480913 21.800918,36.7423913 C21.5950267,35.938913 22.2093527,35.1521739 23.0396136,35.1521739 L32.8671571,35.1521739 Z"/>
    <path fill="#FF87AF" d="M28.4347609,42.3098261 C30.4752609,42.3098261 32.2730435,41.3372826 33.4347391,39.8424783 C32.165913,39.0138913 30.396587,38.5 28.4347609,38.5 C26.4729348,38.5 24.7036087,39.0138913 23.4347826,39.8424783 C24.5964783,41.3372826 26.3942609,42.3098261 28.4347609,42.3098261"/>
    <path stroke="#45413C" stroke-linecap="round" stroke-linejoin="round" stroke-width=".8" d="M28.4347609,42.3098261 C30.4752609,42.3098261 32.2730435,41.3372826 33.4347391,39.8424783 C32.165913,39.0138913 30.396587,38.5 28.4347609,38.5 C26.4729348,38.5 24.7036087,39.0138913 23.4347826,39.8424783 C24.5964783,41.3372826 26.3942609,42.3098261 28.4347609,42.3098261 Z"/>
    <path stroke="#45413C" stroke-linecap="round" stroke-linejoin="round" d="M16.7391304,30.3631087 C16.7391304,29.3102174 17.5928261,28.4565217 18.6457174,28.4565217 C19.6986087,28.4565217 20.5506304,29.3102174 20.5506304,30.3631087"/>
    <path fill="#FFF48C" d="M40.637587,33.0765217 C40.637587,33.7778913 39.7838913,34.3470217 38.731,34.3470217 C37.6781087,34.3470217 36.826087,33.7778913 36.826087,33.0765217 C36.826087,32.3734783 37.6781087,31.8043478 38.731,31.8043478 C39.7838913,31.8043478 40.637587,32.3734783 40.637587,33.0765217"/>
    <path stroke="#45413C" stroke-linecap="round" stroke-linejoin="round" d="M38.9636739,30.3631087 C38.9636739,29.3102174 38.1099783,28.4565217 37.057087,28.4565217 C36.0041957,28.4565217 35.1521739,29.3102174 35.1521739,30.3631087"/>
    <path fill="#FF6196" d="M53.3676957,54.4942391 L1.2705,54.4942391 C0.569130435,54.4942391 0,53.9251087 0,53.2220652 L0,48.1400652 C0,47.4386957 0.569130435,46.8695652 1.2705,46.8695652 L53.3676957,46.8695652 C54.0690652,46.8695652 54.6381957,47.4386957 54.6381957,48.1400652 L54.6381957,53.2220652 C54.6381957,53.9251087 54.0690652,54.4942391 53.3676957,54.4942391"/>
    <path fill="#FF87AF" d="M54.6381957,50.0449783 L0,50.0449783 L0,48.1383913 C0,47.4370217 0.569130435,46.8695652 1.2705,46.8695652 L53.3676957,46.8695652 C54.0690652,46.8695652 54.6381957,47.4370217 54.6381957,48.1383913 L54.6381957,50.0449783 Z"/>
    <path stroke="#45413C" stroke-linecap="round" stroke-linejoin="round" d="M53.3676957,54.4942391 L1.2705,54.4942391 C0.569130435,54.4942391 0,53.9251087 0,53.2220652 L0,48.1400652 C0,47.4386957 0.569130435,46.8695652 1.2705,46.8695652 L53.3676957,46.8695652 C54.0690652,46.8695652 54.6381957,47.4386957 54.6381957,48.1400652 L54.6381957,53.2220652 C54.6381957,53.9251087 54.0690652,54.4942391 53.3676957,54.4942391 Z"/>
    <path fill="#FF87AF" d="M46.8226957,73.0278043 L8.624,73.0278043 C6.09471739,73.0278043 3.95043478,71.168087 3.59221739,68.663913 L1.67391304,55.2391304 L53.7711087,55.2391304 L51.8544783,68.663913 C51.4962609,71.168087 49.3519783,73.0278043 46.8226957,73.0278043"/>
    <path fill="#FF6196" d="M3.88667709,69.7886739 L37.1487826,69.7886739 C39.6780652,69.7886739 41.8223478,67.9289565 42.1805652,65.4247826 L43.6347512,55.2391304 L53.7711087,55.2391304 L51.8544783,68.663913 C51.4962609,71.168087 49.3519783,73.0278043 46.8226957,73.0278043 L8.624,73.0278043 C6.49094408,73.0278043 4.63171152,71.7051185 3.88667709,69.7886739 Z"/>
    <polygon fill="#FF6196" points="53.317 58.415 53.771 55.239 1.674 55.239 2.129 58.415"/>
    <path stroke="#45413C" stroke-linecap="round" stroke-linejoin="round" d="M46.8226957,73.0278043 L8.624,73.0278043 C6.09471739,73.0278043 3.95043478,71.168087 3.59221739,68.663913 L1.67391304,55.2391304 L53.7711087,55.2391304 L51.8544783,68.663913 C51.4962609,71.168087 49.3519783,73.0278043 46.8226957,73.0278043 Z"/>
  </g>
</svg>
