<svg xmlns="http://www.w3.org/2000/svg" width="59" height="78" viewBox="0 0 59 78">
  <g fill="none" fill-rule="evenodd" transform="translate(1 1)">
    <path fill="#151444" d="M51.8913043,74.4891304 C51.8913043,75.8751304 41.0242609,77 27.6195652,77 C14.2148696,77 3.34782609,75.8751304 3.34782609,74.4891304 C3.34782609,73.1031304 14.2148696,71.9782609 27.6195652,71.9782609 C41.0242609,71.9782609 51.8913043,73.1031304 51.8913043,74.4891304" opacity=".3"/>
    <path fill="#FFFEF2" d="M48.5074494,29.4503373 C49.2690799,28.2183373 49.670819,26.7369242 49.5268625,25.1500547 C49.2037973,21.4959025 45.9446886,18.790859 42.2754712,18.790859 L40.6283407,18.790859 C42.181732,17.6325112 43.2044929,15.7962286 43.2044929,13.708859 C43.2044929,10.2003373 40.3605147,7.35635901 36.8486451,7.35635901 C33.4941233,7.35635901 23.2614929,8.5866851 25.2651668,1.6700764 C25.5396886,0.725989447 24.7261668,-0.209727944 23.7753842,0.0413590126 C19.1101886,1.26666336 13.9796451,6.08920684 13.9796451,13.708859 C13.9796451,15.7962286 14.9990581,17.6325112 16.5557973,18.790859 L14.905319,18.790859 C11.2361016,18.790859 7.98034074,21.4959025 7.6539277,25.1500547 C7.513319,26.7369242 7.9117103,28.2183373 8.67334074,29.4503373 C3.47584074,30.9735981 -0.275398391,35.8965764 0.0158624788,41.6531634 C0.347297261,48.1462721 6.00512335,53.0993808 12.5049277,53.0993808 L44.6758625,53.0993808 C51.1756668,53.0993808 56.8385147,48.1462721 57.1649277,41.6531634 C57.4561886,35.8965764 53.7082973,30.9735981 48.5074494,29.4503373"/>
    <path fill="#FFF" d="M7.00612335,45.1980106 C6.71486248,39.4414236 10.4610799,34.5184454 15.6636016,32.9935106 C14.9019712,31.7631845 14.500232,30.2817715 14.6425147,28.6949019 C14.9672538,25.0390758 18.2263625,22.3357062 21.8955799,22.3357062 L23.5427103,22.3357062 C21.989319,21.1773584 20.9665581,19.3410758 20.9665581,17.2537062 C20.9665581,12.1231628 23.2932973,8.26814102 26.2393842,5.91796711 C25.1714277,5.05590189 24.6675799,3.73016276 25.2651668,1.67124972 C25.5396886,0.72716276 24.7261668,-0.208554631 23.7753842,0.040858412 C19.1085147,1.26783667 13.9796451,6.09038015 13.9796451,13.7083584 C13.9796451,15.7974019 14.9990581,17.6336845 16.5557973,18.7920323 L14.905319,18.7920323 C11.2361016,18.7920323 7.98034074,21.4954019 7.6539277,25.1495541 C7.513319,26.7380975 7.9117103,28.2178367 8.67334074,29.4515106 C3.47584074,30.9747715 -0.275398391,35.8960758 0.0158624788,41.6543367 C0.310471174,47.4678367 4.88360161,52.0376193 10.5046016,52.9298149 C8.48418857,50.9160975 7.16012335,48.231141 7.00612335,45.1980106"/>
    <path stroke="#45413C" stroke-linecap="round" stroke-linejoin="round" d="M48.5074494,29.4503373 C49.2690799,28.2183373 49.670819,26.7369242 49.5268625,25.1500547 C49.2037973,21.4959025 45.9446886,18.790859 42.2754712,18.790859 L40.6283407,18.790859 C42.181732,17.6325112 43.2044929,15.7962286 43.2044929,13.708859 C43.2044929,10.2003373 40.3605147,7.35635901 36.8486451,7.35635901 C33.4941233,7.35635901 23.2614929,8.5866851 25.2651668,1.6700764 C25.5396886,0.725989447 24.7261668,-0.209727944 23.7753842,0.0413590126 C19.1101886,1.26666336 13.9796451,6.08920684 13.9796451,13.708859 C13.9796451,15.7962286 14.9990581,17.6325112 16.5557973,18.790859 L14.905319,18.790859 C11.2361016,18.790859 7.98034074,21.4959025 7.6539277,25.1500547 C7.513319,26.7369242 7.9117103,28.2183373 8.67334074,29.4503373 C3.47584074,30.9735981 -0.275398391,35.8965764 0.0158624788,41.6531634 C0.347297261,48.1462721 6.00512335,53.0993808 12.5049277,53.0993808 L44.6758625,53.0993808 C51.1756668,53.0993808 56.8385147,48.1462721 57.1649277,41.6531634 C57.4561886,35.8965764 53.7082973,30.9735981 48.5074494,29.4503373 Z"/>
    <path fill="#FF6196" d="M55.0432826,54.4942391 L2.94608696,54.4942391 C2.24304348,54.4942391 1.67391304,53.9251087 1.67391304,53.2220652 L1.67391304,48.1400652 C1.67391304,47.4386957 2.24304348,46.8695652 2.94608696,46.8695652 L55.0432826,46.8695652 C55.7429783,46.8695652 56.3121087,47.4386957 56.3121087,48.1400652 L56.3121087,53.2220652 C56.3121087,53.9251087 55.7429783,54.4942391 55.0432826,54.4942391"/>
    <path fill="#FF87AF" d="M56.3121087,50.0449783 L1.67391304,50.0449783 L1.67391304,48.1383913 C1.67391304,47.4370217 2.24304348,46.8695652 2.94608696,46.8695652 L55.0432826,46.8695652 C55.7429783,46.8695652 56.3121087,47.4370217 56.3121087,48.1383913 L56.3121087,50.0449783 Z"/>
    <path stroke="#45413C" stroke-linecap="round" stroke-linejoin="round" d="M55.0432826,54.4942391 L2.94608696,54.4942391 C2.24304348,54.4942391 1.67391304,53.9251087 1.67391304,53.2220652 L1.67391304,48.1400652 C1.67391304,47.4386957 2.24304348,46.8695652 2.94608696,46.8695652 L55.0432826,46.8695652 C55.7429783,46.8695652 56.3121087,47.4386957 56.3121087,48.1400652 L56.3121087,53.2220652 C56.3121087,53.9251087 55.7429783,54.4942391 55.0432826,54.4942391 Z"/>
    <path fill="#FF87AF" d="M47.8210217,73.0278043 L9.62232609,73.0278043 C7.09471739,73.0278043 4.95043478,71.168087 4.59054348,68.663913 L2.67391304,55.2391304 L54.7711087,55.2391304 L52.8528043,68.663913 C52.4962609,71.168087 50.3519783,73.0278043 47.8210217,73.0278043"/>
    <polygon fill="#FF6196" points="54.644 58.175 55.097 55 3 55 3.455 58.175"/>
    <path fill="#FF6196" d="M5,69.5495435 L38.2621055,69.5495435 C40.7913881,69.5495435 42.9356707,67.6898261 43.2938881,65.1856522 L44.7480741,55 L54.8844316,55 L52.9678012,68.4247826 C52.6095838,70.9289565 50.4653012,72.7886739 47.9360186,72.7886739 L9.73732291,72.7886739 C7.604267,72.7886739 5.74503444,71.465988 5,69.5495435 Z"/>
    <path stroke="#45413C" stroke-linecap="round" stroke-linejoin="round" d="M48.1471087,72.7886739 L9.94841304,72.7886739 C7.42080435,72.7886739 5.27652174,70.9289565 4.91663043,68.4247826 L3,55 L55.0971957,55 L53.1788913,68.4247826 C52.8223478,70.9289565 50.6780652,72.7886739 48.1471087,72.7886739 Z"/>
    <path stroke="#45413C" stroke-linecap="round" stroke-linejoin="round" stroke-width=".8" d="M52.3549783 39.3687609L52.3549783 41.2753478C52.3549783 42.3282391 51.5012826 43.1802609 50.4483913 43.1802609 49.3955 43.1802609 48.5434783 42.3282391 48.5434783 41.2753478L48.5434783 36.826087M35.6158478 15.0652174L35.6158478 18.2406304C35.6158478 19.2935217 34.7621522 20.1472174 33.7092609 20.1472174 32.6563696 20.1472174 31.8043478 19.2935217 31.8043478 18.2406304L31.8043478 16.9718043"/>
    <path fill="#FFFEF2" d="M10.5071522,46.8695652 L10.5071522,50.0466522 C10.5071522,51.0995435 9.65345652,51.9532391 8.60056522,51.9532391 C7.54767391,51.9532391 6.69565217,51.0995435 6.69565217,50.0466522 L6.69565217,46.8695652 L10.5071522,46.8695652 Z"/>
    <path stroke="#45413C" stroke-linecap="round" stroke-linejoin="round" d="M10.5071522,48.1417391 L10.5071522,50.0483261 C10.5071522,51.1012174 9.65345652,51.9532391 8.60056522,51.9532391 C7.54767391,51.9532391 6.69565217,51.1012174 6.69565217,50.0483261 L6.69565217,46.8695652"/>
    <path fill="#FFB0CA" d="M22.4436824,36.826087 C22.2495085,36.826087 22.0620302,36.9114565 21.931465,37.057087 C21.8042476,37.2027174 21.7423128,37.3968913 21.7657476,37.5910652 C22.1407041,40.7497391 24.8323563,43.1986739 28.091465,43.1986739 C31.3505737,43.1986739 34.0422259,40.7497391 34.4171824,37.5910652 C34.4406172,37.3968913 34.3786824,37.2027174 34.2497911,37.057087 C34.1208998,36.9114565 33.9334215,36.826087 33.7375737,36.826087 L22.4436824,36.826087 Z"/>
    <path stroke="#45413C" stroke-linecap="round" stroke-linejoin="round" stroke-width=".8" d="M22.4436824,36.826087 C22.2495085,36.826087 22.0620302,36.9114565 21.931465,37.057087 C21.8042476,37.2027174 21.7423128,37.3968913 21.7657476,37.5910652 C22.1407041,40.7497391 24.8323563,43.1986739 28.091465,43.1986739 C31.3505737,43.1986739 34.0422259,40.7497391 34.4171824,37.5910652 C34.4406172,37.3968913 34.3786824,37.2027174 34.2497911,37.057087 C34.1208998,36.9114565 33.9334215,36.826087 33.7375737,36.826087 L22.4436824,36.826087 Z"/>
    <path fill="#FF87AF" d="M33.4782609,41.3540217 C32.2311957,40.6292174 30.4451304,40.173913 28.4565217,40.173913 C26.467913,40.173913 24.6801739,40.6292174 23.4347826,41.3540217 C24.5981522,42.8505 26.4126739,43.8146739 28.4565217,43.8146739 C30.5003696,43.8146739 32.3132174,42.8505 33.4782609,41.3540217"/>
    <path stroke="#45413C" stroke-linecap="round" stroke-linejoin="round" stroke-width=".8" d="M33.4782609,41.3540217 C32.2311957,40.6292174 30.4451304,40.173913 28.4565217,40.173913 C26.467913,40.173913 24.6801739,40.6292174 23.4347826,41.3540217 C24.5981522,42.8505 26.4126739,43.8146739 28.4565217,43.8146739 C30.5003696,43.8146739 32.3132174,42.8505 33.4782609,41.3540217 Z"/>
    <path fill="#FF6242" d="M42.4457684,28.2695145 C41.9687032,29.3240797 41.0982684,30.1376014 40.0822032,30.4774058 L34.4327467,32.3739492 L32.097638,26.8902101 C31.6791597,25.9042753 31.7092902,24.7124492 32.1830076,23.657884 C32.6048337,22.7204927 33.4099858,22.0291666 34.3390076,21.8249492 C35.6547032,21.5320145 36.891725,22.2651884 37.3118771,23.5792101 L37.7487684,24.9953405 L39.0979424,24.3843623 C40.3600728,23.8236014 41.7276597,24.2604927 42.3838337,25.4439492 C42.8475076,26.2725362 42.8675945,27.3304492 42.4457684,28.2695145"/>
    <path fill="#FF866E" d="M33.1485,24.4362536 C34.4658696,24.139971 35.7028913,24.8748188 36.1230435,26.1905145 L36.5616087,27.604971 L37.9091087,26.9923188 C39.1712391,26.4315579 40.5405,26.8717971 41.195,28.0519058 C41.4427391,28.4971666 41.5532174,29.0043623 41.5481957,29.5266232 C41.9030652,29.1684058 42.2110652,28.7482536 42.427,28.2695145 C42.8488261,27.3304492 42.8287391,26.2725362 42.3650652,25.4439492 C41.7088913,24.2621666 40.3413043,23.8236014 39.0758261,24.3843623 L37.73,24.9953405 L37.2931087,23.5792101 C36.8729565,22.2651884 35.6359348,21.5320145 34.3202391,21.8249492 C33.3912174,22.0308405 32.5860652,22.7204927 32.1642391,23.657884 C31.9483043,24.139971 31.8344783,24.6505145 31.8043478,25.159384 C32.1926957,24.8028405 32.648,24.5450579 33.1485,24.4362536"/>
    <path stroke="#45413C" stroke-linecap="round" stroke-linejoin="round" stroke-width=".8" d="M42.4457684,28.2695145 C41.9687032,29.3240797 41.0982684,30.1376014 40.0822032,30.4774058 L34.4327467,32.3739492 L32.097638,26.8902101 C31.6791597,25.9042753 31.7092902,24.7124492 32.1830076,23.657884 C32.6048337,22.7204927 33.4099858,22.0291666 34.3390076,21.8249492 C35.6547032,21.5320145 36.891725,22.2651884 37.3118771,23.5792101 L37.7487684,24.9953405 L39.0979424,24.3843623 C40.3600728,23.8236014 41.7276597,24.2604927 42.3838337,25.4439492 C42.8475076,26.2725362 42.8675945,27.3304492 42.4457684,28.2695145 Z"/>
    <path fill="#FF6242" d="M15.7189057,20.847889 C16.7165579,19.346389 18.5879927,18.9094977 20.2100144,19.7916499 L21.9391666,20.7491282 L22.6756883,18.9161934 C23.375384,17.2071282 25.1011883,16.363476 26.8253187,16.8991282 C28.0405796,17.2707369 29.0365579,18.2767586 29.496884,19.5723673 C30.015797,21.0269977 29.9254057,22.6172151 29.2608622,23.8826934 L25.5615144,30.936563 L18.2398187,27.8013238 C16.9241231,27.238889 15.8494709,26.0621282 15.3339057,24.6074977 C14.8719057,23.313563 15.0091666,21.9024543 15.7189057,20.847889"/>
    <path fill="#FF866E" d="M17.0032777,24.4459939 C18.0009299,22.9461678 19.8706907,22.5092765 21.4927125,23.3914287 L23.2218646,24.348907 L23.9567125,22.5142983 C24.659756,20.805233 26.3855603,19.9615809 28.1063429,20.498907 C28.759169,20.6964287 29.3349951,21.0864504 29.8120603,21.5936461 C29.8254516,20.920733 29.7317125,20.2327548 29.4973646,19.573233 C29.0353646,18.2759504 28.0410603,17.2716026 26.8241255,16.89832 C25.101669,16.3643417 23.3758646,17.2079939 22.676169,18.9153852 L21.9396473,20.7499939 L20.2088212,19.7925157 C18.5867994,18.9086896 16.7153646,19.3455809 15.7177125,20.8487548 C15.0096473,21.9016461 14.8723864,23.3110809 15.3327125,24.6083635 C15.5687342,25.2745809 15.9336473,25.8704939 16.3722125,26.3860591 C16.419082,25.6863635 16.6199516,25.0151244 17.0032777,24.4459939"/>
    <path stroke="#45413C" stroke-linecap="round" stroke-linejoin="round" stroke-width=".8" d="M15.7189057,20.847889 C16.7165579,19.346389 18.5879927,18.9094977 20.2100144,19.7916499 L21.9391666,20.7491282 L22.6756883,18.9161934 C23.375384,17.2071282 25.1011883,16.363476 26.8253187,16.8991282 C28.0405796,17.2707369 29.0365579,18.2767586 29.496884,19.5723673 C30.015797,21.0269977 29.9254057,22.6172151 29.2608622,23.8826934 L25.5615144,30.936563 L18.2398187,27.8013238 C16.9241231,27.238889 15.8494709,26.0621282 15.3339057,24.6074977 C14.8719057,23.313563 15.0091666,21.9024543 15.7189057,20.847889 Z"/>
  </g>
</svg>
