<svg xmlns="http://www.w3.org/2000/svg" width="59" height="78" viewBox="0 0 59 78">
  <g fill="none" fill-rule="evenodd" transform="translate(1 1)">
    <path fill="#151444" d="M53.5652174,74.4891304 C53.5652174,75.8751304 42.6981739,77 29.2934783,77 C15.8887826,77 5.02173913,75.8751304 5.02173913,74.4891304 C5.02173913,73.1031304 15.8887826,71.9782609 29.2934783,71.9782609 C42.6981739,71.9782609 53.5652174,73.1031304 53.5652174,74.4891304" opacity=".3"/>
    <path fill="#FFFEF2" d="M48.5074559,29.4503373 C49.2690863,28.2183373 49.6691515,26.7369242 49.5268689,25.1500547 C49.2021298,21.4959025 45.944695,18.790859 42.2754776,18.790859 L40.6266733,18.790859 C42.1817385,17.6325112 43.2028254,15.7962286 43.2028254,13.708859 C43.2028254,10.2003373 40.3588472,7.35635901 36.8486515,7.35635901 C33.4941298,7.35635901 23.2598254,8.5866851 25.2651733,1.6700764 C25.5380211,0.725989447 24.7244993,-0.209727944 23.7737167,0.0413590126 C19.1085211,1.26666336 13.9779776,6.08920684 13.9779776,13.708859 C13.9779776,15.7962286 14.9990646,17.6325112 16.5541298,18.790859 L14.9053254,18.790859 C11.236108,18.790859 7.97867326,21.4959025 7.65393413,25.1500547 C7.51165152,26.7369242 7.91171674,28.2183373 8.67334717,29.4503373 C3.47417326,30.9735981 -0.275391959,35.8965764 0.0158689106,41.6531634 C0.34562978,48.1462721 6.00512978,53.0993808 12.5049341,53.0993808 L44.6758689,53.0993808 C51.1756733,53.0993808 56.8368472,48.1462721 57.1649341,41.6531634 C57.456195,35.8965764 53.7066298,30.9735981 48.5074559,29.4503373"/>
    <path fill="#FFF" d="M7.00612978,45.1980106 C6.71486891,39.4414236 10.4610863,34.5184454 15.663608,32.9935106 C14.9003037,31.7631845 14.5002385,30.2817715 14.6425211,28.6949019 C14.9672602,25.0390758 18.224695,22.3357062 21.8955863,22.3357062 L23.5427167,22.3357062 C21.9876515,21.1773584 20.9665646,19.3410758 20.9665646,17.2537062 C20.9665646,12.1231628 23.2933037,8.26814102 26.2377167,5.91796711 C25.1714341,5.05590189 24.6675863,3.73016276 25.2651733,1.67124972 C25.5380211,0.72716276 24.7244993,-0.208554631 23.7737167,0.040858412 C19.1068472,1.26783667 13.9779776,6.09038015 13.9779776,13.7083584 C13.9779776,15.7974019 14.9990646,17.6336845 16.5541298,18.7920323 L14.9053254,18.7920323 C11.236108,18.7920323 7.97867326,21.4954019 7.65393413,25.1495541 C7.51165152,26.7380975 7.91171674,28.2178367 8.67334717,29.4515106 C3.47417326,30.9747715 -0.275391959,35.8960758 0.0158689106,41.6543367 C0.310477606,47.4678367 4.88360804,52.0376193 10.504608,52.9298149 C8.484195,50.9160975 7.15845587,48.231141 7.00612978,45.1980106"/>
    <path stroke="#45413C" stroke-linecap="round" stroke-linejoin="round" d="M48.5074559,29.4503373 C49.2690863,28.2183373 49.6691515,26.7369242 49.5268689,25.1500547 C49.2021298,21.4959025 45.944695,18.790859 42.2754776,18.790859 L40.6266733,18.790859 C42.1817385,17.6325112 43.2028254,15.7962286 43.2028254,13.708859 C43.2028254,10.2003373 40.3588472,7.35635901 36.8486515,7.35635901 C33.4941298,7.35635901 23.2598254,8.5866851 25.2651733,1.6700764 C25.5380211,0.725989447 24.7244993,-0.209727944 23.7737167,0.0413590126 C19.1085211,1.26666336 13.9779776,6.08920684 13.9779776,13.708859 C13.9779776,15.7962286 14.9990646,17.6325112 16.5541298,18.790859 L14.9053254,18.790859 C11.236108,18.790859 7.97867326,21.4959025 7.65393413,25.1500547 C7.51165152,26.7369242 7.91171674,28.2183373 8.67334717,29.4503373 C3.47417326,30.9735981 -0.275391959,35.8965764 0.0158689106,41.6531634 C0.34562978,48.1462721 6.00512978,53.0993808 12.5049341,53.0993808 L44.6758689,53.0993808 C51.1756733,53.0993808 56.8368472,48.1462721 57.1649341,41.6531634 C57.456195,35.8965764 53.7066298,30.9735981 48.5074559,29.4503373 Z"/>
    <path fill="#FF6196" d="M55.0416087,54.4942391 L2.94441304,54.4942391 C2.24304348,54.4942391 1.67391304,53.9251087 1.67391304,53.2220652 L1.67391304,48.1400652 C1.67391304,47.4386957 2.24304348,46.8695652 2.94441304,46.8695652 L55.0416087,46.8695652 C55.7429783,46.8695652 56.3121087,47.4386957 56.3121087,48.1400652 L56.3121087,53.2220652 C56.3121087,53.9251087 55.7429783,54.4942391 55.0416087,54.4942391"/>
    <path fill="#FF87AF" d="M56.3121087,50.0449783 L1.67391304,50.0449783 L1.67391304,48.1383913 C1.67391304,47.4370217 2.24304348,46.8695652 2.94441304,46.8695652 L55.0416087,46.8695652 C55.7429783,46.8695652 56.3121087,47.4370217 56.3121087,48.1383913 L56.3121087,50.0449783 Z"/>
    <path stroke="#45413C" stroke-linecap="round" stroke-linejoin="round" d="M55.0416087,54.4942391 L2.94441304,54.4942391 C2.24304348,54.4942391 1.67391304,53.9251087 1.67391304,53.2220652 L1.67391304,48.1400652 C1.67391304,47.4386957 2.24304348,46.8695652 2.94441304,46.8695652 L55.0416087,46.8695652 C55.7429783,46.8695652 56.3121087,47.4386957 56.3121087,48.1400652 L56.3121087,53.2220652 C56.3121087,53.9251087 55.7429783,54.4942391 55.0416087,54.4942391 Z"/>
    <path fill="#FF87AF" d="M48.4966087,73.0278043 L10.297913,73.0278043 C7.76863043,73.0278043 5.62434783,71.168087 5.26613043,68.663913 L3.34782609,55.2391304 L55.4450217,55.2391304 L53.5283913,68.663913 C53.1701739,71.168087 51.0258913,73.0278043 48.4966087,73.0278043"/>
    <polygon fill="#FF6196" points="54.991 58.415 55.445 55.239 3.348 55.239 3.803 58.415"/>
    <path fill="#FF6196" d="M6,69.5495435 L39.2621055,69.5495435 C41.7913881,69.5495435 43.9356707,67.6898261 44.2938881,65.1856522 L45.7480741,55 L55.8844316,55 L53.9678012,68.4247826 C53.6095838,70.9289565 51.4653012,72.7886739 48.9360186,72.7886739 L10.7373229,72.7886739 C8.604267,72.7886739 6.74503444,71.465988 6,69.5495435 Z"/>
    <path stroke="#45413C" stroke-linecap="round" stroke-linejoin="round" d="M48.4966087,73.0278043 L10.297913,73.0278043 C7.76863043,73.0278043 5.62434783,71.168087 5.26613043,68.663913 L3.34782609,55.2391304 L55.4450217,55.2391304 L53.5283913,68.663913 C53.1701739,71.168087 51.0258913,73.0278043 48.4966087,73.0278043 Z"/>
    <path stroke="#45413C" stroke-linecap="round" stroke-linejoin="round" stroke-width=".8" d="M52.3549783 39.3687609L52.3549783 41.2753478C52.3549783 42.3282391 51.5012826 43.1802609 50.4483913 43.1802609 49.3955 43.1802609 48.5434783 42.3282391 48.5434783 41.2753478L48.5434783 36.826087M35.6158478 15.0652174L35.6158478 18.2406304C35.6158478 19.2935217 34.7621522 20.1472174 33.7092609 20.1472174 32.6563696 20.1472174 31.8043478 19.2935217 31.8043478 18.2406304L31.8043478 16.9718043"/>
    <path fill="#FFFEF2" d="M10.5071522,46.8695652 L10.5071522,50.0466522 C10.5071522,51.0995435 9.65345652,51.9532391 8.60056522,51.9532391 C7.54767391,51.9532391 6.69565217,51.0995435 6.69565217,50.0466522 L6.69565217,46.8695652 L10.5071522,46.8695652 Z"/>
    <path stroke="#45413C" stroke-linecap="round" stroke-linejoin="round" d="M10.5071522,48.1417391 L10.5071522,50.0483261 C10.5071522,51.1012174 9.65345652,51.9532391 8.60056522,51.9532391 C7.54767391,51.9532391 6.69565217,51.1012174 6.69565217,50.0483261 L6.69565217,46.8695652"/>
    <path fill="#FFF48C" d="M41.0945652 31.4126522C41.0945652 32.1190435 40.1404348 32.6931957 38.962 32.6931957 37.7818913 32.6931957 36.826087 32.1190435 36.826087 31.4126522 36.826087 30.7062609 37.7818913 30.1304348 38.962 30.1304348 40.1404348 30.1304348 41.0945652 30.7062609 41.0945652 31.4126522M16.7391304 31.4126522C16.7391304 32.1190435 17.6949348 32.6931957 18.8716957 32.6931957 20.0518043 32.6931957 21.0076087 32.1190435 21.0076087 31.4126522 21.0076087 30.7062609 20.0518043 30.1304348 18.8716957 30.1304348 17.6949348 30.1304348 16.7391304 30.7062609 16.7391304 31.4126522"/>
    <path stroke="#45413C" stroke-linecap="round" stroke-linejoin="round" d="M16.7391304 28.277413C16.7391304 27.4521739 17.4070217 26.7826087 18.2339348 26.7826087 19.0575 26.7826087 19.7270652 27.4521739 19.7270652 28.277413M36.826087 28.277413C36.826087 27.4521739 37.4956522 26.7826087 38.3208913 26.7826087 39.1461304 26.7826087 39.8140217 27.4521739 39.8140217 28.277413"/>
    <path stroke="#45413C" stroke-linecap="round" stroke-linejoin="round" stroke-width=".8" d="M21.7608696,33.4816087 C23.5603261,35.0701522 25.9155217,36.0393478 28.5050652,36.0393478 C31.0946087,36.0393478 33.4531522,35.0684783 35.2542826,33.4782609"/>
    <path fill="#FF6242" d="M34.3537174,35.1521739 C32.6931957,36.3523696 30.6610652,37.0688043 28.4565217,37.0805217 C31.0025435,39.211413 30.3513913,42.4203043 32.9241957,42.1089565 C36.4427609,41.6837826 35.8384783,37.1173478 34.3537174,35.1521739"/>
    <path fill="#FF866E" d="M33.7326957,42.0269348 C36.7457391,41.2786957 36.133087,37.0286304 34.7136087,35.1521739 C34.321913,35.4350652 33.9084565,35.6895 33.4782609,35.9171522 C34.3955652,37.6011087 34.8207391,40.4785652 33.7326957,42.0269348"/>
    <path stroke="#45413C" stroke-linecap="round" stroke-linejoin="round" stroke-width=".8" d="M34.3537174,35.1521739 C32.6931957,36.3523696 30.6610652,37.0688043 28.4565217,37.0805217 C31.0025435,39.211413 30.3513913,42.4203043 32.9241957,42.1089565 C36.4427609,41.6837826 35.8384783,37.1173478 34.3537174,35.1521739 Z"/>
  </g>
</svg>
