<svg xmlns="http://www.w3.org/2000/svg" width="53" height="78" viewBox="0 0 53 78">
  <g fill="none" fill-rule="evenodd" transform="translate(1 1)">
    <path fill="#151444" d="M42.1581754,74.833193 C42.1581754,75.8747193 34.8377719,76.7190175 25.8071579,76.7190175 C16.7765439,76.7190175 9.45614035,75.8747193 9.45614035,74.833193 C9.45614035,73.7916667 16.7765439,72.9473684 25.8071579,72.9473684 C34.8377719,72.9473684 42.1581754,73.7916667 42.1581754,74.833193" opacity=".3"/>
    <path fill="#E8E8E8" d="M28.3684211,73.4567156 C28.3684211,73.9212401 27.7632281,74.2982456 27.0175439,74.2982456 L24.3157895,74.2982456 C23.5701053,74.2982456 22.9649123,73.9212401 22.9649123,73.4567156 L22.9649123,23.8064423 C22.9649123,23.3419177 23.5701053,22.9649123 24.3157895,22.9649123 L27.0175439,22.9649123 C27.7632281,22.9649123 28.3684211,23.3419177 28.3684211,23.8064423 L28.3684211,73.4567156 Z"/>
    <path stroke="#45413C" d="M28.3684211,73.4567156 C28.3684211,73.9212401 27.7632281,74.2982456 27.0175439,74.2982456 L24.3157895,74.2982456 C23.5701053,74.2982456 22.9649123,73.9212401 22.9649123,73.4567156 L22.9649123,23.8064423 C22.9649123,23.3419177 23.5701053,22.9649123 24.3157895,22.9649123 L27.0175439,22.9649123 C27.7632281,22.9649123 28.3684211,23.3419177 28.3684211,23.8064423 L28.3684211,73.4567156 Z"/>
    <path fill="#94FF6C" d="M50.9672456,25.4829474 C50.9672456,39.556386 39.5577368,50.9658947 25.4842982,50.9658947 C11.4108596,50.9658947 0,39.556386 0,25.4829474 C0,11.4095088 11.4108596,0 25.4842982,0 C39.5577368,0 50.9672456,11.4095088 50.9672456,25.4829474"/>
    <path stroke="#45413C" stroke-linecap="round" stroke-linejoin="round" d="M50.9672456,25.4829474 C50.9672456,39.556386 39.5577368,50.9658947 25.4842982,50.9658947 C11.4108596,50.9658947 0,39.556386 0,25.4829474 C0,11.4095088 11.4108596,0 25.4842982,0 C39.5577368,0 50.9672456,11.4095088 50.9672456,25.4829474 Z"/>
    <path fill="#EBFFEC" d="M50.7124554,25.4234862 C50.7124554,25.4234862 50.5057712,26.0732582 50.1167185,27.2917494 C49.6979466,28.4980827 49.0603326,30.2825915 47.9701747,32.4291353 C46.8746133,34.5675739 45.3238063,37.0923634 43.0205606,39.6009424 C40.6808413,42.0460301 37.5427536,44.5005739 33.4860694,45.9203459 C29.4672098,47.3293108 24.5216484,47.6400125 19.7827712,45.9284511 C17.4187361,45.1003634 15.1452098,43.7440827 13.195894,41.936609 C12.2408238,41.0517845 11.3073677,39.9643283 10.5576308,38.933609 C9.73899924,37.7934687 9.06896416,36.6290125 8.49619223,35.3537845 C6.16863082,30.309609 6.11729749,23.9942582 8.68396416,18.6353283 C9.98080626,15.944381 11.7774729,13.5722406 14.2671396,11.6377845 C15.219508,10.8704862 16.8324554,9.89650377 18.1873852,9.34264412 C19.6274203,8.78743359 21.1295957,8.35245113 22.6736484,8.20250377 C25.746894,7.87288973 28.925508,8.37946868 31.7029115,9.74925815 C33.094315,10.4179424 34.3898063,11.290609 35.5177887,12.3321353 C36.6619817,13.3344862 37.6683852,14.5597318 38.4397361,15.8376617 C40.1296835,18.6326266 40.6619291,21.8058371 40.2134378,24.8507143 C39.7892624,27.8955915 38.2168413,30.6865038 36.0554378,32.6939073 L35.6393677,33.0586441 L35.4299817,33.2396617 L35.3259642,33.3301704 L35.2746308,33.3747494 L35.1489992,33.4733634 L34.370894,34.0245213 L33.3104554,34.6337669 L32.2783852,35.0863108 C30.8775256,35.6185564 29.387508,35.853609 27.9326133,35.8009248 C25.009315,35.7158196 22.2602799,34.3825038 20.3839115,32.3872582 L19.7179291,31.6132055 C19.4382975,31.233609 19.3612975,31.1187845 19.1600168,30.8121353 C18.7561045,30.144802 18.4589115,29.5261003 18.2535782,28.8763283 C17.8239992,27.5754336 17.6997185,26.2096967 17.8672273,24.908802 C18.1860343,22.2989073 19.7679115,20.0078196 21.7185782,18.7474511 C23.8894378,17.3479424 26.4344905,17.3195739 28.4445957,18.198995 C29.4496484,18.6366792 30.3020519,19.3175213 30.9518238,20.1010301 C31.0436835,20.2145038 31.0909642,20.2604336 31.2165957,20.4292932 L31.3989642,20.7008196 C31.5151396,20.8683283 31.6718413,21.1668722 31.7839642,21.3897669 C31.9906484,21.8544687 32.148701,22.3299775 32.225701,22.8122406 C32.5647712,24.7521003 31.8204378,26.6055038 30.6370694,27.7186266 C30.3533852,27.9901529 30.0048589,28.2549248 29.7009115,28.429188 C29.3240168,28.6453283 28.9768413,28.780416 28.6094028,28.8790301 C27.8812799,29.0695038 27.154508,29.0465389 26.5087887,28.8965915 C25.2092449,28.5750827 24.2798413,27.7199775 23.8354028,26.833802 C23.3774554,25.9125038 23.4422975,25.0195739 23.6449291,24.3954687 C24.1028764,23.1215915 24.8485606,22.8271003 24.7999291,22.8041353 C24.8485606,22.8149424 24.1488063,23.2269599 23.8772799,24.4549073 C23.755701,25.0492932 23.8178413,25.8611704 24.2879466,26.5649775 C24.7661571,27.2687845 25.6172098,27.900995 26.6749466,28.0455389 C27.2004378,28.110381 27.7664554,28.0685038 28.298701,27.8658722 C28.5621221,27.768609 28.8309466,27.6213634 29.0389817,27.4741178 C29.3145606,27.2755389 29.5077361,27.0837143 29.7225256,26.8392055 C30.5519642,25.909802 30.9599291,24.4927318 30.6005957,23.1513108 C30.2871922,21.8220476 29.0970694,20.6711003 27.6583852,20.1334511 C26.9316133,19.8794862 26.1345957,19.7835739 25.3456835,19.8808371 C24.5783852,19.9862055 23.7543501,20.3117669 23.1748238,20.7467494 C21.7577536,21.8017845 20.8729291,23.4295915 20.7081221,25.2208546 C20.6378764,26.1110827 20.7729642,27.0256266 21.0985256,27.8712757 C21.2511747,28.3022055 21.4929817,28.7047669 21.6888589,29.0208722 C21.8077361,29.1937845 22.0806133,29.5436617 22.149508,29.6287669 L22.6533852,30.1569599 C24.0542449,31.5132406 26.0062624,32.3021529 28.0150168,32.3183634 C29.0160168,32.3264687 30.0264729,32.135995 30.9626308,31.7482932 L31.6502273,31.421381 L32.2284028,31.0782582 L32.9875957,30.508188 C32.8579115,30.6081529 32.974087,30.5162932 32.9538238,30.5284511 L32.9902975,30.4946792 L33.0645957,30.4257845 L33.2118413,30.287995 L33.5090343,30.012416 C35.0463326,28.506188 36.0784028,26.4717669 36.3607361,24.2901003 C36.6835957,22.1422055 36.2094378,19.7660125 35.0936133,17.9706967 C32.6404203,13.9937143 27.8002273,11.6675038 23.0937712,12.1646266 C21.9171571,12.2618897 20.7770168,12.5928546 19.674701,12.9967669 C18.5210519,13.5033459 17.7591571,13.8910476 16.5676835,14.7947845 C14.7656133,16.1915915 13.1026835,18.1571178 12.0341396,20.277995 C9.80924486,24.5751353 9.72278872,29.7733108 11.4370519,34.1123283 C11.8571747,35.1916792 12.4137361,36.2588722 13.0148764,37.1869248 C13.1472624,37.4125213 13.3485431,37.679995 13.525508,37.932609 L13.6619466,38.1230827 L13.7065256,38.1852231 L13.7754203,38.2676266 L14.0469466,38.5985915 C14.3941221,39.0524862 14.7939817,39.4563985 15.1843852,39.8657143 C16.7973326,41.4462406 18.6818063,42.706609 20.7027185,43.5238897 C24.7499466,45.2165389 29.1659642,45.1516967 32.8957361,44.0763985 C36.6687361,43.0078546 39.7514378,40.8977845 42.1222273,38.7039599 C44.4889642,36.4736617 46.1802624,34.1298897 47.4041571,32.1116792 C48.6510168,30.0961704 49.4358764,28.3994687 49.9559642,27.2323108 C50.4490343,26.052995 50.7124554,25.4234862 50.7124554,25.4234862"/>
    <polygon fill="#D1D1D1" points="24.316 55.386 28.368 55.386 28.368 51.333 24.316 51.333"/>
    <path stroke="#45413C" stroke-linecap="round" d="M30.3717719,24.3157895 C28.9263333,25.2830175 27.1877544,25.8476842 25.3154386,25.8476842 C23.4471754,25.8476842 21.7085965,25.2843684 20.2631579,24.3184912"/>
    <path fill="#45413C" d="M16.8819123,15.8714561 C16.8819123,16.4293684 16.4307193,16.8832632 15.8701053,16.8832632 C15.312193,16.8832632 14.8596491,16.4293684 14.8596491,15.8714561 C14.8596491,15.3135439 15.312193,14.8596491 15.8701053,14.8596491 C16.4307193,14.8596491 16.8819123,15.3135439 16.8819123,15.8714561"/>
    <path stroke="#45413C" stroke-linecap="round" stroke-linejoin="round" stroke-width="2" d="M16.8819123,15.8714561 C16.8819123,16.4293684 16.4307193,16.8832632 15.8701053,16.8832632 C15.312193,16.8832632 14.8596491,16.4293684 14.8596491,15.8714561 C14.8596491,15.3135439 15.312193,14.8596491 15.8701053,14.8596491 C16.4307193,14.8596491 16.8819123,15.3135439 16.8819123,15.8714561 Z"/>
    <path fill="#45413C" d="M35.122807,15.8714561 C35.122807,16.4293684 35.5753509,16.8832632 36.134614,16.8832632 C36.6925263,16.8832632 37.1450702,16.4293684 37.1450702,15.8714561 C37.1450702,15.3135439 36.6925263,14.8596491 36.134614,14.8596491 C35.5753509,14.8596491 35.122807,15.3135439 35.122807,15.8714561"/>
    <path stroke="#45413C" stroke-linecap="round" stroke-linejoin="round" stroke-width="2" d="M35.122807,15.8714561 C35.122807,16.4293684 35.5753509,16.8832632 36.134614,16.8832632 C36.6925263,16.8832632 37.1450702,16.4293684 37.1450702,15.8714561 C37.1450702,15.3135439 36.6925263,14.8596491 36.134614,14.8596491 C35.5753509,14.8596491 35.122807,15.3135439 35.122807,15.8714561 Z"/>
    <path fill="#E27539" d="M40.1777895 21.780193C40.1777895 22.6177368 39.0471053 23.2972281 37.6502982 23.2972281 36.2548421 23.2972281 35.122807 22.6177368 35.122807 21.780193 35.122807 20.9426491 36.2548421 20.2631579 37.6502982 20.2631579 39.0471053 20.2631579 40.1777895 20.9426491 40.1777895 21.780193M10.8070175 21.780193C10.8070175 22.6177368 11.9377018 23.2972281 13.3345088 23.2972281 14.7299649 23.2972281 15.862 22.6177368 15.862 21.780193 15.862 20.9426491 14.7299649 20.2631579 13.3345088 20.2631579 11.9377018 20.2631579 10.8070175 20.9426491 10.8070175 21.780193"/>
    <path fill="#67D335" d="M25.9733158,44.604614 C38.5391754,44.604614 48.9004035,35.1876491 50.4012281,23.0270526 C50.5147018,23.9861754 50.5957544,24.9574561 50.5957544,25.9476491 C50.5957544,39.5469298 39.5712456,50.5700877 25.9733158,50.5700877 C12.375386,50.5700877 1.35087719,39.5469298 1.35087719,25.9476491 C1.35087719,24.937193 1.41977193,23.9429474 1.53864912,22.9649123 C3.01110526,35.1552281 13.3858421,44.604614 25.9733158,44.604614"/>
  </g>
</svg>
