<svg xmlns="http://www.w3.org/2000/svg" width="50" height="76" viewBox="0 0 50 76">
  <g fill="none" fill-rule="evenodd" transform="translate(0 1)">
    <path fill="#FEE6FF" d="M23.25,0 C10.811,0 0.5,10.087 0.5,22.526 L0.5,51.723 C0.5,54.78725 2.94825,57.03425 5.09375,57.03425 L42.3775,57.03425 C44.523,57.03425 46,54.78725 46,51.723 L46,22.526 C46,10.087 35.689,0 23.25,0"/>
    <path stroke="#45413C" stroke-linecap="round" stroke-linejoin="round" d="M23.25,0 C10.811,0 0.5,10.087 0.5,22.526 L0.5,51.723 C0.5,54.78725 2.94825,57.03425 5.09375,57.03425 L42.3775,57.03425 C44.523,57.03425 46,54.78725 46,51.723 L46,22.526 C46,10.087 35.689,0 23.25,0 Z"/>
    <path fill="#F2BDF4" d="M41.15075,55.1355 C43.29625,55.1355 43.89825,52.6172178 43.89825,49.7944539 L43.89825,22.8924034 C43.89825,11.4314436 34.0265,2.1355 21.58575,2.1355 C21.12725,2.1355 20.8945,2.17587326 20.44125,2.19942433 C20.149,2.42988837 20.044,2.89754532 19.946,3.16501819 C19.946,3.16501819 32.1365,36.7774412 14.5,55.1355 L41.15075,55.1355 Z"/>
    <path fill="#151444" d="M43.75,72.9439655 C43.75,74.0788966 34.8514828,75 23.875,75 C12.8985172,75 4,74.0788966 4,72.9439655 C4,71.8090345 12.8985172,70.887931 23.875,70.887931 C34.8514828,70.887931 43.75,71.8090345 43.75,72.9439655" opacity=".3"/>
    <path fill="#F2B58C" d="M18,57 L18,67.06375 C18,69.435 20.98375,71.35825 23.25,71.35825 C25.51625,71.35825 28.5,69.435 28.5,67.06375 L28.5,57 C28.5,55.3431458 27.1568542,54 25.5,54 L21,54 C19.3431458,54 18,55.3431458 18,57 Z"/>
    <path stroke="#45413C" d="M18,57 L18,67.06375 C18,69.435 20.98375,71.35825 23.25,71.35825 C25.51625,71.35825 28.5,69.435 28.5,67.06375 L28.5,57 C28.5,55.3431458 27.1568542,54 25.5,54 L21,54 C19.3431458,54 18,55.3431458 18,57 Z"/>
    <path fill="#E2A67D" d="M19,58.5 C19,56.5670034 20.5670034,55 22.5,55 L24.25,55 C26.1829966,55 27.75,56.5670034 27.75,58.5 L19,58.5 Z M13.23475,11.83 L13.23475,13.82325 C13.23475,14.924 12.34225,15.81475 11.2415,15.81475 C10.14075,15.81475 9.25,14.924 9.25,13.82325 L9.25,10.5 L13.23475,11.83 Z"/>
    <path stroke="#45413C" stroke-linecap="round" stroke-linejoin="round" stroke-width=".6" d="M41.23475 47.25L41.23475 50.56975C41.23475 51.6705 40.34225 52.563 39.2415 52.563 38.14075 52.563 37.25 51.6705 37.25 50.56975L37.25 49.24325M36.557 49L36.557 53.088C36.557 53.86325 35.92875 54.49325 35.1535 54.49325 34.37825 54.49325 33.75 53.86325 33.75 53.088L33.75 52.1535"/>
    <path fill="#FFC48F" d="M36.543 31.1115C36.543 31.864 35.52625 32.47475 34.2715 32.47475 33.01675 32.47475 32 31.864 32 31.1115 32 30.359 33.01675 29.75 34.2715 29.75 35.52625 29.75 36.543 30.359 36.543 31.1115M9.25 31.1115C9.25 31.864 10.2685 32.47475 11.5215 32.47475 12.77625 32.47475 13.793 31.864 13.793 31.1115 13.793 30.359 12.77625 29.75 11.5215 29.75 10.2685 29.75 9.25 30.359 9.25 31.1115"/>
    <path stroke="#45413C" stroke-linecap="round" stroke-linejoin="round" stroke-width="2" d="M9.25 27.839C9.25 26.96225 9.9605 26.25 10.84075 26.25 11.71925 26.25 12.42975 26.96225 12.42975 27.839M32 27.839C32 26.96225 32.71225 26.25 33.589 26.25 34.4675 26.25 35.17975 26.96225 35.17975 27.839"/>
    <path fill="#FFF" d="M44.0925,40.08725 L48.59,38.5875 C48.7615,38.52975 48.877,38.36875 48.877,38.1885 C48.877,38.0065 48.7615,37.8455 48.59,37.78775 L44.894,36.554 C44.38825,36.386 43.99275,35.9905 43.82475,35.4865 L42.59275,31.787 C42.53325,31.61725 42.37225,31.5 42.19025,31.5 C42.01,31.5 41.84725,31.61725 41.79125,31.787 L40.5575,35.483 C40.38775,35.9905 39.994,36.386 39.49,36.554 L35.78875,37.78775 C35.61725,37.8455 35.5,38.0065 35.5,38.1885 C35.5,38.36875 35.61725,38.52975 35.78875,38.5875 L39.49,39.82125 C39.994,39.98925 40.38775,40.38475 40.5575,40.8905 L41.79125,44.59 C41.84725,44.75975 42.01,44.87875 42.19025,44.87875 C42.37225,44.87875 42.53325,44.75975 42.59275,44.59 L44.0925,40.08725 Z"/>
    <path stroke="#45413C" stroke-linecap="round" stroke-linejoin="round" stroke-width=".8" d="M44.0925,40.08725 L48.59,38.5875 C48.7615,38.52975 48.877,38.36875 48.877,38.1885 C48.877,38.0065 48.7615,37.8455 48.59,37.78775 L44.894,36.554 C44.38825,36.386 43.99275,35.9905 43.82475,35.4865 L42.59275,31.787 C42.53325,31.61725 42.37225,31.5 42.19025,31.5 C42.01,31.5 41.84725,31.61725 41.79125,31.787 L40.5575,35.483 C40.38775,35.9905 39.994,36.386 39.49,36.554 L35.78875,37.78775 C35.61725,37.8455 35.5,38.0065 35.5,38.1885 C35.5,38.36875 35.61725,38.52975 35.78875,38.5875 L39.49,39.82125 C39.994,39.98925 40.38775,40.38475 40.5575,40.8905 L41.79125,44.59 C41.84725,44.75975 42.01,44.87875 42.19025,44.87875 C42.37225,44.87875 42.53325,44.75975 42.59275,44.59 L44.0925,40.08725 Z"/>
    <path fill="#FFF" d="M23.5849303,41.9284064 C31.9464303,41.9284064 33.0611803,38.4389064 32.5746803,35.5829064 C32.2789303,33.8591564 30.2594303,32.7969064 28.4289303,33.4391564 C27.0429303,33.9221564 25.3786803,34.2056564 23.5849303,34.2056564 C21.7911803,34.2056564 20.1269303,33.9221564 18.7409303,33.4391564 C16.9104303,32.7969064 14.8891803,33.8591564 14.5969303,35.5829064 C14.1086803,38.4389064 15.2234303,41.9284064 23.5849303,41.9284064"/>
    <path stroke="#45413C" stroke-linecap="round" stroke-linejoin="round" stroke-width=".7" d="M23.5849303,41.9284064 C31.9464303,41.9284064 33.0611803,38.4389064 32.5746803,35.5829064 C32.2789303,33.8591564 30.2594303,32.7969064 28.4289303,33.4391564 C27.0429303,33.9221564 25.3786803,34.2056564 23.5849303,34.2056564 C21.7911803,34.2056564 20.1269303,33.9221564 18.7409303,33.4391564 C16.9104303,32.7969064 14.8891803,33.8591564 14.5969303,35.5829064 C14.1086803,38.4389064 15.2234303,41.9284064 23.5849303,41.9284064 Z"/>
    <path stroke="#45413C" stroke-linecap="round" stroke-linejoin="round" stroke-width=".7" d="M32.637,36.75 C31.71475,37.18925 30.355,37.66175 28.4545,37.98025 C27.1105,38.20775 25.50575,38.35825 23.5685,38.35825 C21.63125,38.35825 20.02475,38.20775 18.68075,37.98025 C16.78025,37.66175 15.4205,37.18925 14.5,36.75"/>
    <polyline stroke="#45413C" stroke-linecap="round" stroke-linejoin="round" stroke-width=".7" points="19.167 34.25 18.574 37.595 18 40.828"/>
    <path stroke="#45413C" stroke-linecap="round" stroke-linejoin="round" stroke-width=".7" d="M23.25,41.97275 L23.25,34.25"/>
    <polyline stroke="#45413C" stroke-linecap="round" stroke-linejoin="round" stroke-width=".7" points="26.75 34.25 27.343 37.595 27.917 40.828"/>
  </g>
</svg>
