<svg xmlns="http://www.w3.org/2000/svg" width="48" height="77" viewBox="0 0 48 77">
  <g fill="none" fill-rule="evenodd" transform="translate(0 1)">
    <path fill="#151444" d="M47.75,73.2198276 C47.75,74.5831724 37.0605862,75.6896552 23.875,75.6896552 C10.6894138,75.6896552 0,74.5831724 0,73.2198276 C0,71.8564828 10.6894138,70.75 23.875,70.75 C37.0605862,70.75 47.75,71.8564828 47.75,73.2198276" opacity=".3"/>
    <path fill="#FEE6FF" d="M23.25,0 C10.811,0 0.5,10.087 0.5,22.526 L0.5,51.723 C0.5,54.78725 2.94825,57.03425 5.09375,57.03425 L42.3775,57.03425 C44.523,57.03425 46,54.78725 46,51.723 L46,22.526 C46,10.087 35.689,0 23.25,0"/>
    <path stroke="#45413C" stroke-linecap="round" stroke-linejoin="round" d="M23.25,0 C10.811,0 0.5,10.087 0.5,22.526 L0.5,51.723 C0.5,54.78725 2.94825,57.03425 5.09375,57.03425 L42.3775,57.03425 C44.523,57.03425 46,54.78725 46,51.723 L46,22.526 C46,10.087 35.689,0 23.25,0 Z"/>
    <path fill="#F2BDF4" d="M41.15075,55.1355 C43.29625,55.1355 43.89825,52.6172178 43.89825,49.7944539 L43.89825,22.8924034 C43.89825,11.4314436 34.0265,2.1355 21.58575,2.1355 C21.12725,2.1355 20.8945,2.17587326 20.44125,2.19942433 C20.149,2.42988837 20.044,2.89754532 19.946,3.16501819 C19.946,3.16501819 32.1365,36.7774412 14.5,55.1355 L41.15075,55.1355 Z"/>
    <path fill="#F2B58C" d="M18,57.75 L18,67.81375 C18,70.185 20.98375,72.10825 23.25,72.10825 C25.51625,72.10825 28.5,70.185 28.5,67.81375 L28.5,57.75 C28.5,56.0931458 27.1568542,54.75 25.5,54.75 L21,54.75 C19.3431458,54.75 18,56.0931458 18,57.75 Z"/>
    <path stroke="#45413C" d="M18,57.75 L18,67.81375 C18,70.185 20.98375,72.10825 23.25,72.10825 C25.51625,72.10825 28.5,70.185 28.5,67.81375 L28.5,57.75 C28.5,56.0931458 27.1568542,54.75 25.5,54.75 L21,54.75 C19.3431458,54.75 18,56.0931458 18,57.75 Z"/>
    <path fill="#E2A67D" d="M19,59.25 L27.75,59.25 L27.75,59.25 C27.75,57.3170034 26.1829966,55.75 24.25,55.75 L22.5,55.75 C20.5670034,55.75 19,57.3170034 19,59.25 Z"/>
    <path stroke="#45413C" stroke-linecap="round" stroke-linejoin="round" stroke-width=".6" d="M13.23475 11.83L13.23475 13.82325C13.23475 14.924 12.34225 15.81475 11.2415 15.81475 10.14075 15.81475 9.25 14.924 9.25 13.82325L9.25 10.5M41.23475 47.25L41.23475 50.56975C41.23475 51.6705 40.34225 52.563 39.2415 52.563 38.14075 52.563 37.25 51.6705 37.25 50.56975L37.25 49.24325M36.557 49L36.557 53.088C36.557 53.86325 35.92875 54.49325 35.1535 54.49325 34.37825 54.49325 33.75 53.86325 33.75 53.088L33.75 52.1535"/>
    <path fill="#FFC48F" d="M36.7565 31.178C36.7565 31.96375 35.6925 32.6025 34.37825 32.6025 33.064 32.6025 32 31.96375 32 31.178 32 30.38875 33.064 29.75 34.37825 29.75 35.6925 29.75 36.7565 30.38875 36.7565 31.178M9.25 31.178C9.25 31.96375 10.314 32.6025 11.62825 32.6025 12.94075 32.6025 14.00475 31.96375 14.00475 31.178 14.00475 30.38875 12.94075 29.75 11.62825 29.75 10.314 29.75 9.25 30.38875 9.25 31.178"/>
    <path stroke="#45413C" stroke-linecap="round" stroke-linejoin="round" stroke-width="2" d="M37.0785 24.5C37.0785 25.41875 36.333 26.16425 35.41425 26.16425 34.49375 26.16425 33.75 25.41875 33.75 24.5M12.5785 24.5C12.5785 25.41875 11.833 26.16425 10.9125 26.16425 9.99375 26.16425 9.25 25.41875 9.25 24.5"/>
    <path fill="#FFB0CA" d="M17.1477402,33.25 C16.8869902,33.25 16.6367402,33.36375 16.4669902,33.56325 C16.2972402,33.761 16.2202402,34.0235 16.2604902,34.2825 C16.7574902,37.50775 19.5452402,39.90875 22.9087402,39.90875 C26.2722402,39.90875 29.0599902,37.50775 29.5569902,34.2825 C29.5972402,34.0235 29.5237402,33.761 29.3522402,33.56325 C29.1807402,33.362 28.9322402,33.25 28.6697402,33.25 L17.1477402,33.25 Z"/>
    <path stroke="#45413C" stroke-linecap="round" stroke-linejoin="round" stroke-width=".8" d="M16.3116956,33.25 C16.0033245,33.25 15.7073711,33.36375 15.5066194,33.56325 C15.3058678,33.761 15.2148052,34.0235 15.2624061,34.2825 C15.8501738,37.50775 19.147054,39.90875 23.1248342,39.90875 C27.1026144,39.90875 30.3994946,37.50775 30.9872624,34.2825 C31.0348633,34.0235 30.9479399,33.761 30.7451186,33.56325 C30.5422974,33.362 30.2484135,33.25 29.9379728,33.25 L16.3116956,33.25 Z"/>
    <path fill="#FF87AF" d="M28.605,37.99775 C27.289,37.233 25.4025,36.75 23.3025,36.75 C21.2025,36.75 19.316,37.233 18,37.99775 C19.23025,39.57625 21.1465,40.5265 23.3025,40.5265 C25.4585,40.5265 27.37475,39.57625 28.605,37.99775"/>
    <path stroke="#45413C" stroke-linecap="round" stroke-linejoin="round" stroke-width=".8" d="M28.605,37.99775 C27.289,37.233 25.4025,36.75 23.3025,36.75 C21.2025,36.75 19.316,37.233 18,37.99775 C19.23025,39.57625 21.1465,40.5265 23.3025,40.5265 C25.4585,40.5265 27.37475,39.57625 28.605,37.99775 Z"/>
  </g>
</svg>
