<svg xmlns="http://www.w3.org/2000/svg" width="48" height="76" viewBox="0 0 48 76">
  <g fill="none" fill-rule="evenodd" transform="translate(0 1)">
    <path fill="#FEE6FF" d="M23.25,0 C10.811,0 0.5,10.087 0.5,22.526 L0.5,51.723 C0.5,54.78725 2.94825,57.03425 5.09375,57.03425 L42.3775,57.03425 C44.523,57.03425 46,54.78725 46,51.723 L46,22.526 C46,10.087 35.689,0 23.25,0"/>
    <path stroke="#45413C" stroke-linecap="round" stroke-linejoin="round" d="M23.25,0 C10.811,0 0.5,10.087 0.5,22.526 L0.5,51.723 C0.5,54.78725 2.94825,57.03425 5.09375,57.03425 L42.3775,57.03425 C44.523,57.03425 46,54.78725 46,51.723 L46,22.526 C46,10.087 35.689,0 23.25,0 Z"/>
    <path fill="#F2BDF4" d="M41.15075,55.1355 C43.29625,55.1355 43.89825,52.6172178 43.89825,49.7944539 L43.89825,22.8924034 C43.89825,11.4314436 34.0265,2.1355 21.58575,2.1355 C21.12725,2.1355 20.8945,2.17587326 20.44125,2.19942433 C20.149,2.42988837 20.044,2.89754532 19.946,3.16501819 C19.946,3.16501819 32.1365,36.7774412 14.5,55.1355 L41.15075,55.1355 Z"/>
    <path fill="#151444" d="M47.75,72.5301724 C47.75,73.8935172 37.0605862,75 23.875,75 C10.6894138,75 0,73.8935172 0,72.5301724 C0,71.1668276 10.6894138,70.0603448 23.875,70.0603448 C37.0605862,70.0603448 47.75,71.1668276 47.75,72.5301724" opacity=".3"/>
    <path fill="#F2B58C" d="M18,57.0603448 L18,67.1240948 C18,69.4953448 20.98375,71.4185948 23.25,71.4185948 C25.51625,71.4185948 28.5,69.4953448 28.5,67.1240948 L28.5,57.0603448 C28.5,55.4034906 27.1568542,54.0603448 25.5,54.0603448 L21,54.0603448 C19.3431458,54.0603448 18,55.4034906 18,57.0603448 Z"/>
    <path stroke="#45413C" d="M18,57.0603448 L18,67.1240948 C18,69.4953448 20.98375,71.4185948 23.25,71.4185948 C25.51625,71.4185948 28.5,69.4953448 28.5,67.1240948 L28.5,57.0603448 C28.5,55.4034906 27.1568542,54.0603448 25.5,54.0603448 L21,54.0603448 C19.3431458,54.0603448 18,55.4034906 18,57.0603448 Z"/>
    <path fill="#E2A67D" d="M19,58.5603448 L27.75,58.5603448 L27.75,58.5603448 C27.75,56.6273482 26.1829966,55.0603448 24.25,55.0603448 L22.5,55.0603448 C20.5670034,55.0603448 19,56.6273482 19,58.5603448 Z"/>
    <path fill="#FFC48F" d="M34.67225 32.82475C34.67225 33.558 33.68175 34.153 32.462 34.153 31.23875 34.153 30.25 33.558 30.25 32.82475 30.25 32.09325 31.23875 31.5 32.462 31.5 33.68175 31.5 34.67225 32.09325 34.67225 32.82475M9.25 32.82475C9.25 33.558 10.2405 34.153 11.462 34.153 12.6835 34.153 13.67225 33.558 13.67225 32.82475 13.67225 32.09325 12.6835 31.5 11.462 31.5 10.2405 31.5 9.25 32.09325 9.25 32.82475"/>
    <path fill="#FFB0CA" d="M17.0828561,35 C16.8396061,35 16.6086061,35.1085 16.4511061,35.2905 C16.2918561,35.47425 16.2218561,35.71925 16.2603561,35.9625 C16.7206061,38.96025 19.3106061,41.1915 22.4413561,41.1915 C25.5686061,41.1915 28.1603561,38.96025 28.6241061,35.9625 C28.6591061,35.71925 28.5891061,35.47425 28.4298561,35.2905 C28.2723561,35.1085 28.0396061,35 27.7963561,35 L17.0828561,35 Z"/>
    <path stroke="#45413C" stroke-linecap="round" stroke-linejoin="round" stroke-width=".8" d="M16.1916176,35 C15.9166019,35 15.655436,35.1085 15.4773683,35.2905 C15.297322,35.47425 15.2181808,35.71925 15.2617085,35.9625 C15.7820619,38.96025 18.7102864,41.1915 22.2498766,41.1915 C25.7855098,41.1915 28.7157129,38.96025 29.2400233,35.9625 C29.2795939,35.71925 29.2004527,35.47425 29.0204065,35.2905 C28.8423388,35.1085 28.5791943,35 28.3041786,35 L16.1916176,35 Z"/>
    <path fill="#FF87AF" d="M27.8595,39.6585 C26.6345,38.94975 24.88275,38.5 22.92975,38.5 C20.975,38.5 19.22325,38.94975 18,39.6585 C19.1445,41.12675 20.92425,42.0105 22.92975,42.0105 C24.93525,42.0105 26.715,41.12675 27.8595,39.6585"/>
    <path stroke="#45413C" stroke-linecap="round" stroke-linejoin="round" stroke-width=".8" d="M27.8595,39.6585 C26.6345,38.94975 24.88275,38.5 22.92975,38.5 C20.975,38.5 19.22325,38.94975 18,39.6585 C19.1445,41.12675 20.92425,42.0105 22.92975,42.0105 C24.93525,42.0105 26.715,41.12675 27.8595,39.6585 Z"/>
    <path stroke="#45413C" stroke-linecap="round" stroke-linejoin="round" stroke-width="2" d="M33.5798125 26.25L30.7395625 27.66925C30.0868125 27.9965 30.0868125 28.9275 30.7395625 29.25475L33.5798125 30.67225M11 26.25L13.84025 27.66925C14.493 27.9965 14.493 28.9275 13.84025 29.25475L11 30.67225"/>
    <path stroke="#45413C" stroke-linecap="round" stroke-linejoin="round" stroke-width=".6" d="M13.23475 11.83L13.23475 13.82325C13.23475 14.924 12.34225 15.81475 11.2415 15.81475 10.14075 15.81475 9.25 14.924 9.25 13.82325L9.25 10.5M41.23475 47.25L41.23475 50.56975C41.23475 51.6705 40.34225 52.563 39.2415 52.563 38.14075 52.563 37.25 51.6705 37.25 50.56975L37.25 49.24325M36.557 49L36.557 53.088C36.557 53.86325 35.92875 54.49325 35.1535 54.49325 34.37825 54.49325 33.75 53.86325 33.75 53.088L33.75 52.1535"/>
  </g>
</svg>
