<svg xmlns="http://www.w3.org/2000/svg" width="55" height="78" viewBox="0 0 55 78">
  <g fill="none" fill-rule="evenodd" transform="translate(1 1)">
    <path fill="#151444" d="M51.3333333,74.4333333 C51.3333333,75.8501333 40.2248,77 26.5222222,77 C12.8196444,77 1.71111111,75.8501333 1.71111111,74.4333333 C1.71111111,73.0165333 12.8196444,71.8666667 26.5222222,71.8666667 C40.2248,71.8666667 51.3333333,73.0165333 51.3333333,74.4333333" opacity=".3"/>
    <path fill="#AF7561" d="M53.0444444,65.0393333 C53.0444444,67.8643778 50.7532667,70.1555556 47.9282222,70.1555556 L5.11622222,70.1555556 C2.29117778,70.1555556 0,67.8643778 0,65.0393333 L0,5.11622222 C0,2.29117778 2.29117778,0 5.11622222,0 L47.9282222,0 C50.7532667,0 53.0444444,2.29117778 53.0444444,5.11622222 L53.0444444,65.0393333 Z"/>
    <path stroke="#44403C" d="M53.0444444,65.0393333 C53.0444444,67.8643778 50.7532667,70.1555556 47.9282222,70.1555556 L5.11622222,70.1555556 C2.29117778,70.1555556 0,67.8643778 0,65.0393333 L0,5.11622222 C0,2.29117778 2.29117778,0 5.11622222,0 L47.9282222,0 C50.7532667,0 53.0444444,2.29117778 53.0444444,5.11622222 L53.0444444,65.0393333 Z"/>
    <polygon fill="#A56B5B" points="37.644 70.156 41.067 70.156 41.067 1.711 37.644 1.711"/>
    <polygon fill="#A56B5B" points="23.956 70.156 27.378 70.156 27.378 1.711 23.956 1.711"/>
    <polygon fill="#A56B5B" points="11.978 70.156 15.4 70.156 15.4 1.711 11.978 1.711"/>
    <polygon fill="#A56B5B" points="0 27.378 51.333 27.378 51.333 23.956 0 23.956"/>
    <polygon fill="#A56B5B" points="0 51.333 51.333 51.333 51.333 47.911 0 47.911"/>
    <path fill="#C385FF" d="M53.0444444,5.13333333 L53.0444444,65.0564444 C53.0444444,67.8814889 50.7532667,70.1726667 47.9282222,70.1726667 L5.11622222,70.1726667 C2.29117778,70.1726667 0,67.8814889 0,65.0564444 L0,11.1393333 C0,11.1393333 24.5065333,13.4219556 36.9120889,20.6941778 C36.9120889,20.6941778 42.35,9.41111111 53.0444444,5.13333333"/>
    <path stroke="#44403C" d="M53.0444444,5.13333333 L53.0444444,65.0564444 C53.0444444,67.8814889 50.7532667,70.1726667 47.9282222,70.1726667 L5.11622222,70.1726667 C2.29117778,70.1726667 0,67.8814889 0,65.0564444 L0,11.1393333 C0,11.1393333 24.5065333,13.4219556 36.9120889,20.6941778 C36.9120889,20.6941778 42.35,9.41111111 53.0444444,5.13333333 Z"/>
    <path fill="#9F4DFF" d="M1,60.9884222 C4.696,61.3409111 33.1637556,63.5003333 52.3333333,48.6222222 L52.3333333,65.7333333 C52.3333333,65.7333333 51.3699778,68.8355778 48.6441778,69.1555556 L4.42222222,69.1555556 C4.42222222,69.1555556 1.26693333,68.4078 1,64.9855778"/>
    <path fill="#C9A4FF" d="M0,12.1163778 C0,12.1163778 44.9166667,8.98333333 52.1888889,5.13333333 C52.1888889,5.13333333 41.7425556,12.8333333 36.0565333,24.9548444 C36.0565333,24.9548444 13.6888889,13.1533111 0,12.1163778"/>
    <path stroke="#44403C" d="M0,12.1163778 C0,12.1163778 44.9166667,8.98333333 52.1888889,5.13333333 C52.1888889,5.13333333 41.7425556,12.8333333 36.0565333,24.9548444 C36.0565333,24.9548444 13.6888889,13.1533111 0,12.1163778 Z"/>
    <path fill="#FFAA54" d="M41.272 37.5349333C41.272 38.4195778 40.0776444 39.1365333 38.6026667 39.1365333 37.1276889 39.1365333 35.9333333 38.4195778 35.9333333 37.5349333 35.9333333 36.6502889 37.1276889 35.9333333 38.6026667 35.9333333 40.0776444 35.9333333 41.272 36.6502889 41.272 37.5349333M11.9777778 37.5349333C11.9777778 38.4195778 13.1721333 39.1365333 14.6471111 39.1365333 16.1220889 39.1365333 17.3164444 38.4195778 17.3164444 37.5349333 17.3164444 36.6502889 16.1220889 35.9333333 14.6471111 35.9333333 13.1721333 35.9333333 11.9777778 36.6502889 11.9777778 37.5349333"/>
    <path stroke="#45413C" stroke-linecap="round" stroke-linejoin="round" stroke-width="2" d="M11.9777778 32.6685333C11.9777778 31.6350222 12.8145111 30.8 13.8463111 30.8 14.8781111 30.8 15.7148444 31.6350222 15.7148444 32.6685333M35.9333333 32.6685333C35.9333333 31.6350222 36.7700667 30.8 37.8018667 30.8 38.8353778 30.8 39.6704 31.6350222 39.6704 32.6685333M17.1111111 40.3572667C19.3595111 42.3455778 22.3077556 43.5587556 25.5468889 43.5587556 28.7877333 43.5587556 31.7359778 42.3438667 33.9860889 40.3555556"/>
    <path fill="#FF6242" d="M33.0415556,41.0666667 C30.9659778,42.5673111 28.4232667,43.4605111 25.6666667,43.4793333 C28.8510444,46.1452444 28.0382667,50.1578 31.2534444,49.7710889 C35.6561333,49.2372222 34.8998222,43.5255333 33.0415556,41.0666667"/>
    <path fill="#FF866E" d="M31.1182667,49.6667111 C34.8878444,48.7307333 34.1195556,43.4143111 32.3434222,41.0666667 C31.8557556,41.4208667 31.339,41.7374222 30.8,42.0214667 C31.9464444,44.1312667 32.4803111,47.7297333 31.1182667,49.6667111"/>
    <path stroke="#45413C" stroke-linecap="round" stroke-linejoin="round" stroke-width=".8" d="M33.0415556,41.0666667 C30.9659778,42.5673111 28.4232667,43.4605111 25.6666667,43.4793333 C28.8510444,46.1452444 28.0382667,50.1578 31.2534444,49.7710889 C35.6561333,49.2372222 34.8998222,43.5255333 33.0415556,41.0666667 Z"/>
  </g>
</svg>
