<svg xmlns="http://www.w3.org/2000/svg" width="55" height="78" viewBox="0 0 55 78">
  <g fill="none" fill-rule="evenodd" transform="translate(1 1)">
    <path fill="#151444" d="M51.3333333,74.4333333 C51.3333333,75.8501333 40.2248,77 26.5222222,77 C12.8196444,77 1.71111111,75.8501333 1.71111111,74.4333333 C1.71111111,73.0165333 12.8196444,71.8666667 26.5222222,71.8666667 C40.2248,71.8666667 51.3333333,73.0165333 51.3333333,74.4333333" opacity=".3"/>
    <path fill="#AF7561" d="M53.0444444,65.0393333 C53.0444444,67.8643778 50.7532667,70.1555556 47.9282222,70.1555556 L5.11622222,70.1555556 C2.29117778,70.1555556 0,67.8643778 0,65.0393333 L0,5.11622222 C0,2.29117778 2.29117778,0 5.11622222,0 L47.9282222,0 C50.7532667,0 53.0444444,2.29117778 53.0444444,5.11622222 L53.0444444,65.0393333 Z"/>
    <path stroke="#44403C" d="M53.0444444,65.0393333 C53.0444444,67.8643778 50.7532667,70.1555556 47.9282222,70.1555556 L5.11622222,70.1555556 C2.29117778,70.1555556 0,67.8643778 0,65.0393333 L0,5.11622222 C0,2.29117778 2.29117778,0 5.11622222,0 L47.9282222,0 C50.7532667,0 53.0444444,2.29117778 53.0444444,5.11622222 L53.0444444,65.0393333 Z"/>
    <polygon fill="#A56B5B" points="37.644 70.156 41.067 70.156 41.067 1.711 37.644 1.711"/>
    <polygon fill="#A56B5B" points="23.956 70.156 27.378 70.156 27.378 1.711 23.956 1.711"/>
    <polygon fill="#A56B5B" points="11.978 70.156 15.4 70.156 15.4 1.711 11.978 1.711"/>
    <polygon fill="#A56B5B" points="0 27.378 51.333 27.378 51.333 23.956 0 23.956"/>
    <polygon fill="#A56B5B" points="0 51.333 51.333 51.333 51.333 47.911 0 47.911"/>
    <path fill="#9E4FEB" d="M53.0444444,5.13333333 L53.0444444,65.0564444 C53.0444444,67.8814889 50.7532667,70.1726667 47.9282222,70.1726667 L5.11622222,70.1726667 C2.29117778,70.1726667 0,67.8814889 0,65.0564444 L0,11.1393333 C0,11.1393333 24.5065333,13.4219556 36.9120889,20.6941778 C36.9120889,20.6941778 42.35,9.41111111 53.0444444,5.13333333"/>
    <path stroke="#44403C" d="M53.0444444,5.13333333 L53.0444444,65.0564444 C53.0444444,67.8814889 50.7532667,70.1726667 47.9282222,70.1726667 L5.11622222,70.1726667 C2.29117778,70.1726667 0,67.8814889 0,65.0564444 L0,11.1393333 C0,11.1393333 24.5065333,13.4219556 36.9120889,20.6941778 C36.9120889,20.6941778 42.35,9.41111111 53.0444444,5.13333333 Z"/>
    <path fill="#9F4DFF" d="M1,60.9884222 C4.696,61.3409111 33.1637556,63.5003333 52.3333333,48.6222222 L52.3333333,65.7333333 C52.3333333,65.7333333 51.3699778,68.8355778 48.6441778,69.1555556 L4.42222222,69.1555556 C4.42222222,69.1555556 1.26693333,68.4078 1,64.9855778"/>
    <path fill="#C9A4FF" d="M0,12.1163778 C0,12.1163778 44.9166667,8.98333333 52.1888889,5.13333333 C52.1888889,5.13333333 41.7425556,12.8333333 36.0565333,24.9548444 C36.0565333,24.9548444 13.6888889,13.1533111 0,12.1163778"/>
    <path stroke="#44403C" d="M0,12.1163778 C0,12.1163778 44.9166667,8.98333333 52.1888889,5.13333333 C52.1888889,5.13333333 41.7425556,12.8333333 36.0565333,24.9548444 C36.0565333,24.9548444 13.6888889,13.1533111 0,12.1163778 Z"/>
    <path fill="#FFAA54" d="M38.7173111 38.9945111C38.7173111 39.7405556 37.7111778 40.3411556 36.4689111 40.3411556 35.2266444 40.3411556 34.2222222 39.7405556 34.2222222 38.9945111 34.2222222 38.2484667 35.2266444 37.6444444 36.4689111 37.6444444 37.7111778 37.6444444 38.7173111 38.2484667 38.7173111 38.9945111M13.6888889 38.9945111C13.6888889 39.7405556 14.6950222 40.3411556 15.9372889 40.3411556 17.1795556 40.3411556 18.1856889 39.7405556 18.1856889 38.9945111 18.1856889 38.2484667 17.1795556 37.6444444 15.9372889 37.6444444 14.6950222 37.6444444 13.6888889 38.2484667 13.6888889 38.9945111"/>
    <path stroke="#45413C" stroke-linecap="round" stroke-linejoin="round" stroke-width="2" d="M37.6085111 30.8L34.7201556 32.2441778C34.0562444 32.5744222 34.0562444 33.5206667 34.7201556 33.8509111L37.6085111 35.2950889M15.4 30.8L18.2883556 32.2441778C18.9522667 32.5744222 18.9522667 33.5206667 18.2883556 33.8509111L15.4 35.2950889"/>
    <path fill="#FFB0CA" d="M19.769338,41.0666667 C19.4938492,41.0666667 19.2320492,41.1864444 19.0506714,41.3934889 C18.8727158,41.6039556 18.7905825,41.8828667 18.8333603,42.1566444 C19.3586714,45.5583333 22.3000714,48.0907778 25.8506269,48.0907778 C29.3994714,48.0907778 32.3408714,45.5583333 32.8644714,42.1566444 C32.9072492,41.8828667 32.828538,41.6039556 32.6471603,41.3934889 C32.4674936,41.1830222 32.2056936,41.0666667 31.9284936,41.0666667 L19.769338,41.0666667 Z"/>
    <path stroke="#45413C" stroke-linecap="round" stroke-linejoin="round" d="M19.769338,41.0666667 C19.4938492,41.0666667 19.2320492,41.1864444 19.0506714,41.3934889 C18.8727158,41.6039556 18.7905825,41.8828667 18.8333603,42.1566444 C19.3586714,45.5583333 22.3000714,48.0907778 25.8506269,48.0907778 C29.3994714,48.0907778 32.3408714,45.5583333 32.8644714,42.1566444 C32.9072492,41.8828667 32.828538,41.6039556 32.6471603,41.3934889 C32.4674936,41.1830222 32.2056936,41.0666667 31.9284936,41.0666667 L19.769338,41.0666667 Z"/>
    <path fill="#FF87AF" d="M31.7222889,45.0953333 C30.3328667,44.2894 28.3445556,43.7777778 26.1286667,43.7777778 C23.9110667,43.7777778 21.9210444,44.2894 20.5333333,45.0953333 C21.8320667,46.7636667 23.8528889,47.7663778 26.1286667,47.7663778 C28.4027333,47.7663778 30.4235556,46.7636667 31.7222889,45.0953333"/>
  </g>
</svg>
