<svg xmlns="http://www.w3.org/2000/svg" width="55" height="78" viewBox="0 0 55 78">
  <g fill="none" fill-rule="evenodd" transform="translate(1 1)">
    <path fill="#151444" d="M51.3333333,74.4333333 C51.3333333,75.8501333 40.2248,77 26.5222222,77 C12.8196444,77 1.71111111,75.8501333 1.71111111,74.4333333 C1.71111111,73.0165333 12.8196444,71.8666667 26.5222222,71.8666667 C40.2248,71.8666667 51.3333333,73.0165333 51.3333333,74.4333333" opacity=".3"/>
    <path fill="#AF7561" d="M53.0444444,65.0393333 C53.0444444,67.8643778 50.7532667,70.1555556 47.9282222,70.1555556 L5.11622222,70.1555556 C2.29117778,70.1555556 0,67.8643778 0,65.0393333 L0,5.11622222 C0,2.29117778 2.29117778,0 5.11622222,0 L47.9282222,0 C50.7532667,0 53.0444444,2.29117778 53.0444444,5.11622222 L53.0444444,65.0393333 Z"/>
    <path stroke="#44403C" d="M53.0444444,65.0393333 C53.0444444,67.8643778 50.7532667,70.1555556 47.9282222,70.1555556 L5.11622222,70.1555556 C2.29117778,70.1555556 0,67.8643778 0,65.0393333 L0,5.11622222 C0,2.29117778 2.29117778,0 5.11622222,0 L47.9282222,0 C50.7532667,0 53.0444444,2.29117778 53.0444444,5.11622222 L53.0444444,65.0393333 Z"/>
    <polygon fill="#A56B5B" points="39.41 70.156 43.375 70.156 43.375 1.711 39.41 1.711"/>
    <polygon fill="#A56B5B" points="24.539 70.156 28.505 70.156 28.505 1.711 24.539 1.711"/>
    <polygon fill="#A56B5B" points="9.669 70.156 13.634 70.156 13.634 1.711 9.669 1.711"/>
    <polygon fill="#A56B5B" points="0 27.378 51.333 27.378 51.333 23.956 0 23.956"/>
    <polygon fill="#A56B5B" points="0 51.333 51.333 51.333 51.333 47.911 0 47.911"/>
    <path fill="#C385FF" d="M53.0444444,5.13333333 L53.0444444,65.0564444 C53.0444444,67.8814889 50.7532667,70.1726667 47.9282222,70.1726667 L5.11622222,70.1726667 C2.29117778,70.1726667 0,67.8814889 0,65.0564444 L0,11.1393333 C0,11.1393333 24.5065333,13.4219556 36.9120889,20.6941778 C36.9120889,20.6941778 42.35,9.41111111 53.0444444,5.13333333"/>
    <path stroke="#44403C" d="M53.0444444,5.13333333 L53.0444444,65.0564444 C53.0444444,67.8814889 50.7532667,70.1726667 47.9282222,70.1726667 L5.11622222,70.1726667 C2.29117778,70.1726667 0,67.8814889 0,65.0564444 L0,11.1393333 C0,11.1393333 24.5065333,13.4219556 36.9120889,20.6941778 C36.9120889,20.6941778 42.35,9.41111111 53.0444444,5.13333333 Z"/>
    <path fill="#FFAA54" d="M39.2426222 37.4425333C39.2426222 38.2707111 38.1184222 38.9466 36.7324222 38.9466 35.3464222 38.9466 34.2222222 38.2707111 34.2222222 37.4425333 34.2222222 36.6092222 35.3464222 35.9333333 36.7324222 35.9333333 38.1184222 35.9333333 39.2426222 36.6092222 39.2426222 37.4425333M10.2666667 37.4425333C10.2666667 38.2707111 11.3908667 38.9466 12.7768667 38.9466 14.1611556 38.9466 15.2853556 38.2707111 15.2853556 37.4425333 15.2853556 36.6092222 14.1611556 35.9333333 12.7768667 35.9333333 11.3908667 35.9333333 10.2666667 36.6092222 10.2666667 37.4425333"/>
    <path stroke="#44403C" stroke-linecap="round" stroke-linejoin="round" stroke-width="2" d="M39.4462444 30.8C39.4462444 31.7736222 38.6608444 32.5556 37.6906444 32.5556 36.7187333 32.5556 35.9333333 31.7736222 35.9333333 30.8M13.7795778 30.8C13.7795778 31.7736222 12.9941778 32.5556 12.0222667 32.5556 11.0520667 32.5556 10.2666667 31.7736222 10.2666667 30.8"/>
    <path fill="#FFB0CA" d="M19.769338,41.0666667 C19.4938492,41.0666667 19.2320492,41.1864444 19.0506714,41.3952 C18.8727158,41.6056667 18.7905825,41.8845778 18.8333603,42.1566444 C19.3586714,45.5583333 22.3000714,48.0907778 25.8506269,48.0907778 C29.3994714,48.0907778 32.3408714,45.5583333 32.8644714,42.1566444 C32.9072492,41.8845778 32.828538,41.6056667 32.6471603,41.3952 C32.4674936,41.1847333 32.2056936,41.0666667 31.9284936,41.0666667 L19.769338,41.0666667 Z"/>
    <path stroke="#45413C" stroke-linecap="round" stroke-linejoin="round" d="M19.2830328,40.7857435 C18.985508,40.7857435 18.7027671,40.9151021 18.5068812,41.1405557 C18.3146913,41.3678572 18.2259883,41.6690779 18.2721878,41.9629067 C18.8395176,45.6366907 22.016195,48.3717009 25.8507532,48.3717009 C29.6834635,48.3717009 32.8601409,45.6366907 33.4256228,41.9629067 C33.4718223,41.6690779 33.3868152,41.3678572 33.1909293,41.1405557 C32.9968914,40.9132541 32.7141505,40.7857435 32.4147778,40.7857435 L19.2830328,40.7857435 Z"/>
    <path fill="#FF87AF" d="M31.7222889,45.0953333 C30.3328667,44.2876889 28.3445556,43.7777778 26.1286667,43.7777778 C23.9110667,43.7777778 21.9210444,44.2876889 20.5333333,45.0953333 C21.8320667,46.7636667 23.8528889,47.7646667 26.1286667,47.7646667 C28.4027333,47.7646667 30.4235556,46.7636667 31.7222889,45.0953333"/>
    <path fill="#9F4DFF" d="M1,60.9884222 C4.696,61.3409111 33.1637556,63.5003333 52.3333333,48.6222222 L52.3333333,65.7333333 C52.3333333,65.7333333 51.3699778,68.8355778 48.6441778,69.1555556 L4.42222222,69.1555556 C4.42222222,69.1555556 1.26693333,68.4078 1,64.9855778"/>
    <path fill="#C9A4FF" d="M0,12.1163778 C0,12.1163778 44.9166667,8.98333333 52.1888889,5.13333333 C52.1888889,5.13333333 41.7425556,12.8333333 36.0565333,24.9548444 C36.0565333,24.9548444 13.6888889,13.1533111 0,12.1163778"/>
    <path stroke="#44403C" d="M0,12.1163778 C0,12.1163778 44.9166667,8.98333333 52.1888889,5.13333333 C52.1888889,5.13333333 41.7425556,12.8333333 36.0565333,24.9548444 C36.0565333,24.9548444 13.6888889,13.1533111 0,12.1163778 Z"/>
  </g>
</svg>
