<svg xmlns="http://www.w3.org/2000/svg" width="65" height="77" viewBox="0 0 65 77">
  <g fill="none" fill-rule="evenodd" transform="translate(0 1)">
    <path fill="#151444" d="M57.8068089,72.45492 C57.8068089,73.87172 46.6982756,75.0215867 32.9956978,75.0215867 C19.29312,75.0215867 8.18458667,73.87172 8.18458667,72.45492 C8.18458667,71.03812 19.29312,69.8882533 32.9956978,69.8882533 C46.6982756,69.8882533 57.8068089,71.03812 57.8068089,72.45492" opacity=".3"/>
    <path fill="#FD0" d="M17.1128222,12.6144556 C17.1128222,12.6144556 5.38828889,16.1735667 4.25724444,25.9577 C2.92086667,37.5059889 11.2796444,63.1110556 13.4732889,65.0925222 C16.7894222,68.0818333 26.1149778,69.6184111 32.1825778,69.6184111 C38.2484667,69.6184111 47.5757333,68.0818333 50.8901556,65.0925222 C53.0838,63.1110556 61.4425778,37.5059889 60.1062,25.9577 C58.9751556,16.1735667 47.2506222,12.6144556 47.2506222,12.6144556 L17.1128222,12.6144556 Z"/>
    <path fill="#FFF" d="M47.2511356,12.6144556 L17.1133356,12.6144556 C17.1133356,12.6144556 5.38880222,16.1735667 4.25775778,25.9577 C4.17220222,26.6917667 4.12600222,27.4805889 4.11573556,28.3190333 C16.2817356,35.5211 39.9772022,40.8751667 60.2145133,30.2628556 C60.2846689,28.6886333 60.2538689,27.2359 60.1067133,25.9577 C58.9756689,16.1735667 47.2511356,12.6144556 47.2511356,12.6144556"/>
    <path fill="#FCB813" d="M21.6328933,12.6144556 L18.8232489,12.6144556 C18.8232489,12.6144556 7.09871556,16.1735667 5.96767111,25.9577 C4.63129333,37.5059889 12.9900711,63.1110556 15.1837156,65.0925222 C16.6672489,66.4271889 19.3468489,67.4743889 22.39776,68.2221444 C20.9758267,63.5234333 18.7856044,56.1331444 15.6268933,45.0622556 C9.68762667,24.2500111 13.23476,20.9373 21.6328933,12.6144556" opacity=".671"/>
    <path stroke="#45413C" stroke-linecap="round" stroke-linejoin="round" d="M17.1128222,12.6144556 C17.1128222,12.6144556 5.38828889,16.1735667 4.25724444,25.9577 C2.92086667,37.5059889 11.2796444,63.1110556 13.4732889,65.0925222 C16.7894222,68.0818333 26.1149778,69.6184111 32.1825778,69.6184111 C38.2484667,69.6184111 47.5757333,68.0818333 50.8901556,65.0925222 C53.0838,63.1110556 61.4425778,37.5059889 60.1062,25.9577 C58.9751556,16.1735667 47.2506222,12.6144556 47.2506222,12.6144556 L17.1128222,12.6144556 Z"/>
    <path fill="#F6921E" d="M37.5843844,20.6219422 C40.0945844,19.8604978 43.2550067,23.8422533 45.6402956,23.3614311 C49.0727844,22.6615867 49.5484733,19.8604978 51.8310956,19.4036311 C54.1120067,18.9467644 56.0832067,20.9350756 57.8952733,20.5860089 C57.9842511,20.57232 58.0698067,20.5483644 58.1553622,20.5244089 C55.9788289,17.1192978 52.51554,14.9598756 50.0772067,13.7740756 C49.1224067,14.8212756 49.0522511,16.4348533 47.3308733,17.0251867 C45.3442733,17.70792 43.0633622,14.5012978 40.9450067,14.9701422 C38.8266511,15.4424089 38.7975622,18.0912089 36.3848956,18.6729867 C33.97394,19.2530533 32.1824067,15.4235867 30.0897178,15.3944978 C27.6394067,15.3619867 28.2074956,18.0604089 24.6757622,17.8995644 C21.14574,17.7404311 21.9431178,15.4184533 19.9274289,14.8469422 C17.9100289,14.2754311 15.4990733,16.3510089 13.5415622,16.0840756 C12.2513844,15.9078311 13.0898289,15.1001867 13.3721622,14.24292 C11.2161622,15.3996311 8.56736222,17.2202533 6.66631778,19.8536533 C7.31996222,21.1130311 7.90174,22.3056756 8.61185111,22.5229867 C9.94480667,22.9250978 11.0159622,20.8426756 13.6014511,20.8426756 C16.18694,20.8426756 16.8987622,22.9781422 19.2258733,23.1304311 C21.1560067,23.2553422 23.0176956,20.7742311 24.9170289,21.0770978 C26.8180733,21.3799644 27.7780067,24.8672089 31.1266511,24.6789867 C35.4916956,24.4274533 35.0758956,21.3799644 37.5843844,20.6219422"/>
    <path fill="#FCB813" d="M64.3104,14.3021244 C60.8881778,11.5626356 55.8883111,10.4315911 53.1967333,9.89088 C54.8821778,8.36970222 55.3493111,4.26474667 52.7552667,2.43899111 C50.7224667,1.01021333 41.9564444,0.310368889 32.2253556,0.310368889 C22.4925556,0.310368889 13.7265333,1.01021333 11.6954444,2.43899111 C9.09968889,4.26474667 9.56682222,8.36970222 11.2505556,9.89088 C8.56068889,10.4315911 3.56082222,11.5626356 0.1386,14.3021244 C0.1386,14.3021244 3.29902222,13.7374578 5.52004444,15.3219467 C7.28591111,16.5813244 7.32013333,20.4364578 8.6548,20.8385689 C9.98775556,21.2441022 11.4798444,19.1599689 14.0636222,19.1599689 C16.6491111,19.1599689 16.94,21.2954356 19.2688222,21.4477244 C21.2006667,21.5726356 23.4798667,19.0898133 25.3826222,19.3961022 C27.2819556,19.6972578 27.8141111,22.9928578 31.1678889,22.9928578 C34.5062667,22.9928578 34.2769778,19.6972578 36.7871778,18.9392356 C39.2956667,18.1795022 43.3253333,22.2827467 45.6815333,21.6770133 C48.0394444,21.0661467 49.2560444,18.1795022 51.5369556,17.7209244 C53.8178667,17.2657689 56.1244444,19.2523689 57.9365111,18.9033022 C59.7468667,18.5559467 59.5192889,16.8089022 60.7684,15.7445911 C61.8977333,14.7795244 64.3104,14.3021244 64.3104,14.3021244"/>
    <path stroke="#45413C" stroke-linecap="round" stroke-linejoin="round" d="M64.3104,14.3021244 C60.8881778,11.5626356 55.8883111,10.4315911 53.1967333,9.89088 C54.8821778,8.36970222 55.3493111,4.26474667 52.7552667,2.43899111 C50.7224667,1.01021333 41.9564444,0.310368889 32.2253556,0.310368889 C22.4925556,0.310368889 13.7265333,1.01021333 11.6954444,2.43899111 C9.09968889,4.26474667 9.56682222,8.36970222 11.2505556,9.89088 C8.56068889,10.4315911 3.56082222,11.5626356 0.1386,14.3021244 C0.1386,14.3021244 3.29902222,13.7374578 5.52004444,15.3219467 C7.28591111,16.5813244 7.32013333,20.4364578 8.6548,20.8385689 C9.98775556,21.2441022 11.4798444,19.1599689 14.0636222,19.1599689 C16.6491111,19.1599689 16.94,21.2954356 19.2688222,21.4477244 C21.2006667,21.5726356 23.4798667,19.0898133 25.3826222,19.3961022 C27.2819556,19.6972578 27.8141111,22.9928578 31.1678889,22.9928578 C34.5062667,22.9928578 34.2769778,19.6972578 36.7871778,18.9392356 C39.2956667,18.1795022 43.3253333,22.2827467 45.6815333,21.6770133 C48.0394444,21.0661467 49.2560444,18.1795022 51.5369556,17.7209244 C53.8178667,17.2657689 56.1244444,19.2523689 57.9365111,18.9033022 C59.7468667,18.5559467 59.5192889,16.8089022 60.7684,15.7445911 C61.8977333,14.7795244 64.3104,14.3021244 64.3104,14.3021244 Z"/>
    <path stroke="#45413C" d="M31.7909044,13.4181644 C23.5536156,13.4181644 17.7016156,12.4702089 10.9136378,10.0421422 C10.7818822,9.99594222 10.7134378,9.85220889 10.7613489,9.72216444 C10.8075489,9.59040889 10.9512822,9.52196444 11.0830378,9.56987556 C17.8111267,11.9739867 23.6169267,12.9133867 31.7909044,12.9133867 C39.2735933,12.9133867 48.3459044,11.5085644 53.35946,9.57158667 C53.4895044,9.52025333 53.63666,9.58698667 53.6862822,9.71532 C53.7376156,9.84536444 53.6725933,9.99080889 53.5408378,10.0404311 C51.1521267,10.96272 47.7247711,11.8114311 43.8901711,12.4240089 C39.82286,13.07252 35.6391933,13.4181644 31.7909044,13.4181644 Z"/>
    <path fill="#FFCA05" d="M34.9615933,7.76191556 C42.8908822,7.37520444 49.0885267,5.98407111 53.9053044,3.67749333 C53.62126,3.20693778 53.2413933,2.78429333 52.7537267,2.44036 C50.7226378,1.01158222 41.9566156,0.311737778 32.2238156,0.311737778 C22.4910156,0.311737778 13.7249933,1.01158222 11.6956156,2.44036 C11.44066,2.62002667 11.2147933,2.82193778 11.0163044,3.04096 C14.6832156,6.11753778 23.3705267,8.32829333 34.9615933,7.76191556"/>
    <path stroke="#45413C" d="M34.9615933,7.76191556 C42.8908822,7.37520444 49.0885267,5.98407111 53.9053044,3.67749333 C53.62126,3.20693778 53.2413933,2.78429333 52.7537267,2.44036 C50.7226378,1.01158222 41.9566156,0.311737778 32.2238156,0.311737778 C22.4910156,0.311737778 13.7249933,1.01158222 11.6956156,2.44036 C11.44066,2.62002667 11.2147933,2.82193778 11.0163044,3.04096 C14.6832156,6.11753778 23.3705267,8.32829333 34.9615933,7.76191556 Z"/>
    <path fill="#FF872E" d="M48.6831644 39.5812244C48.6831644 40.4744244 47.4716978 41.2016467 45.9778978 41.2016467 44.4823867 41.2016467 43.27092 40.4744244 43.27092 39.5812244 43.27092 38.6828911 44.4823867 37.9556689 45.9778978 37.9556689 47.4716978 37.9556689 48.6831644 38.6828911 48.6831644 39.5812244M17.3024133 39.5812244C17.3024133 40.4744244 18.51388 41.2016467 20.00768 41.2016467 21.4997689 41.2016467 22.7112356 40.4744244 22.7112356 39.5812244 22.7112356 38.6828911 21.4997689 37.9556689 20.00768 37.9556689 18.51388 37.9556689 17.3024133 38.6828911 17.3024133 39.5812244"/>
    <path stroke="#45413C" stroke-linecap="round" stroke-linejoin="round" stroke-width="2" d="M48.1417689 33.0860178C48.1417689 34.1349289 47.2947689 34.9785067 46.24928 34.9785067 45.2003689 34.9785067 44.35508 34.1349289 44.35508 33.0860178M21.6303267 33.0860178C21.6303267 34.1349289 20.7833267 34.9785067 19.7361267 34.9785067 18.6906378 34.9785067 17.8436378 34.1349289 17.8436378 33.0860178"/>
    <path fill="#FFB0CA" d="M26.43872,42.8278867 C26.1409867,42.8278867 25.8586533,42.95622 25.6635867,43.1820867 C25.4719422,43.4096644 25.3829644,43.7091089 25.4291644,44.00342 C25.9955422,47.66862 29.1662311,50.4012644 32.9939867,50.4012644 C36.8200311,50.4012644 39.9890089,47.66862 40.5553867,44.00342 C40.6015867,43.7091089 40.5177422,43.4096644 40.3209644,43.1820867 C40.1276089,42.9545089 39.8435644,42.8278867 39.5458311,42.8278867 L26.43872,42.8278867 Z"/>
    <path stroke="#45413C" stroke-linecap="round" stroke-linejoin="round" d="M25.8191867,42.469927 C25.4933084,42.469927 25.1842858,42.6103918 24.9707792,42.8576099 C24.7610184,43.1067008 24.6636295,43.4344521 24.7141968,43.7565847 C25.3341149,47.7682599 28.8045323,50.7592241 32.9941296,50.7592241 C37.1818541,50.7592241 40.6503986,47.7682599 41.2703167,43.7565847 C41.320884,43.4344521 41.2291137,43.1067008 41.0137343,42.8576099 C40.8021006,42.608519 40.4912052,42.469927 40.1653268,42.469927 L25.8191867,42.469927 Z"/>
    <path fill="#FF87AF" d="M39.0230867,46.5235178 C37.5258644,45.6525622 35.3818422,45.1050067 32.9931311,45.1050067 C30.6027089,45.1050067 28.4586867,45.6525622 26.9614644,46.5235178 C28.3611533,48.3218956 30.5411089,49.4016067 32.9931311,49.4016067 C35.4451533,49.4016067 37.6233978,48.3218956 39.0230867,46.5235178"/>
  </g>
</svg>
