<svg xmlns="http://www.w3.org/2000/svg" width="65" height="77" viewBox="0 0 65 77">
  <g fill="none" fill-rule="evenodd" transform="translate(0 1)">
    <path fill="#151444" d="M56.8068089,72.45492 C56.8068089,73.87172 45.6982756,75.0215867 31.9956978,75.0215867 C18.29312,75.0215867 7.18458667,73.87172 7.18458667,72.45492 C7.18458667,71.03812 18.29312,69.8882533 31.9956978,69.8882533 C45.6982756,69.8882533 56.8068089,71.03812 56.8068089,72.45492" opacity=".3"/>
    <path fill="#FD0" d="M17.2106711,12.6144556 C17.2106711,12.6144556 5.48613778,16.1735667 4.35509333,25.9577 C3.01871556,37.5059889 11.3774933,63.1110556 13.5711378,65.0925222 C16.8872711,68.0818333 26.2128267,69.6184111 32.2804267,69.6184111 C38.3463156,69.6184111 47.6735822,68.0818333 50.9880044,65.0925222 C53.1816489,63.1110556 61.5404267,37.5059889 60.2040489,25.9577 C59.0730044,16.1735667 47.3484711,12.6144556 47.3484711,12.6144556 L17.2106711,12.6144556 Z"/>
    <path fill="#FFF" d="M47.2870422,12.6144556 L17.1492422,12.6144556 C17.1492422,12.6144556 5.42470889,16.1735667 4.29366444,25.9577 C4.20810889,26.6917667 4.16190889,27.4805889 4.15164222,28.3190333 C16.3176422,35.5211 40.0131089,40.8751667 60.25042,30.2628556 C60.3205756,28.6886333 60.2897756,27.2359 60.14262,25.9577 C59.0115756,16.1735667 47.2870422,12.6144556 47.2870422,12.6144556"/>
    <path fill="#FCB813" d="M21.6689711,12.6144556 L18.8593267,12.6144556 C18.8593267,12.6144556 7.13479333,16.1735667 6.00374889,25.9577 C4.66737111,37.5059889 13.0261489,63.1110556 15.2197933,65.0925222 C16.7033267,66.4271889 19.3829267,67.4743889 22.4338378,68.2221444 C21.0119044,63.5234333 18.8216822,56.1331444 15.6629711,45.0622556 C9.72370444,24.2500111 13.2708378,20.9373 21.6689711,12.6144556" opacity=".671"/>
    <path stroke="#45413C" stroke-linecap="round" stroke-linejoin="round" d="M17.5097733,12.6144556 C17.5097733,12.6144556 5.78524,16.1735667 4.65419556,25.9577 C3.31781778,37.5059889 11.6765956,63.1110556 13.87024,65.0925222 C17.1863733,68.0818333 26.5119289,69.6184111 32.5795289,69.6184111 C38.6454178,69.6184111 47.9726844,68.0818333 51.2871067,65.0925222 C53.4807511,63.1110556 61.8395289,37.5059889 60.5031511,25.9577 C59.3721067,16.1735667 47.6475733,12.6144556 47.6475733,12.6144556 L17.5097733,12.6144556 Z"/>
    <path fill="#F6921E" d="M37.6202911,20.6219422 C40.1304911,19.8604978 43.2909133,23.8422533 45.6762022,23.3614311 C49.1086911,22.6615867 49.58438,19.8604978 51.8670022,19.4036311 C54.1479133,18.9467644 56.1191133,20.9350756 57.93118,20.5860089 C58.0201578,20.57232 58.1057133,20.5483644 58.1912689,20.5244089 C56.0147356,17.1192978 52.5514467,14.9598756 50.1131133,13.7740756 C49.1583133,14.8212756 49.0881578,16.4348533 47.36678,17.0251867 C45.38018,17.70792 43.0992689,14.5012978 40.9809133,14.9701422 C38.8625578,15.4424089 38.8334689,18.0912089 36.4208022,18.6729867 C34.0098467,19.2530533 32.2183133,15.4235867 30.1256244,15.3944978 C27.6753133,15.3619867 28.2434022,18.0604089 24.7116689,17.8995644 C21.1816467,17.7404311 21.9790244,15.4184533 19.9633356,14.8469422 C17.9459356,14.2754311 15.53498,16.3510089 13.5774689,16.0840756 C12.2872911,15.9078311 13.1257356,15.1001867 13.4080689,14.24292 C11.2520689,15.3996311 8.60326889,17.2202533 6.70222444,19.8536533 C7.35586889,21.1130311 7.93764667,22.3056756 8.64775778,22.5229867 C9.98071333,22.9250978 11.0518689,20.8426756 13.6373578,20.8426756 C16.2228467,20.8426756 16.9346689,22.9781422 19.26178,23.1304311 C21.1919133,23.2553422 23.0536022,20.7742311 24.9529356,21.0770978 C26.85398,21.3799644 27.8139133,24.8672089 31.1625578,24.6789867 C35.5276022,24.4274533 35.1118022,21.3799644 37.6202911,20.6219422"/>
    <path fill="#FCB813" d="M64.3464778,14.3021244 C60.9242556,11.5626356 55.9243889,10.4315911 53.2328111,9.89088 C54.9182556,8.36970222 55.3853889,4.26474667 52.7913444,2.43899111 C50.7585444,1.01021333 41.9925222,0.310368889 32.2614333,0.310368889 C22.5286333,0.310368889 13.7626111,1.01021333 11.7315222,2.43899111 C9.13576667,4.26474667 9.6029,8.36970222 11.2866333,9.89088 C8.59676667,10.4315911 3.5969,11.5626356 0.174677778,14.3021244 C0.174677778,14.3021244 3.3351,13.7374578 5.55612222,15.3219467 C7.32198889,16.5813244 7.35621111,20.4364578 8.69087778,20.8385689 C10.0238333,21.2441022 11.5159222,19.1599689 14.0997,19.1599689 C16.6851889,19.1599689 16.9760778,21.2954356 19.3049,21.4477244 C21.2367444,21.5726356 23.5159444,19.0898133 25.4187,19.3961022 C27.3180333,19.6972578 27.8501889,22.9928578 31.2039667,22.9928578 C34.5423444,22.9928578 34.3130556,19.6972578 36.8232556,18.9392356 C39.3317444,18.1795022 43.3614111,22.2827467 45.7176111,21.6770133 C48.0755222,21.0661467 49.2921222,18.1795022 51.5730333,17.7209244 C53.8539444,17.2657689 56.1605222,19.2523689 57.9725889,18.9033022 C59.7829444,18.5559467 59.5553667,16.8089022 60.8044778,15.7445911 C61.9338111,14.7795244 64.3464778,14.3021244 64.3464778,14.3021244"/>
    <path stroke="#45413C" stroke-linecap="round" stroke-linejoin="round" d="M64.3464778,14.3021244 C60.9242556,11.5626356 55.9243889,10.4315911 53.2328111,9.89088 C54.9182556,8.36970222 55.3853889,4.26474667 52.7913444,2.43899111 C50.7585444,1.01021333 41.9925222,0.310368889 32.2614333,0.310368889 C22.5286333,0.310368889 13.7626111,1.01021333 11.7315222,2.43899111 C9.13576667,4.26474667 9.6029,8.36970222 11.2866333,9.89088 C8.59676667,10.4315911 3.5969,11.5626356 0.174677778,14.3021244 C0.174677778,14.3021244 3.3351,13.7374578 5.55612222,15.3219467 C7.32198889,16.5813244 7.35621111,20.4364578 8.69087778,20.8385689 C10.0238333,21.2441022 11.5159222,19.1599689 14.0997,19.1599689 C16.6851889,19.1599689 16.9760778,21.2954356 19.3049,21.4477244 C21.2367444,21.5726356 23.5159444,19.0898133 25.4187,19.3961022 C27.3180333,19.6972578 27.8501889,22.9928578 31.2039667,22.9928578 C34.5423444,22.9928578 34.3130556,19.6972578 36.8232556,18.9392356 C39.3317444,18.1795022 43.3614111,22.2827467 45.7176111,21.6770133 C48.0755222,21.0661467 49.2921222,18.1795022 51.5730333,17.7209244 C53.8539444,17.2657689 56.1605222,19.2523689 57.9725889,18.9033022 C59.7829444,18.5559467 59.5553667,16.8089022 60.8044778,15.7445911 C61.9338111,14.7795244 64.3464778,14.3021244 64.3464778,14.3021244 Z"/>
    <path stroke="#45413C" d="M31.8269822,13.4181644 C23.5896933,13.4181644 17.7376933,12.4702089 10.9497156,10.0421422 C10.81796,9.99594222 10.7495156,9.85220889 10.7974267,9.72216444 C10.8436267,9.59040889 10.98736,9.52196444 11.1191156,9.56987556 C17.8472044,11.9739867 23.6530044,12.9133867 31.8269822,12.9133867 C39.3096711,12.9133867 48.3819822,11.5085644 53.3955378,9.57158667 C53.5255822,9.52025333 53.6727378,9.58698667 53.72236,9.71532 C53.7736933,9.84536444 53.7086711,9.99080889 53.5769156,10.0404311 C51.1882044,10.96272 47.7608489,11.8114311 43.9262489,12.4240089 C39.8589378,13.07252 35.6752711,13.4181644 31.8269822,13.4181644 Z"/>
    <path fill="#FFCA05" d="M34.9976711,7.76191556 C42.92696,7.37520444 49.1246044,5.98407111 53.9413822,3.67749333 C53.6573378,3.20693778 53.2774711,2.78429333 52.7898044,2.44036 C50.7587156,1.01158222 41.9926933,0.311737778 32.2598933,0.311737778 C22.5270933,0.311737778 13.7610711,1.01158222 11.7316933,2.44036 C11.4767378,2.62002667 11.2508711,2.82193778 11.0523822,3.04096 C14.7192933,6.11753778 23.4066044,8.32829333 34.9976711,7.76191556"/>
    <path stroke="#45413C" d="M34.9976711,7.76191556 C42.92696,7.37520444 49.1246044,5.98407111 53.9413822,3.67749333 C53.6573378,3.20693778 53.2774711,2.78429333 52.7898044,2.44036 C50.7587156,1.01158222 41.9926933,0.311737778 32.2598933,0.311737778 C22.5270933,0.311737778 13.7610711,1.01158222 11.7316933,2.44036 C11.4767378,2.62002667 11.2508711,2.82193778 11.0523822,3.04096 C14.7192933,6.11753778 23.4066044,8.32829333 34.9976711,7.76191556 Z"/>
    <path fill="#FF872E" d="M45.8967644 39.1483133C45.8967644 39.9217356 44.8478533 40.5531356 43.5508311 40.5531356 42.2538089 40.5531356 41.2031867 39.9217356 41.2031867 39.1483133 41.2031867 38.3680467 42.2538089 37.7383578 43.5508311 37.7383578 44.8478533 37.7383578 45.8967644 38.3680467 45.8967644 39.1483133M18.6618644 39.1483133C18.6618644 39.9217356 19.7141978 40.5531356 21.0095089 40.5531356 22.3065311 40.5531356 23.3588644 39.9217356 23.3588644 39.1483133 23.3588644 38.3680467 22.3065311 37.7383578 21.0095089 37.7383578 19.7141978 37.7383578 18.6618644 38.3680467 18.6618644 39.1483133"/>
    <path stroke="#45413C" stroke-linecap="round" stroke-linejoin="round" stroke-width="2" d="M43.7963756 31.1642689L40.7831089 32.6717578C40.0901089 33.0174022 40.0901089 34.0047133 40.7831089 34.3520689L43.7963756 35.8595578M20.7624244 31.1642689L23.7774022 32.6717578C24.4704022 33.0174022 24.4704022 34.0047133 23.7774022 34.3520689L20.7624244 35.8595578"/>
    <path fill="#FFB0CA" d="M26.5916667,41.9639467 C26.335,41.9639467 26.0868889,42.07688 25.9209111,42.2719467 C25.7498,42.4687244 25.6762222,42.7253911 25.7155778,42.98548 C26.2066667,46.1698578 28.9581333,48.5397467 32.2794,48.5397467 C35.6006667,48.5397467 38.3538444,46.1698578 38.8449333,42.98548 C38.8825778,42.7253911 38.809,42.4687244 38.6413111,42.2719467 C38.4719111,42.07688 38.2255111,41.9639467 37.9671333,41.9639467 L26.5916667,41.9639467 Z"/>
    <path stroke="#45413C" stroke-linecap="round" stroke-linejoin="round" d="M25.6635864,41.427499 C25.3650425,41.427499 25.07645,41.5588583 24.8833916,41.7857517 C24.6843623,42.0146354 24.5987798,42.3131793 24.6445565,42.6157038 C25.2157705,46.3196388 28.4161614,49.0761944 32.2793198,49.0761944 C36.1424783,49.0761944 39.3448594,46.3196388 39.9160735,42.6157038 C39.9598599,42.3131793 39.8742773,42.0146354 39.6792286,41.7857517 C39.4821897,41.5588583 39.1955875,41.427499 38.8950533,41.427499 L25.6635864,41.427499 Z"/>
    <path fill="#FF87AF" d="M37.5150578,46.0411822 C36.2146133,45.2865822 34.3546356,44.8108933 32.2790578,44.8108933 C30.2069022,44.8108933 28.3452133,45.2865822 27.0447689,46.0411822 C28.2596578,47.5982933 30.1487244,48.5394044 32.2790578,48.5394044 C34.4093911,48.5394044 36.3001689,47.5982933 37.5150578,46.0411822"/>
  </g>
</svg>
