<svg xmlns="http://www.w3.org/2000/svg" width="65" height="77" viewBox="0 0 65 77">
  <g fill="none" fill-rule="evenodd" transform="translate(0 1)">
    <path fill="#151444" d="M58.51792,72.45492 C58.51792,73.87172 47.4093867,75.0215867 33.7068089,75.0215867 C20.0042311,75.0215867 8.89569778,73.87172 8.89569778,72.45492 C8.89569778,71.03812 20.0042311,69.8882533 33.7068089,69.8882533 C47.4093867,69.8882533 58.51792,71.03812 58.51792,72.45492" opacity=".3"/>
    <path fill="#FD0" d="M17.5097733,12.6144556 C17.5097733,12.6144556 5.78524,16.1735667 4.65419556,25.9577 C3.31781778,37.5059889 11.6765956,63.1110556 13.87024,65.0925222 C17.1863733,68.0818333 26.5119289,69.6184111 32.5795289,69.6184111 C38.6454178,69.6184111 47.9726844,68.0818333 51.2871067,65.0925222 C53.4807511,63.1110556 61.8395289,37.5059889 60.5031511,25.9577 C59.3721067,16.1735667 47.6475733,12.6144556 47.6475733,12.6144556 L17.5097733,12.6144556 Z"/>
    <path fill="#FFF" d="M47.6480867,12.6144556 L17.5102867,12.6144556 C17.5102867,12.6144556 5.78575333,16.1735667 4.65470889,25.9577 C4.56915333,26.6917667 4.52295333,27.4805889 4.51268667,28.3190333 C16.6786867,35.5211 40.3741533,40.8751667 60.6114644,30.2628556 C60.68162,28.6886333 60.65082,27.2359 60.5036644,25.9577 C59.37262,16.1735667 47.6480867,12.6144556 47.6480867,12.6144556"/>
    <path fill="#FCB813" d="M22.0298444,12.6144556 L19.2202,12.6144556 C19.2202,12.6144556 7.49566667,16.1735667 6.36462222,25.9577 C5.02824444,37.5059889 13.3870222,63.1110556 15.5806667,65.0925222 C17.0642,66.4271889 19.7438,67.4743889 22.7947111,68.2221444 C21.3727778,63.5234333 19.1825556,56.1331444 16.0238444,45.0622556 C10.0845778,24.2500111 13.6317111,20.9373 22.0298444,12.6144556" opacity=".671"/>
    <path stroke="#45413C" stroke-linecap="round" stroke-linejoin="round" d="M17.5097733,12.6144556 C17.5097733,12.6144556 5.78524,16.1735667 4.65419556,25.9577 C3.31781778,37.5059889 11.6765956,63.1110556 13.87024,65.0925222 C17.1863733,68.0818333 26.5119289,69.6184111 32.5795289,69.6184111 C38.6454178,69.6184111 47.9726844,68.0818333 51.2871067,65.0925222 C53.4807511,63.1110556 61.8395289,37.5059889 60.5031511,25.9577 C59.3721067,16.1735667 47.6475733,12.6144556 47.6475733,12.6144556 L17.5097733,12.6144556 Z"/>
    <path fill="#F6921E" d="M37.9811644,20.6219422 C40.4913644,19.8604978 43.6517867,23.8422533 46.0370756,23.3614311 C49.4695644,22.6615867 49.9452533,19.8604978 52.2278756,19.4036311 C54.5087867,18.9467644 56.4799867,20.9350756 58.2920533,20.5860089 C58.3810311,20.57232 58.4665867,20.5483644 58.5521422,20.5244089 C56.3756089,17.1192978 52.91232,14.9598756 50.4739867,13.7740756 C49.5191867,14.8212756 49.4490311,16.4348533 47.7276533,17.0251867 C45.7410533,17.70792 43.4601422,14.5012978 41.3417867,14.9701422 C39.2234311,15.4424089 39.1943422,18.0912089 36.7816756,18.6729867 C34.37072,19.2530533 32.5791867,15.4235867 30.4864978,15.3944978 C28.0361867,15.3619867 28.6042756,18.0604089 25.0725422,17.8995644 C21.54252,17.7404311 22.3398978,15.4184533 20.3242089,14.8469422 C18.3068089,14.2754311 15.8958533,16.3510089 13.9383422,16.0840756 C12.6481644,15.9078311 13.4866089,15.1001867 13.7689422,14.24292 C11.6129422,15.3996311 8.96414222,17.2202533 7.06309778,19.8536533 C7.71674222,21.1130311 8.29852,22.3056756 9.00863111,22.5229867 C10.3415867,22.9250978 11.4127422,20.8426756 13.9982311,20.8426756 C16.58372,20.8426756 17.2955422,22.9781422 19.6226533,23.1304311 C21.5527867,23.2553422 23.4144756,20.7742311 25.3138089,21.0770978 C27.2148533,21.3799644 28.1747867,24.8672089 31.5234311,24.6789867 C35.8884756,24.4274533 35.4726756,21.3799644 37.9811644,20.6219422"/>
    <path fill="#FCB813" d="M64.7073511,14.3021244 C61.2851289,11.5626356 56.2852622,10.4315911 53.5936844,9.89088 C55.2791289,8.36970222 55.7462622,4.26474667 53.1522178,2.43899111 C51.1194178,1.01021333 42.3533956,0.310368889 32.6223067,0.310368889 C22.8895067,0.310368889 14.1234844,1.01021333 12.0923956,2.43899111 C9.49664,4.26474667 9.96377333,8.36970222 11.6475067,9.89088 C8.95764,10.4315911 3.95777333,11.5626356 0.535551111,14.3021244 C0.535551111,14.3021244 3.69597333,13.7374578 5.91699556,15.3219467 C7.68286222,16.5813244 7.71708444,20.4364578 9.05175111,20.8385689 C10.3847067,21.2441022 11.8767956,19.1599689 14.4605733,19.1599689 C17.0460622,19.1599689 17.3369511,21.2954356 19.6657733,21.4477244 C21.5976178,21.5726356 23.8768178,19.0898133 25.7795733,19.3961022 C27.6789067,19.6972578 28.2110622,22.9928578 31.56484,22.9928578 C34.9032178,22.9928578 34.6739289,19.6972578 37.1841289,18.9392356 C39.6926178,18.1795022 43.7222844,22.2827467 46.0784844,21.6770133 C48.4363956,21.0661467 49.6529956,18.1795022 51.9339067,17.7209244 C54.2148178,17.2657689 56.5213956,19.2523689 58.3334622,18.9033022 C60.1438178,18.5559467 59.91624,16.8089022 61.1653511,15.7445911 C62.2946844,14.7795244 64.7073511,14.3021244 64.7073511,14.3021244"/>
    <path stroke="#45413C" stroke-linecap="round" stroke-linejoin="round" d="M64.7073511,14.3021244 C61.2851289,11.5626356 56.2852622,10.4315911 53.5936844,9.89088 C55.2791289,8.36970222 55.7462622,4.26474667 53.1522178,2.43899111 C51.1194178,1.01021333 42.3533956,0.310368889 32.6223067,0.310368889 C22.8895067,0.310368889 14.1234844,1.01021333 12.0923956,2.43899111 C9.49664,4.26474667 9.96377333,8.36970222 11.6475067,9.89088 C8.95764,10.4315911 3.95777333,11.5626356 0.535551111,14.3021244 C0.535551111,14.3021244 3.69597333,13.7374578 5.91699556,15.3219467 C7.68286222,16.5813244 7.71708444,20.4364578 9.05175111,20.8385689 C10.3847067,21.2441022 11.8767956,19.1599689 14.4605733,19.1599689 C17.0460622,19.1599689 17.3369511,21.2954356 19.6657733,21.4477244 C21.5976178,21.5726356 23.8768178,19.0898133 25.7795733,19.3961022 C27.6789067,19.6972578 28.2110622,22.9928578 31.56484,22.9928578 C34.9032178,22.9928578 34.6739289,19.6972578 37.1841289,18.9392356 C39.6926178,18.1795022 43.7222844,22.2827467 46.0784844,21.6770133 C48.4363956,21.0661467 49.6529956,18.1795022 51.9339067,17.7209244 C54.2148178,17.2657689 56.5213956,19.2523689 58.3334622,18.9033022 C60.1438178,18.5559467 59.91624,16.8089022 61.1653511,15.7445911 C62.2946844,14.7795244 64.7073511,14.3021244 64.7073511,14.3021244 Z"/>
    <path stroke="#45413C" d="M32.1878556,13.4181644 C23.9505667,13.4181644 18.0985667,12.4702089 11.3105889,10.0421422 C11.1788333,9.99594222 11.1103889,9.85220889 11.1583,9.72216444 C11.2045,9.59040889 11.3482333,9.52196444 11.4799889,9.56987556 C18.2080778,11.9739867 24.0138778,12.9133867 32.1878556,12.9133867 C39.6705444,12.9133867 48.7428556,11.5085644 53.7564111,9.57158667 C53.8864556,9.52025333 54.0336111,9.58698667 54.0832333,9.71532 C54.1345667,9.84536444 54.0695444,9.99080889 53.9377889,10.0404311 C51.5490778,10.96272 48.1217222,11.8114311 44.2871222,12.4240089 C40.2198111,13.07252 36.0361444,13.4181644 32.1878556,13.4181644 Z"/>
    <path fill="#FFCA05" d="M35.3585444,7.76191556 C43.2878333,7.37520444 49.4854778,5.98407111 54.3022556,3.67749333 C54.0182111,3.20693778 53.6383444,2.78429333 53.1506778,2.44036 C51.1195889,1.01158222 42.3535667,0.311737778 32.6207667,0.311737778 C22.8879667,0.311737778 14.1219444,1.01158222 12.0925667,2.44036 C11.8376111,2.62002667 11.6117444,2.82193778 11.4132556,3.04096 C15.0801667,6.11753778 23.7674778,8.32829333 35.3585444,7.76191556"/>
    <path stroke="#45413C" d="M35.3585444,7.76191556 C43.2878333,7.37520444 49.4854778,5.98407111 54.3022556,3.67749333 C54.0182111,3.20693778 53.6383444,2.78429333 53.1506778,2.44036 C51.1195889,1.01158222 42.3535667,0.311737778 32.6207667,0.311737778 C22.8879667,0.311737778 14.1219444,1.01158222 12.0925667,2.44036 C11.8376111,2.62002667 11.6117444,2.82193778 11.4132556,3.04096 C15.0801667,6.11753778 23.7674778,8.32829333 35.3585444,7.76191556 Z"/>
    <path fill="#FF872E" d="M48.5720867 38.5685889C48.5720867 39.4173 47.4273533 40.1034556 46.0139756 40.1034556 44.6023089 40.1034556 43.4575756 39.4173 43.4575756 38.5685889 43.4575756 37.7250111 44.6023089 37.0354333 46.0139756 37.0354333 47.4273533 37.0354333 48.5720867 37.7250111 48.5720867 38.5685889M18.9084356 38.5685889C18.9084356 39.4173 20.0531689 40.1034556 21.4665467 40.1034556 22.8765022 40.1034556 24.0229467 39.4173 24.0229467 38.5685889 24.0229467 37.7250111 22.8765022 37.0354333 21.4665467 37.0354333 20.0531689 37.0354333 18.9084356 37.7250111 18.9084356 38.5685889"/>
    <path stroke="#45413C" stroke-linecap="round" stroke-linejoin="round" stroke-width="2" d="M19.41886 34.7351867C19.41886 33.7461644 20.2213711 32.9453644 21.2103933 32.9453644 22.1994156 32.9453644 23.0002156 33.7461644 23.0002156 34.7351867M44.4806489 34.7351867C44.4806489 33.7461644 45.2814489 32.9453644 46.26876 32.9453644 47.2594933 32.9453644 48.0602933 33.7461644 48.0602933 34.7351867"/>
    <path fill="#FFF" d="M57.9130422,47.4749222 L62.9779311,45.7843444 C63.1712867,45.7210333 63.29962,45.5379444 63.29962,45.3377444 C63.29962,45.1307 63.1712867,44.9493222 62.9779311,44.8843 L58.8147978,43.4983 C58.2467089,43.3066556 57.80182,42.8617667 57.6118867,42.2971 L56.2241756,38.1288333 C56.1591533,37.9389 55.9760644,37.8054333 55.7724422,37.8054333 C55.5671089,37.8054333 55.3857311,37.9389 55.32242,38.1288333 L53.9347089,42.2902556 C53.7430644,42.8617667 53.2981756,43.3066556 52.7317978,43.4983 L48.5652422,44.8843 C48.3718867,44.9493222 48.2418422,45.1307 48.2418422,45.3377444 C48.2418422,45.5379444 48.3718867,45.7210333 48.5652422,45.7843444 L52.7317978,47.1737667 C53.2981756,47.3654111 53.7430644,47.8103 53.9347089,48.3783889 L55.32242,52.5449444 C55.3857311,52.7348778 55.5671089,52.8700556 55.7724422,52.8700556 C55.9760644,52.8700556 56.1591533,52.7348778 56.2241756,52.5449444 L57.9130422,47.4749222 Z"/>
    <path stroke="#45413C" stroke-linecap="round" stroke-linejoin="round" stroke-width=".8" d="M57.9130422,47.4749222 L62.9779311,45.7843444 C63.1712867,45.7210333 63.29962,45.5379444 63.29962,45.3377444 C63.29962,45.1307 63.1712867,44.9493222 62.9779311,44.8843 L58.8147978,43.4983 C58.2467089,43.3066556 57.80182,42.8617667 57.6118867,42.2971 L56.2241756,38.1288333 C56.1591533,37.9389 55.9760644,37.8054333 55.7724422,37.8054333 C55.5671089,37.8054333 55.3857311,37.9389 55.32242,38.1288333 L53.9347089,42.2902556 C53.7430644,42.8617667 53.2981756,43.3066556 52.7317978,43.4983 L48.5652422,44.8843 C48.3718867,44.9493222 48.2418422,45.1307 48.2418422,45.3377444 C48.2418422,45.5379444 48.3718867,45.7210333 48.5652422,45.7843444 L52.7317978,47.1737667 C53.2981756,47.3654111 53.7430644,47.8103 53.9347089,48.3783889 L55.32242,52.5449444 C55.3857311,52.7348778 55.5671089,52.8700556 55.7724422,52.8700556 C55.9760644,52.8700556 56.1591533,52.7348778 56.2241756,52.5449444 L57.9130422,47.4749222 Z"/>
    <path fill="#FFF" d="M33.73932,50.2221111 C43.1538533,50.2221111 44.4080978,46.2916889 43.8605422,43.0765111 C43.5285867,41.1361111 41.25452,39.9417556 39.1926311,40.6655556 C37.6338089,41.2062667 35.7584311,41.5262444 33.73932,41.5262444 C31.7202089,41.5262444 29.8465422,41.2062667 28.28772,40.6655556 C26.2258311,39.9417556 23.9517644,41.1361111 23.6198089,43.0765111 C23.0705422,46.2916889 24.3247867,50.2221111 33.73932,50.2221111"/>
    <path stroke="#45413C" stroke-linecap="round" stroke-linejoin="round" d="M33.73932,50.2221111 C43.1538533,50.2221111 44.4080978,46.2916889 43.8605422,43.0765111 C43.5285867,41.1361111 41.25452,39.9417556 39.1926311,40.6655556 C37.6338089,41.2062667 35.7584311,41.5262444 33.73932,41.5262444 C31.7202089,41.5262444 29.8465422,41.2062667 28.28772,40.6655556 C26.2258311,39.9417556 23.9517644,41.1361111 23.6198089,43.0765111 C23.0705422,46.2916889 24.3247867,50.2221111 33.73932,50.2221111 Z"/>
    <path stroke="#45413C" stroke-linecap="round" stroke-linejoin="round" stroke-width=".6" d="M43.9491778,43.8088667 C42.9122444,44.3050889 41.3808,44.8372444 39.2419111,45.1948667 C37.7275778,45.4515333 35.9206444,45.6192222 33.7389778,45.6192222 C31.5590222,45.6192222 29.7503778,45.4515333 28.2377556,45.1948667 C26.0988667,44.8372444 24.5674222,44.3050889 23.5304889,43.8088667"/>
    <polyline stroke="#45413C" stroke-linecap="round" stroke-linejoin="round" stroke-width=".6" points="28.907 40.856 28.238 45.194 27.591 49.386"/>
    <path stroke="#45413C" stroke-linecap="round" stroke-linejoin="round" stroke-width=".6" d="M33.73932,50.2221111 L33.73932,41.5262444"/>
    <polyline stroke="#45413C" stroke-linecap="round" stroke-linejoin="round" stroke-width=".6" points="38.574 40.856 39.243 45.194 39.888 49.386"/>
  </g>
</svg>
