<svg xmlns="http://www.w3.org/2000/svg" width="285" height="331" viewBox="0 0 285 331">
  <g fill="none" fill-rule="evenodd" transform="translate(7.5)">
    <path fill="#FFE4E9" d="M255.969943,247.778902 C275.015853,261.248056 279.821193,287.204687 266.701544,305.756278 C264.792497,307.25316 262.074437,307.313035 260.042855,305.909447 C257.970892,304.479403 257.074155,301.849068 257.863673,299.505577 C259.041685,297.841601 265.128077,288.871448 262.844461,276.528785 C262.5423,274.895443 260.150074,263.647244 249.882159,256.387018 C238.359648,248.23841 223.378295,248.746653 212.937716,256.647406 C213.795465,259.943331 213.276081,263.541418 211.187409,266.496194 C207.36653,271.900286 199.772116,273.100577 194.223209,269.176657 C188.675694,265.25413 187.276284,257.693135 191.097162,252.290435 C194.451571,247.546363 200.714804,246.045303 205.947625,248.404111 C220.000215,237.524911 240.346672,236.729823 255.969943,247.778902" transform="scale(1 -1) rotate(27 1370.275 0)"/>
    <path fill="#FFE4E9" d="M154.318895 286.801279C151.706273 284.134369 146.945133 284.467902 143.738734 287.542613L117.991991 312.224024 109.097612 309.05884C105.459872 307.76387 100.872086 309.862289 98.9023829 313.721545 96.9326793 317.57945 98.2963202 321.795194 101.934061 323.090164L114.273715 327.481452C114.877048 327.694804 115.51041 327.785277 116.150598 327.820386 118.625354 328.388876 121.560117 327.607033 123.771426 325.487008L153.23781 297.239364C156.444209 294.164652 156.931516 289.46819 154.318895 286.801279M110.291321 285.262501C107.801422 282.488903 103.463563 282.22892 100.65133 284.684612L78.078345 304.402883 69.827398 300.420972C66.4524451 298.793723 62.3426786 300.182542 60.6913965 303.511129 59.0401145 306.838368 60.4496456 310.891673 63.8232326 312.520269L75.2702094 318.044564C75.8301976 318.315323 76.4120389 318.47293 76.9979777 318.582041 79.2802708 319.402401 81.9340682 319.029265 83.8708076 317.337358L109.706748 294.770053C112.518981 292.313015 112.781219 288.036098 110.291321 285.262501M245 159C245 168.208329 224.984812 176.254337 195.186295 180.592501 180.306064 182.759563 162.986117 184 144.5 184 88.9954356 184 44 172.806432 44 159 44 145.192221 88.9954356 134 144.5 134 200.004564 134 245 145.192221 245 159"/>
    <path fill="#FFF" d="M237,159.5 C237,166.682784 218.67727,172.959254 191.399639,176.342018 C177.777176,178.031367 161.922462,179 144.999319,179 C94.1903686,179 53,170.270113 53,159.5 C53,148.729887 94.1903686,140 144.999319,140 C195.809631,140 237,148.729887 237,159.5"/>
    <path fill="#696055" d="M65,165 C79.6412855,171.518319 109.953576,176 144.995252,176 C161.430067,176 176.829737,175.014704 190.060075,173.294817 C205.033747,171.349835 217.22487,168.464036 225,165.004044 C210.361428,158.483029 180.043711,154 144.995252,154 C109.953576,154 79.6412855,158.480333 65,165"/>
    <path fill="#6E6A66" d="M86,164.5 C96.798094,170.129828 119.152994,174 144.996613,174 C157.117033,174 168.474677,173.148294 178.232252,171.664505 C189.274218,169.98386 198.266307,167.491683 204,164.502678 C193.203261,158.871511 170.844296,155 144.996613,155 C119.152994,155 96.798094,158.868833 86,164.5"/>
    <path stroke="#000" stroke-width="2" d="M99,257 C99.495871,257.787884 107.566645,270.144573 122.032258,269.998719 C132.782903,269.891033 139.65871,262.952748 141,261.543281"/>
    <path fill="#FFF" fill-opacity=".494" d="M134.666776 160.868728C133.803275 161.382483 132.88495 160.270706 133.593568 159.561235 139.986212 153.175991 146.769486 143.807434 149.79722 135.398431 159.479389 108.503753 116.063141 102.398493 110.639537 67.8980647 104.808854 30.7935224 140.71539-.968237657 142.630167.0225759443 144.31742.895144301 119.18956 27.9597139 123.202781 61.5413634 126.54439 89.5016068 154.454639 93.6361129 163.484385 113.880514 170.725452 130.110014 162.697641 144.168966 134.666776 160.868728M190.178204 166.8907C189.440198 167.318583 188.652991 166.392182 189.261163 165.802654 193.190364 161.98159 200.156324 153.843661 203.115183 145.692149 208.769132 130.122638 174.674603 116.484713 169.632926 89.5131361 164.212679 60.5216793 195.341516 32.0749245 196.986997 33.0230591 198.464376 33.8733919 174.848171 57.5903405 180.375019 84.223686 186.19707 112.280592 219.072522 118.095727 216.89677 138.435795 215.269056 153.652133 194.786644 164.218808 190.178204 166.8907M85.8095872 165.907008C85.5011292 166.270964 85.1727277 165.483298 85.4253442 164.980822 87.7095294 160.459894 90.1306593 153.825849 91.2129216 147.872184 94.6711088 128.828334 79.1644432 124.507038 77.2286029 100.075827 75.1451814 73.8044665 87.9701232 51.3139004 88.6535174 52.0160091 89.2558084 52.6339191 80.2812741 71.7972775 81.7145405 95.5766273 82.9084859 115.374192 92.876202 118.300777 96.1017161 132.634931 98.6877115 144.126699 95.8198492 154.082519 85.8095872 165.907008"/>
    <path fill="#FFB3C1" d="M210.175032,176.281666 C210.266275,185.002171 210.330281,193.722676 210.045657,202.437751 C208.433244,251.987433 171.163901,291.692609 126,299.574186 C132.016588,300.623525 138.172083,301.113578 144.407926,300.977829 C195.760006,299.857902 241.011065,257.147246 242.792346,202.437751 C243.219962,189.298622 242.864523,176.145917 242.80324,163 C239.124924,168.254837 227.252445,172.905592 210.175032,176.281666"/>
    <path fill="#FAFAFA" d="M243.793518,159 C243.793518,167.282453 223.813679,174.519891 194.066704,178.420642 C179.212234,180.368973 161.922093,181.486198 143.469133,181.486198 C88.0613503,181.486198 43.1461071,171.41891 43.1461071,159 C43.1461071,172.717344 42.8173662,186.440138 43.1461071,200.154757 C44.5208417,257.502465 92.219515,302.147869 145.654853,300.977508 C196.878661,299.852108 242.016687,256.984727 243.793518,202.074477 C244.258102,187.724947 243.793518,173.359067 243.793518,159"/>
    <path stroke="#45413C" stroke-linecap="round" stroke-linejoin="round" stroke-width="4" d="M77.0272937 197C76.5488291 204.820278 82.4180843 211.522809 90.1474378 211.975701 97.8767913 212.429909 104.521535 206.46201 105 198.643048M137.025485 201C136.562971 208.8051 142.451398 215.506744 150.174694 215.974073 157.903514 216.442798 164.536105 210.500041 165 202.693546"/>
    <path fill="#FF6242" d="M89.9944355 228.683213C89.804395 231.974792 84.7277912 234.337518 78.654472 233.960472 72.5824817 233.584803 67.8141952 230.609722 68.0055646 227.318144 68.195605 224.026565 73.2722088 221.662463 79.3441991 222.039508 85.4175183 222.416553 90.1858048 225.390258 89.9944355 228.683213M174.994262 232.681985C174.794205 235.975004 169.487131 238.3364 163.139481 237.960723 156.790442 237.585047 151.807072 234.608532 152.00574 231.318266 152.205797 228.025247 157.512871 225.662475 163.860521 226.039528 170.20817 226.415204 175.19293 229.390343 174.994262 232.681985"/>
    <path fill="#FFE4E9" d="M244.793318,159 C244.793318,165.275537 233.30479,170.950224 214.789075,175.028097 C214.794514,179.912552 214.770039,184.795645 214.624545,189.677375 C213.056754,242.131108 173.218799,283.081507 128.009831,284.15377 C98.3754405,284.858167 70.7480405,268.27282 54,242.261905 C70.941125,277.852347 107.181181,301.838631 146.559541,300.97755 C197.832993,299.85215 243.014765,256.984756 244.793318,202.074489 C245.258352,187.724955 244.793318,173.359071 244.793318,159"/>
    <path fill="#D4D4CE" d="M57.3529288,254.898837 L127.755215,282.274373 C131.429206,283.702356 135.51036,283.550616 139.102647,281.930248 C147.312616,278.230229 158.52932,276.943148 169.419206,280.187947 C188.826815,285.971683 201.281347,301.549428 197.238322,314.98249 C193.193935,328.415551 174.183956,334.617927 154.774986,328.835546 C142.150235,325.073205 132.943468,316.751887 128.854144,307.967221 C127.410693,304.863323 124.918697,302.367741 121.800298,300.928919 C98.5593731,290.206857 75.31981,279.48344 52.0788852,268.762732 C42.1408604,264.178014 31.6431578,260.776055 20.7914012,259.268138 C10.243314,257.802221 2.57532038,253.08202 0.549041816,246.707582 C0.00298153238,244.988313 -0.37966919,242.374861 0.625299611,238.781873 C2.54400021,235.56146 4.71190039,234.035931 6.3282933,233.250134 C12.3131685,230.341331 20.9629813,232.59169 29.2219728,239.135481 C37.6825029,245.839141 47.2800911,250.980691 57.3529288,254.898837"/>
    <path fill="#B3B3AE" d="M165.823543,295.617639 C151.669592,291.261075 136.982589,296.318116 135.27244,303.483391 C133.34167,311.574929 141.822531,322.773051 155.975112,327.130975 C170.129063,331.488898 183.807517,327.966107 186.526215,319.265222 C189.246284,310.561616 179.977495,299.975562 165.823543,295.617639"/>
    <path stroke="#000" d="M177,168.205256 C187.688636,148.079132 206.251967,153.197749 209.942382,168.59868 C215.781922,192.971877 195.422227,224.115254 222,235"/>
    <path fill="#FFF" d="M204.82776,252.359341 C204.136828,253.518728 203.865294,254.873365 204.062895,256.209151 C205.1907,263.844135 207.990722,278.522965 208.955876,283.546973 C209.141379,284.513802 210.064862,285.143991 211.030016,284.971632 C216.5158,283.996724 233.547137,280.968315 243.526667,279.193551 C244.503919,279.019845 245.145114,278.08668 244.971709,277.109079 C243.373425,268.088486 241.775141,259.066547 240.176857,250.045955 C239.913389,248.562048 239.088034,247.237035 237.87151,246.348306 C232.748667,242.606221 227.627168,238.865483 222.504325,235.122051 C219.732532,233.096828 215.82218,233.896684 214.065277,236.848339 C210.985656,242.017775 207.90738,247.188558 204.82776,252.359341"/>
    <path d="M204.82776,252.359341 C204.136828,253.518728 203.865294,254.873365 204.062895,256.209151 C205.1907,263.844135 207.990722,278.522965 208.955876,283.546973 C209.141379,284.513802 210.064862,285.143991 211.030016,284.971632 C216.5158,283.996724 233.547137,280.968315 243.526667,279.193551 C244.503919,279.019845 245.145114,278.08668 244.971709,277.109079 C243.373425,268.088486 241.775141,259.066547 240.176857,250.045955 C239.913389,248.562048 239.088034,247.237035 237.87151,246.348306 C232.748667,242.606221 227.627168,238.865483 222.504325,235.122051 C219.732532,233.096828 215.82218,233.896684 214.065277,236.848339 C210.985656,242.017775 207.90738,247.188558 204.82776,252.359341 Z"/>
    <path fill="#EB3A0A" d="M232.906755,273.65055 L225.387377,274.973465 C225.247957,274.999035 225.196173,274.861764 225.196173,274.861764 L220.911335,267.941693 C218.566426,270.330477 220.566105,273.118961 221.191503,273.589989 C221.476982,273.918363 220.453241,276.482099 217.891899,276.934286 C215.468649,277.360902 213.370712,275.665203 213.083905,273.157989 C212.753281,270.221468 215.335868,266.712984 219.092238,264.859826 L213.017515,256.537439 C213.017515,256.537439 212.928552,256.350373 213.151623,256.31 L220.196974,255.069178 C220.335066,255.044954 220.420046,255.205103 220.420046,255.205103 L224.598659,262.174968 C227.177263,259.975941 224.865548,256.369215 224.184383,255.907607 C223.956,255.744766 224.435338,253.857964 226.959502,253.18103 C229.700098,252.43546 231.788741,254.074637 232.163183,256.596654 C232.615965,259.569512 230.316201,263.057809 226.486802,264.982293 L232.965179,273.494438 C232.965179,273.494438 233.074059,273.620942 232.906755,273.65055"/>
    <path fill="#74302F" d="M216 243.825L223 243M216 244.695604C217.07463 243.809138 218.220239 243.429946 219.382884 243.17041 220.554046 242.963119 221.740823 242.878854 223 243.30692 221.92679 244.196756 220.78118 244.575948 219.617116 244.832113 218.447374 245.036034 217.259177 245.120299 216 244.695604"/>
    <path fill="#FFE4E9" d="M15.1859239,254.155244 C6.53959895,233.21766 16.0975606,209.430542 36.5328509,201.026581 C38.8830583,200.790021 41.1479268,202.151255 42.0866552,204.358697 C43.0443477,206.606692 42.4144651,209.231832 40.5451358,210.743112 C38.7123804,211.496049 29.0406336,215.693298 24.4959962,227.003568 C23.8945599,228.499979 20.0082515,238.968095 24.6680287,250.255384 C29.8994413,262.922832 42.4781306,270.28593 55.1706052,269.226141 C56.1811266,266.076514 58.4785051,263.3946 61.7349308,262.056347 C67.6869835,259.608289 74.5533819,262.568668 77.0729126,268.666508 C79.5897341,274.764348 76.8060591,281.693527 70.8540065,284.141584 C65.6280121,286.289549 59.6989875,284.268651 56.6254309,279.617206 C39.4154108,281.243387 22.2771837,271.329497 15.1859239,254.155244"/>
    <path stroke="#45413C" stroke-linecap="round" stroke-width="4" d="M145,249.703395 C138.675459,246.236391 131.262323,244.509598 123.484494,245.121422 C115.713521,245.731905 108.68153,248.588426 103,253"/>
    <path fill="#FFE4E9" d="M61.6517599,262.872975 C58.379777,264.232296 56.0691008,266.957803 55.0533292,270.157013 C54.3670706,270.214681 53.6835353,270.235277 53,270.243515 L76.0032784,281 C78.1328586,277.771956 78.6720618,273.51275 77.0694301,269.588569 C74.5368092,263.393361 67.6347364,260.386379 61.6517599,262.872975"/>
  </g>
</svg>
