<svg xmlns="http://www.w3.org/2000/svg" xmlns:xlink="http://www.w3.org/1999/xlink" width="638" height="240" viewBox="0 0 638 240">
  <defs>
    <path id="group_2-a" d="M61.6992188,11.7421875 C71.6992687,11.7421875 79.6679391,14.1249762 85.6054688,18.890625 C90.6836191,23.0312707 93.9257742,28.6562145 95.3320312,35.765625 C95.488282,36.8593805 95.2539094,37.8749953 94.6289062,38.8125 C94.0820285,39.6718793 93.3007863,40.2187488 92.2851562,40.453125 C91.3476516,40.6875012 90.4882852,40.5312527 89.7070312,39.984375 C88.7695266,39.3593719 88.1835949,38.343757 87.9492188,36.9375 C86.6210871,30.4530926 83.4961184,25.609391 78.5742188,22.40625 C74.1991969,19.5937359 68.5742531,18.1875 61.6992188,18.1875 C52.8710496,18.1875 45.6445594,21.3515309 40.0195312,27.6796875 C34.2382523,34.3203457 31.3476562,43.2265066 31.3476562,54.3984375 C31.3476562,66.6641238 34.2382523,76.0390301 40.0195312,82.5234375 C45.4101832,88.5390926 52.6366734,91.546875 61.6992188,91.546875 C68.4961277,91.546875 74.0820094,90.0234527 78.4570312,86.9765625 C83.3008055,83.6952961 86.5820227,78.6953461 88.3007812,71.9765625 C88.457032,70.7265562 89.0429637,69.8281277 90.0585938,69.28125 C90.917973,68.8124977 91.8554637,68.6953113 92.8710938,68.9296875 C93.9648492,69.1640637 94.7851535,69.7109332 95.3320312,70.5703125 C95.9570344,71.5078172 96.1132828,72.6796805 95.8007812,74.0859375 C93.8476465,80.8828465 90.4101809,86.3124797 85.4882812,90.375 C79.4726262,95.4531504 71.543018,97.9921875 61.6992188,97.9921875 C50.1366609,97.9921875 40.9961273,94.1641008 34.2773438,86.5078125 C27.4804348,78.7733988 24.0820312,68.0703809 24.0820312,54.3984375 C24.0820312,41.9765004 27.5976211,31.7812898 34.6289062,23.8125 C41.6601914,15.7655848 50.6835387,11.7421875 61.6992188,11.7421875 Z M138.105469,13.5 L167.050781,13.5 C171.191427,13.5 174.121085,14.3203043 175.839844,15.9609375 C177.792979,17.7578215 178.769531,20.9218523 178.769531,25.453125 L178.769531,94.2421875 C178.769531,95.4140684 178.37891,96.351559 177.597656,97.0546875 C176.894528,97.757816 176.074223,98.109375 175.136719,98.109375 C174.121089,98.109375 173.261722,97.7968781 172.558594,97.171875 C171.855465,96.3906211 171.503906,95.4140684 171.503906,94.2421875 L171.503906,27.09375 C171.503906,24.9062391 171.074223,23.1875063 170.214844,21.9375 C169.277339,20.6093684 167.792979,19.9453125 165.761719,19.9453125 L137.988281,19.9453125 C136.035146,19.9453125 134.511724,20.6093684 133.417969,21.9375 C132.246088,23.2656316 131.660156,25.1015508 131.660156,27.4453125 L131.660156,66 C131.660156,77.0938055 130.683604,84.789041 128.730469,89.0859375 C126.074205,94.9453418 120.800821,97.9531242 112.910156,98.109375 C111.035147,98.109375 110.019532,97.2890707 109.863281,95.6484375 C109.785156,94.0859297 110.566398,93.3046875 112.207031,93.3046875 C118.300812,93.3046875 122.285147,90.5703398 124.160156,85.1015625 C125.332037,81.7421707 125.917969,75.1797363 125.917969,65.4140625 L125.917969,27.328125 C125.917969,22.5624762 126.894521,19.0468863 128.847656,16.78125 C130.800791,14.5937391 133.886698,13.5 138.105469,13.5 Z M213.925781,62.25 L246.152344,62.25 L230.332031,19.359375 L229.980469,19.359375 L213.925781,62.25 Z M223.417969,17.1328125 C224.042972,15.3359285 224.980463,13.9687547 226.230469,13.03125 C227.40235,12.1718707 228.730461,11.7421875 230.214844,11.7421875 C231.542975,11.7421875 232.792963,12.1718707 233.964844,13.03125 C235.21485,13.9687547 236.152341,15.3359285 236.777344,17.1328125 L265.839844,92.8359375 C266.230471,94.0078184 266.191409,95.1015574 265.722656,96.1171875 C265.332029,96.9765668 264.667973,97.5624984 263.730469,97.875 C262.792964,98.1875016 261.855473,98.1484395 260.917969,97.7578125 C259.980464,97.2109348 259.277346,96.3515684 258.808594,95.1796875 L248.378906,68.6953125 L211.699219,68.6953125 L201.386719,95.1796875 C200.917966,96.3515684 200.175786,97.2109348 199.160156,97.7578125 C198.300777,98.2265648 197.402348,98.3046891 196.464844,97.9921875 C195.527339,97.6796859 194.824221,97.0546922 194.355469,96.1171875 C193.886716,95.1796828 193.925779,94.0859438 194.472656,92.8359375 L223.417969,17.1328125 Z M313.300781,13.5 L340.019531,13.5 C343.847675,13.5 346.582023,14.3593664 348.222656,16.078125 C349.863289,17.7187582 350.683594,20.3359195 350.683594,23.9296875 L350.683594,84.75 C350.683594,87.0937617 351.464836,89.0468672 353.027344,90.609375 C354.511726,92.015632 356.542956,92.8749984 359.121094,93.1875 C360.449225,93.2656254 361.308592,93.7343707 361.699219,94.59375 C362.01172,95.0625023 362.167969,96.0390551 362.167969,97.5234375 L362.402344,99.28125 L363.222656,108.65625 C363.457032,110.921886 362.910163,112.210936 361.582031,112.523438 C360.332025,112.914064 359.433596,112.210946 358.886719,110.414062 C357.402336,106.039041 355.019548,102.523451 351.738281,99.8671875 C348.613266,97.2890496 345.410173,96 342.128906,96 L292.675781,96 C290.566396,96 288.574228,97.1718633 286.699219,99.515625 C284.824209,101.937512 283.261725,105.374978 282.011719,109.828125 C281.386716,111.625009 280.410163,112.484375 279.082031,112.40625 C277.675774,112.328125 276.972656,111.273448 276.972656,109.242188 L277.441406,96.46875 C277.441406,94.9062422 277.675779,93.7343789 278.144531,92.953125 C278.457033,92.4062473 279.121089,91.7031293 280.136719,90.84375 L282.714844,88.734375 C289.668004,81.1562121 295.058575,70.6875668 298.886719,57.328125 C302.167985,45.921818 303.808594,34.4375578 303.808594,22.875 C303.808594,19.5156082 304.511712,17.1328195 305.917969,15.7265625 C307.402351,14.2421801 309.863264,13.5 313.300781,13.5 Z M338.847656,19.9453125 L314.121094,19.9453125 C312.167959,19.9453125 310.917971,20.4531199 310.371094,21.46875 C309.902341,22.2500039 309.667969,23.9687367 309.667969,26.625 C309.667969,37.0938023 307.949236,48.0702551 304.511719,59.5546875 C301.386703,70.4141168 297.597679,78.9296566 293.144531,85.1015625 C291.738274,86.9765719 291.269529,88.2265594 291.738281,88.8515625 C292.128908,89.3203148 293.222647,89.5546875 295.019531,89.5546875 L338.964844,89.5546875 C340.761728,89.5546875 341.894529,89.359377 342.363281,88.96875 C343.06641,88.4999977 343.417969,87.5234449 343.417969,86.0390625 L343.417969,24.28125 C343.417969,22.7187422 343.027348,21.585941 342.246094,20.8828125 C341.46484,20.2578094 340.332039,19.9453125 338.847656,19.9453125 Z M380.097656,15.2578125 C380.097656,14.0859316 380.449215,13.1875031 381.152344,12.5625 C381.855472,11.9374969 382.714839,11.625 383.730469,11.625 C384.667973,11.625 385.488278,11.8984348 386.191406,12.4453125 C386.97266,13.0703156 387.363281,13.9687441 387.363281,15.140625 L387.363281,57.4453125 L429.667969,13.8515625 C430.527348,12.9140578 431.464839,12.4453125 432.480469,12.4453125 C433.417973,12.3671871 434.238278,12.6406219 434.941406,13.265625 C435.644535,13.8125027 436.035156,14.5546828 436.113281,15.4921875 C436.113281,16.4296922 435.72266,17.4062449 434.941406,18.421875 L406.816406,47.8359375 L442.675781,92.3671875 C443.37891,93.3828176 443.652345,94.3984324 443.496094,95.4140625 C443.339843,96.2734418 442.832036,96.9765598 441.972656,97.5234375 C441.113277,97.9921898 440.214848,98.1484383 439.277344,97.9921875 C438.183588,97.8359367 437.324222,97.2890672 436.699219,96.3515625 L401.425781,52.7578125 L387.363281,66.46875 L387.363281,94.2421875 C387.363281,95.4140684 386.97266,96.351559 386.191406,97.0546875 C385.488278,97.757816 384.667973,98.109375 383.730469,98.109375 C382.714839,98.109375 381.855472,97.7968781 381.152344,97.171875 C380.449215,96.4687465 380.097656,95.5312559 380.097656,94.359375 L380.097656,15.2578125 Z M471.503906,62.25 L503.730469,62.25 L487.910156,19.359375 L487.558594,19.359375 L471.503906,62.25 Z M480.996094,17.1328125 C481.621097,15.3359285 482.558588,13.9687547 483.808594,13.03125 C484.980475,12.1718707 486.308586,11.7421875 487.792969,11.7421875 C489.1211,11.7421875 490.371088,12.1718707 491.542969,13.03125 C492.792975,13.9687547 493.730466,15.3359285 494.355469,17.1328125 L523.417969,92.8359375 C523.808596,94.0078184 523.769534,95.1015574 523.300781,96.1171875 C522.910154,96.9765668 522.246098,97.5624984 521.308594,97.875 C520.371089,98.1875016 519.433598,98.1484395 518.496094,97.7578125 C517.558589,97.2109348 516.855471,96.3515684 516.386719,95.1796875 L505.957031,68.6953125 L469.277344,68.6953125 L458.964844,95.1796875 C458.496091,96.3515684 457.753911,97.2109348 456.738281,97.7578125 C455.878902,98.2265648 454.980473,98.3046891 454.042969,97.9921875 C453.105464,97.6796859 452.402346,97.0546922 451.933594,96.1171875 C451.464841,95.1796828 451.503904,94.0859438 452.050781,92.8359375 L480.996094,17.1328125 Z M590.332031,13.5 C593.847674,13.5 596.621084,14.6718633 598.652344,17.015625 C600.527353,19.1250105 601.464844,21.7031098 601.464844,24.75 L601.464844,94.125 C601.464844,95.3750063 601.074223,96.351559 600.292969,97.0546875 C599.58984,97.757816 598.769536,98.109375 597.832031,98.109375 C596.816401,98.109375 595.957035,97.757816 595.253906,97.0546875 C594.550778,96.351559 594.199219,95.3750063 594.199219,94.125 L594.199219,58.8515625 L563.847656,58.8515625 C560.019512,58.8515625 556.816419,59.749991 554.238281,61.546875 C551.503893,63.5781352 550.136719,66.3124828 550.136719,69.75 C550.136719,75.0625266 549.863284,79.8281039 549.316406,84.046875 C548.769529,88.656273 547.910162,92.562484 546.738281,95.765625 C546.269529,96.7812551 545.566411,97.484373 544.628906,97.875 C543.691402,98.1875016 542.714849,98.1875016 541.699219,97.875 C540.761714,97.484373 540.058596,96.8593793 539.589844,96 C539.121091,94.9843699 539.121091,93.8515688 539.589844,92.6015625 C540.605474,89.8671738 541.347654,86.7422051 541.816406,83.2265625 C542.441409,79.2421676 542.753906,74.398466 542.753906,68.6953125 C542.753906,64.7109176 543.92577,61.5078246 546.269531,59.0859375 C548.300791,56.976552 550.68358,55.8046887 553.417969,55.5703125 C549.042947,54.0078047 545.683605,51.6640781 543.339844,48.5390625 C540.839831,45.1796707 539.589844,41.000025 539.589844,36 C539.589844,29.1249656 541.621073,23.6953324 545.683594,19.7109375 C549.902365,15.5702918 555.956992,13.5 563.847656,13.5 L590.332031,13.5 Z M564.785156,52.40625 L594.199219,52.40625 L594.199219,25.3359375 C594.199219,23.8515551 593.769536,22.6015676 592.910156,21.5859375 C591.972652,20.492182 590.683602,19.9453125 589.042969,19.9453125 L564.785156,19.9453125 C558.925752,19.9453125 554.472671,21.3906105 551.425781,24.28125 C548.457016,27.1718895 546.972656,31.1171625 546.972656,36.1171875 C546.972656,40.9609617 548.457016,44.8281105 551.425781,47.71875 C554.550797,50.8437656 559.003877,52.40625 564.785156,52.40625 Z M228.691406,135.960938 L228.691406,214.242188 C228.691406,215.414068 228.300785,216.390621 227.519531,217.171875 C226.816403,217.796878 225.996098,218.109375 225.058594,218.109375 C224.042964,218.109375 223.183597,217.83594 222.480469,217.289062 C221.77734,216.585934 221.425781,215.687505 221.425781,214.59375 L221.425781,150.84375 L174.433594,208.03125 L174.433594,214.242188 C174.433594,215.414068 174.042973,216.351559 173.261719,217.054688 C172.55859,217.679691 171.738286,218.03125 170.800781,218.109375 C169.785151,218.1875 168.925785,217.953128 168.222656,217.40625 C167.519528,216.781247 167.167969,215.960943 167.167969,214.945312 L167.167969,135.960938 C167.167969,134.55468 167.519528,133.500004 168.222656,132.796875 C168.925785,132.093746 169.785151,131.742188 170.800781,131.742188 C171.738286,131.742188 172.55859,132.093746 173.261719,132.796875 C174.042973,133.578129 174.433594,134.632806 174.433594,135.960938 L174.433594,197.71875 L221.425781,140.765625 L221.425781,135.960938 C221.425781,134.55468 221.77734,133.460941 222.480469,132.679688 C223.183597,131.976559 224.042964,131.625 225.058594,131.625 C225.996098,131.625 226.816403,131.976559 227.519531,132.679688 C228.300785,133.460941 228.691406,134.55468 228.691406,135.960938 Z M266.777344,133.5 L310.019531,133.5 C312.050791,133.5 313.066406,134.554677 313.066406,136.664062 C313.066406,138.851573 312.050791,139.945312 310.019531,139.945312 L268.535156,139.945312 C266.738272,139.945312 265.292974,140.609368 264.199219,141.9375 C263.261714,143.265632 262.792969,145.062489 262.792969,147.328125 L262.792969,214.945312 C262.792969,215.960943 262.402348,216.781247 261.621094,217.40625 C260.917965,217.953128 260.097661,218.226562 259.160156,218.226562 C258.144526,218.226562 257.28516,217.914066 256.582031,217.289062 C255.878903,216.664059 255.527344,215.804693 255.527344,214.710938 L255.527344,145.570312 C255.527344,141.898419 256.425772,139.007823 258.222656,136.898438 C260.253916,134.632801 263.10545,133.5 266.777344,133.5 Z M361.347656,133.5 C368.925819,133.5 374.941384,135.882789 379.394531,140.648438 C383.457052,144.945334 385.488281,150.374967 385.488281,156.9375 C385.488281,163.421907 383.457052,168.812479 379.394531,173.109375 C374.941384,177.796898 368.925819,180.140625 361.347656,180.140625 L334.160156,180.140625 L334.160156,214.359375 C334.160156,215.531256 333.769535,216.468746 332.988281,217.171875 C332.285153,217.796878 331.464848,218.109375 330.527344,218.109375 C329.511714,218.109375 328.652347,217.796878 327.949219,217.171875 C327.24609,216.468746 326.894531,215.531256 326.894531,214.359375 L326.894531,144.75 C326.894531,141.70311 327.79296,139.125011 329.589844,137.015625 C331.621104,134.671863 334.433576,133.5 338.027344,133.5 L361.347656,133.5 Z M360.410156,173.695312 C366.035184,173.695312 370.449203,172.015642 373.652344,168.65625 C376.621109,165.531234 378.105469,161.625023 378.105469,156.9375 C378.105469,152.171851 376.621109,148.226578 373.652344,145.101562 C370.371077,141.664045 365.957059,139.945312 360.410156,139.945312 L339.316406,139.945312 C337.597648,139.945312 336.269536,140.492182 335.332031,141.585938 C334.550777,142.601568 334.160156,143.851555 334.160156,145.335938 L334.160156,173.695312 L360.410156,173.695312 Z M418.183594,182.25 L450.410156,182.25 L434.589844,139.359375 L434.238281,139.359375 L418.183594,182.25 Z M427.675781,137.132812 C428.300784,135.335929 429.238275,133.968755 430.488281,133.03125 C431.660162,132.171871 432.988274,131.742188 434.472656,131.742188 C435.800788,131.742188 437.050775,132.171871 438.222656,133.03125 C439.472663,133.968755 440.410153,135.335929 441.035156,137.132812 L470.097656,212.835938 C470.488283,214.007818 470.449221,215.101557 469.980469,216.117188 C469.589842,216.976567 468.925786,217.562498 467.988281,217.875 C467.050777,218.187502 466.113286,218.148439 465.175781,217.757812 C464.238277,217.210935 463.535159,216.351568 463.066406,215.179688 L452.636719,188.695312 L415.957031,188.695312 L405.644531,215.179688 C405.175779,216.351568 404.433599,217.210935 403.417969,217.757812 C402.558589,218.226565 401.660161,218.304689 400.722656,217.992188 C399.785152,217.679686 399.082034,217.054692 398.613281,216.117188 C398.144529,215.179683 398.183591,214.085944 398.730469,212.835938 L427.675781,137.132812 Z"/>
  </defs>
  <g fill="none" fill-rule="evenodd" transform="translate(4 1.5)">
    <text fill="#FFF" font-family="Gulim" font-size="120">
      <tspan x="19.996" y="103">СЛАДКАЯ </tspan> <tspan x="158.277" y="223">ИГРА</tspan>
    </text>
    <path stroke="#6C33AC" stroke-width="4" d="M95.3348037,82.5910638 C95.5981999,80.780426 96.5483837,79.3613911 98.1008895,78.5254589 C99.39766,77.8181295 100.836228,77.6383085 102.290152,77.9740827 C103.894589,78.3178906 105.176966,79.1728088 105.996132,80.4609121 C106.946744,81.8868309 107.176896,83.6129665 106.753155,85.5197984 L106.722993,85.6382973 C104.661267,92.8131039 101.003594,98.5905654 95.7783854,102.903277 C89.3776346,108.306508 80.9900523,110.992188 70.6992188,110.992188 C58.5804076,110.992188 48.8872173,106.932646 41.775014,98.8280417 C34.6293442,90.6967623 31.0820312,79.5247652 31.0820312,65.3984375 C31.0820312,52.508358 34.7606777,41.8402833 42.1228474,33.4965263 C49.5372855,25.0111138 59.1112852,20.7421875 70.6992188,20.7421875 C81.1261729,20.7421875 89.5354485,23.2567258 95.8693454,28.3405876 C101.318783,32.7839754 104.799767,38.8232721 106.294017,46.3775398 L106.31193,46.4827823 C106.538152,48.0663321 106.189498,49.5771632 105.316229,50.886251 C104.485763,52.1912697 103.258611,53.0502761 101.770228,53.39341 C100.272809,53.7677646 98.8177869,53.5032151 97.5976309,52.6484756 C96.1663688,51.6943009 95.2964568,50.1864534 94.9898943,48.3388074 C93.7657118,42.3619166 90.940949,37.9835342 86.4927036,35.088607 C82.4669487,32.5006217 77.214462,31.1875 70.6992188,31.1875 C62.4356424,31.1875 55.7552121,34.1124452 50.5279779,39.9929234 C45.0865514,46.2432106 42.3476562,54.6819688 42.3476562,65.3984375 C42.3476562,77.210027 45.0930748,86.1140871 50.5090016,92.1887173 C55.5071357,97.7663452 62.1876293,100.546875 70.6992188,100.546875 C77.1102519,100.546875 82.2984783,99.1319042 86.335335,96.3207251 C90.728165,93.344937 93.725034,88.8001057 95.3348037,82.5910638 Z M187.974976,109.505497 C186.909326,110.554016 185.596786,111.109375 184.136719,111.109375 C182.641202,111.109375 181.307123,110.624255 180.229866,109.666694 L180.072005,109.509804 C179.027898,108.349686 178.503906,106.894152 178.503906,105.242188 L178.503906,38.09375 C178.503906,36.2802886 178.17131,34.9499031 177.580908,34.0908664 C177.045373,33.3321915 176.180584,32.9453125 174.761719,32.9453125 L146.988281,32.9453125 C145.61235,32.9453125 144.660895,33.3600493 143.917644,34.2607433 C143.095961,35.1919846 142.660156,36.5575059 142.660156,38.4453125 L142.660156,77 C142.660156,88.3598375 141.654169,96.2870147 139.552033,100.911713 C136.554975,107.52287 130.566798,110.938348 121.910156,111.109375 C119.050989,111.109375 117.131424,109.558957 116.865777,106.748313 C116.729365,104.020089 118.444767,102.304688 121.207031,102.304688 C126.460919,102.304688 129.675443,100.098642 131.271756,95.4428182 C132.346615,92.3615544 132.917969,85.9623964 132.917969,76.4140625 L132.917969,38.328125 C132.917969,33.1255258 134.01998,29.1582835 136.355781,26.4492185 C138.733363,23.7863268 142.362642,22.5 147.105469,22.5 L176.050781,22.5 C180.656897,22.5 184.061808,23.4533753 186.193957,25.4890755 C188.632627,27.7326525 189.769531,31.4162208 189.769531,36.453125 L189.769531,105.242188 C189.769531,106.945775 189.165354,108.414287 187.974976,109.505497 Z M225.809937,71.25 L252.282924,71.25 L239.143757,35.62826 L225.809937,71.25 Z M230.539391,27.4459303 C231.289386,25.3048822 232.45133,23.6156048 234.047741,22.41844 C235.564639,21.3060484 237.307482,20.7421875 239.214844,20.7421875 C240.979122,20.7421875 242.640581,21.3133143 244.164844,22.43125 C245.751392,23.6211612 246.916703,25.3205737 247.644482,27.4160166 L276.73721,103.203482 C277.284531,104.845445 277.226714,106.464336 276.543389,107.944793 C275.919571,109.317194 274.821328,110.286232 273.362924,110.772367 C271.963829,111.238732 270.528657,111.178933 269.148738,110.603966 L269.025525,110.552628 L268.910227,110.48537 C267.571014,109.704163 266.579652,108.492499 265.947692,106.912521 L256.017021,81.6953125 L222.066722,81.6953125 L212.243672,106.922469 C211.604834,108.519564 210.547523,109.743818 209.117861,110.513604 C207.769741,111.248942 206.295211,111.377162 204.832388,110.889554 C203.383109,110.406461 202.26878,109.415946 201.566614,108.011615 C200.809947,106.49828 200.870844,104.79315 201.604553,103.121663 L230.539391,27.4459303 Z M368.306654,102.195248 C370.224029,102.324381 371.707302,103.12042 372.45647,104.632431 C372.971383,105.50056 373.158362,106.698616 373.167606,108.389058 L373.394731,110.106916 L374.21204,119.450452 C374.534287,122.565507 373.587735,124.832627 371.110145,125.453263 C368.654812,126.183151 366.800217,124.713134 365.992761,122.056655 C364.627047,118.031392 362.460063,114.834202 359.465515,112.409934 C356.680631,110.112405 353.916474,109 351.128906,109 L301.675781,109 C300.244934,109 298.786777,109.85774 297.280666,111.739971 C295.582583,113.933328 294.123113,117.144164 292.937296,121.368638 L292.900712,121.485166 C292.00968,124.046884 290.311958,125.540879 287.971091,125.403171 C285.330092,125.256449 283.972656,123.220294 283.974002,120.168842 L284.441406,107.46875 C284.441406,105.576177 284.74295,104.06846 285.408045,102.960847 C285.863156,102.164402 286.665435,101.314931 287.870243,100.295835 L290.336664,98.2778545 C297.015837,90.9561107 302.233707,80.7954932 305.964668,67.7752062 C309.194562,56.547477 310.808594,45.2492565 310.808594,33.875 C310.808594,30.0352178 311.657402,27.1587026 313.503755,25.3123489 C315.424066,23.3920378 318.381876,22.5 322.300781,22.5 L349.019531,22.5 C353.344021,22.5 356.591876,23.5207544 358.63687,25.6639114 C360.706009,27.7330511 361.683594,30.8520104 361.683594,34.9296875 L361.683594,95.75 C361.683594,97.5718332 362.260504,99.0141076 363.402833,100.15747 C364.544062,101.238634 366.158098,101.926556 368.306654,102.195248 Z M302.924496,98.5139754 C303.233964,98.5404627 303.600096,98.5546875 304.019531,98.5546875 L347.964844,98.5546875 C348.758433,98.5546875 349.382761,98.5130659 349.822298,98.4372836 C349.990677,98.4082528 350.116481,98.3767803 350.194835,98.3487377 L350.253881,98.3046494 C350.289052,98.2812021 350.417969,97.9230995 350.417969,97.0390625 L350.417969,35.28125 C350.417969,34.2830477 350.230526,33.6962123 349.947237,33.4068917 C349.554965,33.1225263 348.870004,32.9453125 347.847656,32.9453125 L323.121094,32.9453125 C322.383745,32.9453125 321.831463,33.0328689 321.471501,33.1791031 C321.260703,33.2647399 321.17476,33.3376052 321.08608,33.4977415 C320.867729,33.8616587 320.667969,35.3265695 320.667969,37.625 C320.667969,48.2951304 318.919168,59.463611 315.43372,71.1077813 C312.24979,82.1719381 308.370066,90.8913177 303.744531,97.3015625 C303.39669,97.7653502 303.123251,98.1724742 302.924496,98.5139754 Z M398.363281,63.5126223 L437.19366,23.5001132 C438.3896,22.1954522 439.814343,21.4707877 441.396306,21.4459718 C442.825914,21.3470418 444.138893,21.7870183 445.221374,22.7279454 C446.340707,23.6207157 446.984401,24.8624299 447.106373,26.3260965 L447.113281,26.4921875 C447.113281,27.9128217 446.558398,29.3000294 445.526654,30.6412965 L445.38694,30.8040588 L418.47536,58.9490866 L453.233512,102.112805 L453.320166,102.228768 C454.301121,103.645702 454.711196,105.168841 454.463834,106.771833 C454.203213,108.205244 453.357237,109.376596 452.046407,110.21076 L451.930361,110.279229 C450.681559,110.960393 449.330673,111.19533 447.994501,110.972086 C446.367281,110.739626 445.028206,109.903454 444.091618,108.54432 L410.251071,66.7214509 L398.363281,78.3120455 L398.363281,105.242188 C398.363281,106.945775 397.759104,108.414287 396.568726,109.505497 C395.503076,110.554016 394.190536,111.109375 392.730469,111.109375 C391.234952,111.109375 389.900873,110.624255 388.823616,109.666694 L388.73813,109.586089 C387.641348,108.489306 387.097656,107.039462 387.097656,105.359375 L387.097656,26.2578125 C387.097656,24.5459919 387.664131,23.098335 388.823616,22.0676814 C389.900873,21.1101196 391.234952,20.625 392.730469,20.625 C394.106715,20.625 395.360099,21.0427947 396.440796,21.8835749 C397.719878,22.9068404 398.363281,24.3866673 398.363281,26.140625 L398.363281,63.5126223 Z M483.388062,71.25 L509.861049,71.25 L496.721882,35.62826 L483.388062,71.25 Z M496.558594,30.4890497 L496.733082,30.4246891 L496.910156,30.4909708 L496.910156,32.359375 L496.558594,32.359375 L496.558594,30.4890497 Z M488.117516,27.4459303 C488.867511,25.3048822 490.029455,23.6156048 491.625866,22.41844 C493.142764,21.3060484 494.885607,20.7421875 496.792969,20.7421875 C498.557247,20.7421875 500.218706,21.3133143 501.742969,22.43125 C503.329517,23.6211612 504.494828,25.3205737 505.222607,27.4160166 L534.315335,103.203482 C534.862656,104.845445 534.804839,106.464336 534.121514,107.944793 C533.497696,109.317194 532.399453,110.286232 530.941049,110.772367 C529.541954,111.238732 528.106782,111.178933 526.726863,110.603966 L526.60365,110.552628 L526.488352,110.48537 C525.149139,109.704163 524.157777,108.492499 523.525817,106.912521 L513.595146,81.6953125 L479.644847,81.6953125 L469.821797,106.922469 C469.182959,108.519564 468.125648,109.743818 466.695986,110.513604 C465.347866,111.248942 463.873336,111.377162 462.410513,110.889554 C460.961234,110.406461 459.846905,109.415946 459.144739,108.011615 C458.388072,106.49828 458.448969,104.79315 459.182678,103.121663 L488.117516,27.4459303 Z M610.67047,109.505319 C609.604787,110.553953 608.292181,111.109375 606.832031,111.109375 C605.289086,111.109375 603.920146,110.549354 602.839693,109.468901 C601.735025,108.364234 601.199219,106.875882 601.199219,105.125 L601.199219,71.8515625 L572.847656,71.8515625 C569.409258,71.8515625 566.605221,72.6380609 564.430929,74.1523627 C562.205844,75.8052833 561.136719,77.9435335 561.136719,80.75 C561.136719,86.1443196 560.858415,90.9947525 560.302477,95.2825105 C559.738464,100.036336 558.846419,104.091082 557.616527,107.452788 L557.5542,107.603741 C556.880621,109.063162 555.811553,110.132231 554.398137,110.721154 L554.261362,110.772367 C552.920419,111.219347 551.517613,111.219347 550.111047,110.786558 L549.929988,110.721154 C548.5762,110.157075 547.523131,109.221014 546.834053,107.957704 L546.773925,107.838116 C546.069188,106.311185 546.069188,104.62731 546.714993,102.905189 C547.676011,100.317835 548.384011,97.3367802 548.840567,93.916627 C549.447899,90.044887 549.753906,85.301774 549.753906,79.6953125 C549.753906,75.2138494 551.109428,71.5087571 553.828891,68.6986541 C554.792616,67.6978629 555.834528,66.8736207 556.949569,66.2297144 C554.450701,64.7514041 552.375378,62.9197666 550.735377,60.733084 C547.965273,57.0107566 546.589844,52.4116645 546.589844,47 C546.589844,39.6133504 548.815015,33.6652961 553.282658,29.2835693 C557.909199,24.7427052 564.468054,22.5 572.847656,22.5 L599.332031,22.5 C603.408255,22.5 606.73811,23.9069809 609.147162,26.6868973 C611.35473,29.1704114 612.464844,32.223223 612.464844,35.75 L612.464844,105.125 C612.464844,106.897262 611.869161,108.405654 610.67047,109.505319 Z M601.199219,61.40625 L601.199219,36.3359375 C601.199219,35.3112237 600.927558,34.5209366 600.391643,33.8875202 C599.849175,33.2546413 599.120043,32.9453125 598.042969,32.9453125 L573.785156,32.9453125 C568.400204,32.9453125 564.438565,34.2311075 561.821015,36.7141924 C559.261102,39.2067386 557.972656,42.6312925 557.972656,47.1171875 C557.972656,51.4429828 559.257141,54.7894048 561.839995,57.3045364 C564.558478,60.0230199 568.500684,61.40625 573.785156,61.40625 L601.199219,61.40625 Z M228.425781,167.427894 L185.433594,219.747564 L185.433594,225.242188 C185.433594,226.964465 184.816087,228.446481 183.590446,229.549506 C182.563884,230.462006 181.335623,230.988404 179.954174,231.103484 C178.459558,231.218454 177.106123,230.849336 175.994775,229.984954 L175.893929,229.901069 C174.754126,228.887911 174.167969,227.52021 174.167969,225.945312 L174.167969,146.960938 C174.167969,145.064749 174.688776,143.502329 175.808443,142.382661 C176.888896,141.302208 178.257836,140.742188 179.800781,140.742188 C181.277743,140.742188 182.603745,141.310474 183.675932,142.382661 C184.85323,143.559959 185.433594,145.126942 185.433594,146.960938 L185.433594,203.152281 L228.425781,151.047037 L228.425781,146.960938 C228.425781,145.093416 228.930444,143.523354 229.99388,142.341758 L230.066255,142.265474 C231.146708,141.185021 232.515648,140.625 234.058594,140.625 C235.535556,140.625 236.861557,141.193286 237.933745,142.265474 C239.118086,143.449815 239.691406,145.055112 239.691406,146.960938 L239.691406,225.242188 C239.691406,226.935997 239.096453,228.423381 237.933745,229.586089 L237.848259,229.666694 C236.779377,230.616811 235.486396,231.109375 234.058594,231.109375 C232.612916,231.109375 231.320035,230.698004 230.252588,229.867767 L230.154301,229.791322 L230.066255,229.703276 C228.977567,228.614588 228.425781,227.204469 228.425781,225.59375 L228.425781,167.427894 Z M274.791102,154.151604 C274.142706,155.106403 273.792969,156.48568 273.792969,158.328125 L273.792969,225.945312 C273.792969,227.565875 273.128257,228.961769 271.848975,229.984954 C270.789786,230.808768 269.536402,231.226562 268.160156,231.226562 C266.664639,231.226562 265.330561,230.741443 264.253304,229.783881 C263.103532,228.761862 262.527344,227.353402 262.527344,225.710938 L262.527344,156.570312 C262.527344,152.453655 263.568475,149.103929 265.733517,146.563347 C268.166202,143.849969 271.564399,142.5 275.777344,142.5 L319.019531,142.5 C322.172602,142.5 324.066406,144.466643 324.066406,147.664062 C324.066406,150.924388 322.189834,152.945312 319.019531,152.945312 L277.535156,152.945312 C276.355653,152.945312 275.491575,153.33015 274.791102,154.151604 Z M345.160156,193.140625 L345.160156,225.359375 C345.160156,227.081653 344.54265,228.563668 343.317009,229.666694 C342.248127,230.616811 340.955146,231.109375 339.527344,231.109375 C338.031827,231.109375 336.697748,230.624255 335.620491,229.666694 L335.535005,229.586089 C334.438223,228.489306 333.894531,227.039462 333.894531,225.359375 L333.894531,155.75 C333.894531,152.239553 334.953852,149.199764 337.078466,146.705764 C339.506761,143.903884 342.876083,142.5 347.027344,142.5 L370.347656,142.5 C378.458151,142.5 385.007285,145.094137 389.847825,150.274415 C394.272116,154.953954 396.488281,160.877933 396.488281,167.9375 C396.488281,174.920461 394.270841,180.805208 389.84453,185.486874 C384.995607,190.591004 378.451579,193.140625 370.347656,193.140625 L345.160156,193.140625 Z M345.884575,153.848582 C345.405249,154.492699 345.160156,155.299791 345.160156,156.335938 L345.160156,182.695312 L369.410156,182.695312 C374.514718,182.695312 378.401419,181.216302 381.202345,178.278751 C383.809409,175.534473 385.105469,172.12379 385.105469,167.9375 C385.105469,163.670962 383.807645,160.221483 381.205633,157.482514 C378.319421,154.458863 374.432347,152.945312 369.410156,152.945312 L348.316406,152.945312 C347.17912,152.945312 346.419584,153.248254 345.884575,153.848582 Z M430.067749,191.25 L456.540736,191.25 L443.40157,155.62826 L430.067749,191.25 Z M443.238281,150.48905 L443.41277,150.424689 L443.589844,150.490971 L443.589844,152.359375 L443.238281,152.359375 L443.238281,150.48905 Z M434.797204,147.44593 C435.547198,145.304882 436.709142,143.615605 438.305554,142.41844 C439.822452,141.306048 441.565294,140.742188 443.472656,140.742188 C445.236934,140.742188 446.898394,141.313314 448.422656,142.43125 C450.009204,143.621161 451.174516,145.320574 451.902294,147.416017 L480.995023,223.203482 C481.542344,224.845445 481.484526,226.464336 480.801202,227.944793 C480.177383,229.317194 479.07914,230.286232 477.620737,230.772367 C476.221642,231.238732 474.78647,231.178933 473.40655,230.603966 L473.283337,230.552628 L473.168039,230.48537 C471.828826,229.704163 470.837465,228.492499 470.205504,226.912521 L460.274834,201.695312 L426.324534,201.695312 L416.501485,226.922469 C415.862647,228.519564 414.805336,229.743818 413.375673,230.513604 C412.027553,231.248942 410.553023,231.377162 409.090201,230.889554 C407.640922,230.406461 406.526593,229.415946 405.824427,228.011615 C405.067759,226.49828 405.128657,224.79315 405.862365,223.121663 L434.797204,147.44593 Z" opacity=".698"/>
    <g stroke-linecap="round" stroke-linejoin="round">
      <use fill="#000" xlink:href="#group_2-a"/>
      <path stroke="#ED4B98" stroke-opacity=".344" stroke-width="13" d="M89.1890261,35.256291 C89.1936191,35.2488054 89.1982548,35.2413872 89.2029329,35.2340384 L89.1724837,35.2807818 C89.1779419,35.2725931 89.1834563,35.2644293 89.1890261,35.256291 Z M89.2029329,35.2340384 C89.2087501,35.2249 89.2146326,35.2158689 89.2205793,35.2069487 L89.2029329,35.2340384 Z M89.1724837,35.2807818 L89.1451066,35.3228093 C89.1540662,35.3087298 89.1631934,35.2947198 89.1724837,35.2807818 Z M90.7723539,34.1320752 C90.7770012,34.1308808 90.7816473,34.1297032 90.786292,34.1285424 L90.7575954,34.13544 C90.762508,34.134306 90.7674281,34.1331843 90.7723539,34.1320752 Z M90.786292,34.1285424 C90.7987285,34.1254343 90.8111551,34.1224471 90.8235695,34.1195822 L90.786292,34.1285424 Z M90.7575954,34.13544 L90.7086747,34.1471987 C90.7249161,34.1431384 90.7412235,34.1392191 90.7575935,34.1354405 Z M93.3765554,34.6198179 C93.3777618,34.6206197 93.3789674,34.6214223 93.3801724,34.6222258 L93.3730053,34.6173292 C93.3741898,34.6181583 93.3753731,34.6189879 93.3765554,34.6198179 Z M93.3801724,34.6222258 C93.3984589,34.6344188 93.4165824,34.6467997 93.4345365,34.6593675 L93.3801724,34.6222258 Z M93.3730053,34.6173292 L93.3125825,34.5760481 C93.3330333,34.5896819 93.3531739,34.6034467 93.3730053,34.6173292 Z M94.5414679,73.8060901 C94.5481122,73.7806699 94.5547363,73.755232 94.5613402,73.7297763 L94.4376893,73.6942444 C94.4232143,73.7206035 94.4083005,73.7468917 94.3929564,73.7730875 L94.5414679,73.8060901 Z M94.3929564,73.7730875 C94.1064964,74.2621411 93.670104,74.7190022 93.1402426,75.0043121 C92.6263038,75.284747 91.9628508,75.3747243 91.4597898,75.2740534 C90.9196568,75.1415329 90.2865431,74.7159389 89.8827196,74.1128274 C89.4851815,73.4856911 89.4081277,72.8893588 89.4555654,72.6758895 L94.3929564,73.7730875 Z M91.4597898,75.2740534 C91.4517935,75.2724532 91.4438378,75.2708049 91.4359238,75.2691084 L91.4833287,75.2796566 C91.4755028,75.2778513 91.4676561,75.2759834 91.4597898,75.2740534 Z M91.4359238,75.2691084 C91.4270653,75.2672094 91.4182591,75.26525 91.409507,75.2632303 L91.4359238,75.2691084 Z M91.4833287,75.2796566 L91.5091547,75.2854032 C91.5005721,75.2835641 91.491963,75.2816484 91.4833287,75.2796566 Z M89.8827196,74.1128274 C89.8816787,74.1112728 89.8806393,74.109717 89.8796014,74.10816 L89.8857515,74.1176012 C89.8847388,74.1160097 89.8837282,74.1144185 89.8827196,74.1128274 Z M89.8796014,74.10816 C89.8689828,74.0922303 89.8585242,74.0761773 89.8482316,74.0600032 L89.8796014,74.10816 Z M89.8857515,74.1176012 L89.9237043,74.1758638 C89.9107427,74.1564213 89.8980937,74.1369969 89.8857515,74.1176012 Z M100.074374,42.3619899 C98.6158976,44.6207601 96.4219565,46.1546933 93.8028642,46.7735619 C91.0888409,47.4351983 88.3414553,46.9374834 86.0407663,45.3519184 C83.5745584,43.6827073 82.0932986,41.1392999 81.5623375,38.1494827 C80.5636695,33.3643499 78.4202589,30.061325 75.0592944,27.8739101 C71.8193904,25.7911146 67.4049318,24.6875 61.6992188,24.6875 C54.7059763,24.6875 49.2541808,27.0745024 44.921983,31.9477043 C40.2452244,37.3196566 37.8476562,44.7067586 37.8476562,54.3984375 C37.8476562,65.188309 40.2664253,73.0329654 44.86031,78.1855968 C48.975279,82.7776637 54.4272801,85.046875 61.6992188,85.046875 C67.2420314,85.046875 71.5355334,83.8759199 74.8115183,81.595091 C78.2086666,79.293797 80.5711531,75.7480948 81.9264534,70.6609904 C82.4519488,67.6009521 84.2091208,65.0485603 86.9460549,63.5749288 C89.2120082,62.3389543 91.7593272,62.0142958 94.2827462,62.584739 C96.9918851,63.1777424 99.2795466,64.7008612 100.778541,67.0224476 C102.42956,69.5348417 102.814899,72.4859287 102.145997,75.4959855 L102.102873,75.6900451 L102.04797,75.8811067 C99.7419136,83.9061832 95.5887726,90.4662581 89.6811197,95.341901 C82.4139034,101.476564 72.9958796,104.492188 61.6992188,104.492188 C48.3288377,104.492188 37.3921696,99.9118735 29.3947719,90.7985575 C21.4643904,81.7743303 17.5820312,69.5471301 17.5820312,54.3984375 C17.5820312,40.4550376 21.6275551,28.7230185 29.7342151,19.5355854 C38.0107474,10.063554 48.823715,5.2421875 61.6992188,5.2421875 C73.0867073,5.2421875 82.4873447,8.0531624 89.7130678,13.8530035 C95.9979022,18.9775608 100.01625,25.9491518 101.708486,34.5043482 L101.742161,34.67459 L101.766703,34.8463862 C102.147192,37.5098063 101.554506,40.1137022 100.074374,42.3619899 Z M173.11513,92.3522821 C173.158335,92.3080014 173.203095,92.264937 173.249385,92.2232755 L173.122331,92.3376246 L173.001462,92.4584934 C173.037656,92.4222994 173.075589,92.3868685 173.11513,92.3522821 Z M129.114352,17.01116 C129.11292,17.0126186 129.111489,17.0140777 129.110058,17.0155372 L133.696251,21.1103525 C133.707814,21.0974019 133.71968,21.0845222 133.731853,21.0717159 C133.744782,21.0559473 133.757772,21.0404948 133.770821,21.0253575 L129.114352,17.01116 Z M128.471682,17.7196546 C128.44783,17.7480975 128.424076,17.7766803 128.400422,17.8054029 L133.275428,21.8201136 C133.276352,21.8181324 133.277277,21.8161533 133.278202,21.8141765 L128.544023,17.6369594 C128.519773,17.6644423 128.49566,17.6920075 128.471682,17.7196546 Z M112.855781,95.3634375 L112.858459,95.4986786 L112.910156,95.4960937 L112.910156,95.3582589 L112.855781,95.3634375 Z M112.910156,95.3582589 L112.910156,91.609375 C114.233661,91.609375 116.155884,93.16194 116.334002,95.0321784 L112.910156,95.3582589 Z M180.28423,11.2175999 C183.784147,14.4660088 185.269531,19.3039758 185.269531,25.453125 L185.269531,94.2421875 C185.269531,97.1445866 184.185498,99.8033908 182.074327,101.768577 C180.18862,103.59695 177.771456,104.609375 175.136719,104.609375 C172.561457,104.609375 170.159275,103.735854 168.240229,102.030036 L167.969498,101.789386 L167.727182,101.520146 C165.915873,99.5075808 165.003906,96.9743389 165.003906,94.2421875 L165.003906,27.09375 C165.003906,26.8552556 164.995702,26.6390348 164.980701,26.4453125 L138.22824,26.4453125 C138.193663,26.6270911 138.160156,26.9413775 138.160156,27.4453125 L138.160156,66 C138.160156,77.9584095 137.087942,86.4074555 134.650551,91.7697082 C130.886706,100.072307 123.290246,104.405103 113.038844,104.608101 L112.910156,104.609375 C107.836633,104.609375 103.88318,101.416201 103.392561,96.2646966 L103.378695,96.1191025 L103.371391,95.973032 C103.103837,90.6219472 106.921096,86.8046875 112.207031,86.8046875 C115.571162,86.8046875 117.053611,85.7873204 118.022855,82.9606435 C118.879416,80.5051676 119.417969,74.4733816 119.417969,65.4140625 L119.417969,27.328125 C119.417969,21.1423873 120.802263,16.1589273 123.924491,12.5371425 L123.999061,12.4521475 C127.331649,8.71964911 132.183516,7 138.105469,7 L167.050781,7 C172.678103,7 177.137098,8.24124423 180.28423,11.2175999 Z M230.112741,37.5476325 L236.067974,21.6380315 L230.332031,19.4909708 L230.332031,19.359375 L230.154957,19.4246891 L229.980469,19.359375 L229.980469,19.4890497 L224.233655,21.6087761 L230.112741,37.5476325 Z M230.332031,19.4909708 L230.154957,19.4246891 L229.980469,19.4890497 L229.980469,25.859375 L230.332031,25.859375 L230.332031,19.4909708 Z M236.826729,55.75 L240.053967,64.4994011 L246.152344,55.75 L236.826729,55.75 Z M223.299287,55.75 L213.925781,55.75 L220.013287,64.5286565 L223.299287,55.75 Z M217.314998,14.8941541 C218.34798,11.9791086 220.014655,9.56811548 222.386605,7.78961753 C224.67979,6.10794814 227.355778,5.2421875 230.214844,5.2421875 C232.960451,5.2421875 235.547723,6.13156234 237.864844,7.83125 C240.1801,9.56769232 241.845599,11.9765946 242.878694,14.8895836 L271.960234,90.6423033 L272.006285,90.780457 C272.906168,93.4801061 272.806151,96.2805884 271.640038,98.8069066 C270.491538,101.333607 268.416375,103.164633 265.785949,104.041441 C263.348277,104.853999 260.793321,104.747542 258.417969,103.757813 L258.017526,103.590961 L257.642807,103.372375 C255.399751,102.063926 253.759841,100.059591 252.760663,97.5613949 L243.952781,75.1953125 L216.143572,75.1953125 L207.421817,97.5937269 C206.400287,100.147554 204.633932,102.192806 202.272695,103.464134 C199.82491,104.799289 197.054151,105.040225 194.409363,104.158629 C191.808592,103.291705 189.769038,101.478768 188.541692,99.0240759 C187.163723,96.2681383 187.243629,93.2505579 188.446946,90.3952132 L217.314998,14.8941541 Z M355.832136,99.1861196 C356.638757,99.3844977 357.475111,99.5355631 358.33894,99.6402696 L358.538613,99.6644724 L358.739401,99.6762834 C358.683606,99.6730014 358.588631,99.6592147 358.452826,99.6252637 C358.208519,99.5641875 357.937257,99.461108 357.649182,99.303976 C356.85353,98.8699843 356.17554,98.1496175 355.781837,97.2834691 L355.999336,97.7619671 L356.290892,98.1993013 C356.010668,97.7789657 355.835035,97.3963379 355.721351,97.0458148 C355.668694,96.8834544 355.643461,96.7736932 355.632418,96.7046707 C355.649824,96.813462 355.667969,97.0992386 355.667969,97.5234375 L355.667969,97.9548618 L355.832136,99.1861196 Z M359.863235,106.257346 C359.939293,106.234809 360.016002,106.214408 360.093276,106.196226 L359.866049,106.249691 L359.643244,106.319318 C359.715582,106.296712 359.788951,106.276049 359.863235,106.257346 Z M282.850523,94.0509733 C282.834405,94.0678028 282.818305,94.0846742 282.802222,94.1015876 L284.252764,95.8744724 L284.297538,95.8378398 C284.310012,95.8272248 284.322614,95.8165315 284.335343,95.8057609 L282.850523,94.0509733 Z M279.924316,109.242188 L280.368234,109.366796 L280.722806,109.379808 L280.327148,109.242187 L279.924316,109.242188 Z M280.327148,109.242187 L275.87249,107.692741 C275.900233,107.612978 276.06723,107.336006 276.516467,106.940678 C277.322118,106.231705 278.428732,105.856585 279.463724,105.917467 C280.722504,105.987364 282.088077,106.720723 282.908324,107.951093 C283.198525,108.386394 283.362993,108.791473 283.442068,109.13853 C283.45329,109.18778 283.460444,109.222076 283.464983,109.242188 L280.327148,109.242188 Z M283.464983,109.242188 C283.471593,109.271477 283.472656,109.270683 283.472656,109.242188 L283.464983,109.242188 Z M283.947623,96.144923 C283.956154,95.937165 283.972544,95.7848048 283.990961,95.6927222 C283.972322,95.7859162 283.909252,95.964737 283.762744,96.221346 L283.788112,96.1780281 C283.656495,96.4083564 283.596861,96.4846891 283.602537,96.4786786 C283.687519,96.3886982 283.803048,96.276458 283.947623,96.144923 Z M283.762744,96.221346 C283.748687,96.2459661 283.733862,96.2713022 283.718235,96.2973474 L283.762744,96.221346 Z M352.871974,11.5353546 C355.867681,14.5650037 357.183594,18.7934755 357.183594,23.9296875 L357.183594,84.75 C357.183594,85.3523234 357.284979,85.6478056 357.558956,85.9459325 C357.955204,86.2863275 358.637284,86.5652592 359.761869,86.7166576 C363.019422,86.9764704 365.856167,88.5045384 367.392506,91.444692 C368.341318,93.0737238 368.63243,94.8044604 368.664821,97.0684085 L368.864775,98.5680599 L369.693984,108.04474 C370.196201,113.068268 368.339834,117.493822 363.295377,118.795274 C358.170385,120.272379 354.195955,117.157016 352.7059,112.427895 C351.60674,109.226053 349.93315,106.768761 347.601792,104.881114 C345.582204,103.214954 343.805652,102.5 342.128906,102.5 L292.864667,102.5 C292.608884,102.659401 292.245921,102.993208 291.807418,103.535663 C290.519094,105.217637 289.302819,107.904815 288.269843,111.584792 L288.21618,111.775966 L288.150948,111.963509 C286.66135,116.246104 283.340998,119.168013 278.721476,118.896242 C273.302309,118.595177 270.472656,114.350699 270.472656,109.242188 L270.472656,109.122962 L270.941772,96.3395641 C270.956282,93.7852846 271.404258,91.5825101 272.536293,89.6668985 C273.310615,88.3346634 274.41356,87.1717295 275.938094,85.8817391 L276.020673,85.8130276 L278.227112,84.0077593 C284.296805,77.2580669 289.128023,67.7873923 292.640052,55.5311388 C295.754361,44.7052099 297.308594,33.8255786 297.308594,22.875 C297.308594,17.9543395 298.485204,13.9669395 301.321775,11.1303684 C304.222925,8.22921765 308.298752,7 313.300781,7 L340.019531,7 C345.429767,7 349.813788,8.36813746 352.871974,11.5353546 Z M336.917969,26.4453125 L316.168397,26.4453125 C316.168112,26.5044006 316.167969,26.5642988 316.167969,26.625 C316.167969,37.7481185 314.351514,49.3486617 310.758222,61.3522423 C308.308793,69.8640048 305.440819,77.0956669 302.117588,83.0546875 L336.917969,83.0546875 L336.917969,26.4453125 Z M313.818953,26.4584766 C313.814161,26.4590998 313.809793,26.4597261 313.805852,26.4603509 C313.81627,26.4586993 313.827853,26.456566 313.840595,26.4538968 Z M316.034929,24.6567749 C316.055079,24.6217546 316.074827,24.5862945 316.094156,24.5503988 L316.022528,24.6834214 L315.944798,24.8129724 C315.97721,24.7589524 316.00719,24.7069121 316.034929,24.6567749 Z M338.540809,83.7135775 C338.429269,83.7931098 338.316342,83.8800954 338.202083,83.9753117 L338.468825,83.7530264 L338.75773,83.5604231 C338.683203,83.6101075 338.610899,83.6612035 338.540809,83.7135775 Z M393.863281,41.4137624 L424.950203,9.37959341 C426.899052,7.28944133 429.389605,6.02595479 432.206862,5.94903964 C434.749824,5.80323418 437.162008,6.61480983 439.101821,8.26990221 C441.158866,9.94323236 442.370099,12.3036312 442.590829,14.9523919 L442.613281,15.2218227 L442.613281,15.4921875 C442.613281,17.9998631 441.688809,20.3110445 440.093462,22.3849949 L439.880631,22.6616761 L415.458005,48.2036721 L447.886042,88.4737835 L448.02003,88.6673226 C449.626095,90.9871935 450.343613,93.6522615 449.92051,96.4024342 L449.891248,96.5768178 C449.395797,99.3017997 447.788941,101.526677 445.462347,103.007237 L445.277521,103.124854 L445.085195,103.229759 C442.982256,104.376816 440.640441,104.792201 438.282955,104.415855 C435.501666,103.998606 433.127423,102.532976 431.498862,100.258114 L400.857972,62.3896375 L393.863281,69.2094605 L393.863281,94.2421875 C393.863281,97.1445866 392.779248,99.8033908 390.668077,101.768577 C388.78237,103.59695 386.365206,104.609375 383.730469,104.609375 C381.155207,104.609375 378.753025,103.735854 376.833979,102.030036 L376.691215,101.903135 L376.55615,101.768069 C374.573646,99.7855655 373.597656,97.1829259 373.597656,94.359375 L373.597656,15.2578125 C373.597656,12.3311276 374.64769,9.64770686 376.833979,7.70433943 C378.753025,5.99852059 381.155207,5.125 383.730469,5.125 C386.093883,5.125 388.321696,5.86760453 390.251924,7.36966524 C392.651119,9.28902116 393.863281,12.0769944 393.863281,15.140625 L393.863281,41.4137624 Z M487.690866,37.5476325 L493.646099,21.6380315 L487.910156,19.4909708 L487.910156,19.359375 L487.733082,19.4246891 L487.558594,19.359375 L487.558594,19.4890497 L481.81178,21.6087761 L487.690866,37.5476325 Z M487.910156,19.4909708 L487.733082,19.4246891 L487.558594,19.4890497 L487.558594,25.859375 L487.910156,25.859375 L487.910156,19.4909708 Z M494.404854,55.75 L497.632092,64.4994011 L503.730469,55.75 L494.404854,55.75 Z M480.877412,55.75 L471.503906,55.75 L477.591412,64.5286565 L480.877412,55.75 Z M474.893123,14.8941541 C475.926105,11.9791086 477.59278,9.56811548 479.96473,7.78961753 C482.257915,6.10794814 484.933903,5.2421875 487.792969,5.2421875 C490.538576,5.2421875 493.125848,6.13156234 495.442969,7.83125 C497.758225,9.56769232 499.423724,11.9765946 500.456819,14.8895836 L529.538359,90.6423033 L529.58441,90.780457 C530.484293,93.4801061 530.384276,96.2805884 529.218163,98.8069066 C528.069663,101.333607 525.9945,103.164633 523.364074,104.041441 C520.926402,104.853999 518.371446,104.747542 515.996094,103.757813 L515.595651,103.590961 L515.220932,103.372375 C512.977876,102.063926 511.337966,100.059591 510.338788,97.5613949 L501.530906,75.1953125 L473.721697,75.1953125 L464.999942,97.5937269 C463.978412,100.147554 462.212057,102.192806 459.85082,103.464134 C457.403035,104.799289 454.632276,105.040225 451.987488,104.158629 C449.386717,103.291705 447.347163,101.478768 446.119817,99.0240759 C444.741848,96.2681383 444.821754,93.2505579 446.025071,90.3952132 L474.893123,14.8941541 Z M595.804505,92.3574927 C595.849392,92.3117989 595.89612,92.2669956 595.944698,92.2232755 L595.817644,92.3376246 L595.696775,92.4584934 C595.731153,92.4241147 595.7671,92.3904246 595.804505,92.3574927 Z M542.851976,83.3646385 C542.851013,83.3726123 542.85005,83.3805832 542.849085,83.3885513 L548.237883,84.233853 C548.241754,84.2091792 548.245613,84.184479 548.249461,84.1597524 C548.252782,84.1350586 548.256091,84.11035 548.259388,84.0856267 L542.851976,83.3646385 Z M542.71684,94.2943659 L543.12841,94.4449405 L543.330653,93.9595588 L542.71684,94.2943659 Z M543.212539,94.4757194 L543.535156,94.59375 L543.105469,93.3046875 L542.943688,93.8304757 L543.212539,94.4757194 Z M543.417969,94.2331731 L542.894167,93.9914184 L542.72077,94.5549569 L543.417969,94.2331731 Z M542.894167,93.9914184 L540.836545,93.0417468 C541.03348,92.615056 541.519699,92.1288363 542.128906,91.875 L542.943688,93.8304757 L542.894167,93.9914184 Z M543.105469,93.3046875 L542.573426,91.7085586 C542.947094,91.5840024 543.355866,91.5840024 543.610777,91.6624364 L543.105469,93.3046875 Z M543.330653,93.9595588 L544.199219,91.875 C544.614636,92.0480903 545.048859,92.4340666 545.296165,92.8874612 L543.330653,93.9595588 Z M604.770348,101.767889 C602.884539,103.596696 600.467099,104.609375 597.832031,104.609375 C595.102626,104.609375 592.587145,103.580315 590.657712,101.650882 C588.649582,99.6427514 587.699219,97.0028534 587.699219,94.125 L587.699219,65.3515625 L563.847656,65.3515625 C561.334752,65.3515625 559.45254,65.8661365 558.036511,66.8234634 C557.016001,67.6056611 556.636719,68.3972719 556.636719,69.75 C556.636719,75.3283539 556.34746,80.369712 555.771135,84.8126903 C555.168567,89.8914773 554.202998,94.280428 552.84258,97.998905 L552.751322,98.2483427 L552.640017,98.4895032 C551.505578,100.947454 549.613123,102.83991 547.128906,103.875 L546.909687,103.966341 L546.684387,104.041441 C544.435709,104.791001 542.073832,104.791001 539.787661,104.087564 L539.488319,103.995458 L539.199219,103.875 C536.908793,102.920656 535.068333,101.284692 533.883523,99.1125388 L533.779309,98.9214799 L533.688108,98.7238782 C532.452404,96.0465201 532.452404,93.122727 533.496579,90.3383501 C534.334718,88.0818225 534.965815,85.4245741 535.373425,82.3674983 L535.394929,82.219272 C535.962501,78.6010056 536.253906,74.0842169 536.253906,68.6953125 C536.253906,63.5224366 537.763207,59.0025813 540.803317,55.4397944 C539.829613,54.5072731 538.936096,53.500676 538.125328,52.4196325 C534.747518,47.8806999 533.089844,42.3378532 533.089844,36 C533.089844,27.4622162 535.751384,20.3477143 541.130554,15.0719909 C546.674576,9.63063544 554.367944,7 563.847656,7 L590.332031,7 C595.669563,7 600.251419,8.93599553 603.510504,12.69726 C606.466329,16.0225633 607.964844,20.1434777 607.964844,24.75 L607.964844,94.125 C607.964844,97.0765358 606.907732,99.7770016 604.770348,101.767889 Z M587.699219,45.90625 L587.699219,26.4453125 L564.785156,26.4453125 C560.46772,26.4453125 557.611825,27.3722255 555.96029,28.9383127 C554.320295,30.5351492 553.472656,32.788085 553.472656,36.1171875 C553.472656,39.2775302 554.307423,41.452317 556.021975,43.1225559 C557.825761,44.926342 560.618499,45.90625 564.785156,45.90625 L587.699219,45.90625 Z M214.925781,168.992219 L180.933594,210.35927 L180.933594,214.242188 C180.933594,217.202858 179.805595,219.910054 177.580084,221.912848 C175.825794,223.472217 173.67963,224.392001 171.299308,224.590229 C168.726972,224.788101 166.261883,224.115804 164.232042,222.537039 L164.063694,222.406102 L163.904291,222.264411 C161.781973,220.377905 160.667969,217.778563 160.667969,214.945312 L160.667969,135.960938 C160.667969,132.962403 161.569583,130.25756 163.626462,128.200681 C165.555895,126.271248 168.071376,125.242188 170.800781,125.242188 C173.491523,125.242188 175.955342,126.29811 177.857913,128.200681 C179.926308,130.269077 180.933594,132.988747 180.933594,135.960938 L180.933594,179.627727 L214.925781,138.430213 L214.925781,135.960938 C214.925781,133.055571 215.774928,130.413783 217.649057,128.331417 L217.763406,128.204362 L217.884275,128.083493 C219.813708,126.15406 222.329188,125.125 225.058594,125.125 C227.749335,125.125 230.213154,126.180923 232.115725,128.083493 C234.207012,130.17478 235.191406,132.931084 235.191406,135.960938 L235.191406,214.242188 C235.191406,217.110336 234.136705,219.74709 232.115725,221.768069 L231.98066,221.903135 L231.837896,222.030036 C229.94607,223.711658 227.589565,224.609375 225.058594,224.609375 C222.645308,224.609375 220.37702,223.887647 218.489855,222.419852 L218.170423,222.171405 L217.884275,221.885257 C215.928077,219.929059 214.925781,217.367636 214.925781,214.59375 L214.925781,168.992219 Z M259.225383,137.752612 C259.218263,137.761165 259.211152,137.76973 259.204049,137.778307 L263.062358,141.23748 C263.080973,141.216717 263.099817,141.196205 263.118898,141.175946 C263.13601,141.154775 263.153291,141.13395 263.170737,141.113469 L259.225383,137.752612 Z M269.33959,146.445312 C269.309729,146.697697 269.292969,146.991987 269.292969,147.328125 L269.292969,214.945312 C269.292969,217.926973 268.011554,220.617943 265.611708,222.537039 C263.751384,223.983958 261.52357,224.726562 259.160156,224.726562 C256.584894,224.726562 254.182712,223.853042 252.263666,222.147223 C250.108948,220.231918 249.027344,217.587997 249.027344,214.710938 L249.027344,145.570312 C249.027344,140.452934 250.389555,136.070169 253.274575,132.683406 L253.382955,132.559395 C256.718844,128.838596 261.347033,127 266.777344,127 L310.019531,127 C315.696675,127 319.566406,131.018567 319.566406,136.664062 C319.566406,142.338222 315.75268,146.445312 310.019531,146.445312 L269.33959,146.445312 Z M340.660156,186.640625 L340.660156,214.359375 C340.660156,217.320046 339.532158,220.027242 337.306646,222.030036 C335.41482,223.711658 333.058315,224.609375 330.527344,224.609375 C327.952082,224.609375 325.5499,223.735854 323.630854,222.030036 L323.48809,221.903135 L323.353025,221.768069 C321.370521,219.785566 320.394531,217.182926 320.394531,214.359375 L320.394531,144.75 C320.394531,140.19655 321.815859,136.117959 324.677865,132.758577 C327.999491,128.925931 332.621725,127 338.027344,127 L361.347656,127 C370.655896,127 378.405561,130.069672 384.117735,136.182864 C389.356012,141.72335 391.988281,148.759607 391.988281,156.9375 C391.988281,165.042208 389.351866,172.038848 384.107028,177.586247 C378.367607,183.627742 370.63454,186.640625 361.347656,186.640625 L340.660156,186.640625 Z M340.660156,146.445312 L340.660156,167.195312 L360.410156,167.195312 C364.343669,167.195312 367.043907,166.167789 368.939847,164.179378 C370.733085,162.29176 371.605469,159.996014 371.605469,156.9375 C371.605469,153.79396 370.727352,151.460018 368.950533,149.589655 C366.953193,147.497204 364.251745,146.445312 360.410156,146.445312 L340.660156,146.445312 Z M434.370554,157.547632 L440.325787,141.638031 L434.589844,139.490971 L434.589844,139.359375 L434.41277,139.424689 L434.238281,139.359375 L434.238281,139.48905 L428.491467,141.608776 L434.370554,157.547632 Z M441.084542,175.75 L444.31178,184.499401 L450.410156,175.75 L441.084542,175.75 Z M427.557099,175.75 L418.183594,175.75 L424.271099,184.528656 L427.557099,175.75 Z M421.57281,134.894154 C422.605792,131.979109 424.272468,129.568115 426.644417,127.789618 C428.937603,126.107948 431.61359,125.242188 434.472656,125.242188 C437.218263,125.242188 439.805536,126.131562 442.122656,127.83125 C444.437913,129.567692 446.103411,131.976595 447.136507,134.889584 L476.218046,210.642303 L476.264098,210.780457 C477.163981,213.480106 477.063963,216.280588 475.897851,218.806907 C474.749351,221.333607 472.674188,223.164633 470.043762,224.041441 C467.606089,224.853999 465.051133,224.747542 462.675781,223.757813 L462.275338,223.590961 L461.90062,223.372375 C459.657564,222.063926 458.017654,220.059591 457.018475,217.561395 L448.210593,195.195312 L420.401385,195.195312 L411.67963,217.593727 C410.658099,220.147554 408.891744,222.192806 406.530508,223.464134 C404.082722,224.799289 401.311963,225.040225 398.667176,224.158629 C396.066405,223.291705 394.026851,221.478768 392.799505,219.024076 C391.421536,216.268138 391.501442,213.250558 392.704758,210.395213 L421.57281,134.894154 Z"/>
    </g>
  </g>
</svg>
